<svg xmlns="http://www.w3.org/2000/svg" id="a" viewBox="0 0 460 327.78"><defs><style>.b{fill:#fff}.d{fill:none;stroke-miterlimit:10;stroke-width:5px}.e{fill:#c1282f}.d{stroke:#c1282f}</style></defs><path d="m395 176.37-150-150M65 176.37l150-150" class="d"/><circle cx="230" cy="20" r="20" class="e"/><rect width="460" height="160" y="167.78" class="e" rx="20" ry="20"/><rect width="140" height="440" x="160" y="27.78" fill="none" stroke="#fff" stroke-miterlimit="10" stroke-width="5" rx="10" ry="10" transform="rotate(90 230 247.78)"/><path d="M98.39 282.76c-3.08 1.54-10.01 3.19-19.03 3.19-25.63 0-38.83-15.95-38.83-37.07 0-25.3 18.04-39.38 40.48-39.38 8.69 0 15.29 1.76 18.26 3.3l-3.41 13.31c-3.41-1.43-8.14-2.75-14.08-2.75-13.31 0-23.65 8.03-23.65 24.53 0 14.85 8.8 24.2 23.76 24.2 5.06 0 10.67-1.1 13.97-2.42l2.53 13.09ZM109.39 210.71h16.83v60.06h29.48v14.08h-46.31v-74.14ZM229.29 247.01c0 24.31-14.74 39.05-36.41 39.05s-34.87-16.61-34.87-37.73c0-22.22 14.19-38.83 36.08-38.83s35.2 17.05 35.2 37.51Zm-53.57.99c0 14.52 6.82 24.75 18.04 24.75s17.82-10.78 17.82-25.19c0-13.31-6.38-24.75-17.93-24.75s-17.93 10.78-17.93 25.19ZM240.84 267.58c4.51 2.31 11.44 4.62 18.59 4.62 7.7 0 11.77-3.19 11.77-8.03s-3.52-7.26-12.43-10.45c-12.32-4.29-20.35-11.11-20.35-21.89 0-12.65 10.56-22.33 28.05-22.33 8.36 0 14.52 1.76 18.92 3.74l-3.74 13.53c-2.97-1.43-8.25-3.52-15.51-3.52s-10.78 3.3-10.78 7.15c0 4.73 4.18 6.82 13.75 10.45 13.09 4.84 19.25 11.66 19.25 22.11 0 12.43-9.57 22.99-29.92 22.99-8.47 0-16.83-2.2-21.01-4.51l3.41-13.86ZM343.8 253.5h-27.28v17.6h30.47v13.75h-47.3v-74.14h45.76v13.75h-28.93v15.4h27.28v13.64ZM358.43 211.7c6.16-.99 14.19-1.54 22.66-1.54 14.08 0 23.21 2.53 30.36 7.92 7.7 5.72 12.54 14.85 12.54 27.94 0 14.19-5.17 23.98-12.32 30.03-7.81 6.49-19.69 9.57-34.21 9.57-8.69 0-14.85-.55-19.03-1.1V211.7Zm16.83 60.5c1.43.33 3.74.33 5.83.33 15.18.11 25.08-8.25 25.08-25.96.11-15.4-8.91-23.54-23.32-23.54-3.74 0-6.16.33-7.59.66v48.51Z" class="b"/></svg>