<svg xmlns="http://www.w3.org/2000/svg" id="a" viewBox="0 0 460 327.78"><defs><style>.b{fill:#fff}.d{fill:none;stroke-miterlimit:10;stroke-width:5px}.e{fill:#039245}.d{stroke:#039245}</style></defs><path d="m395 176.37-150-150M65 176.37l150-150" class="d"/><circle cx="230" cy="20" r="20" class="e"/><rect width="460" height="160" y="167.78" class="e" rx="20" ry="20"/><rect width="140" height="440" x="160" y="27.78" fill="none" stroke="#fff" stroke-miterlimit="10" stroke-width="5" rx="10" ry="10" transform="rotate(90 230 247.78)"/><path d="M168.62 247.01c0 24.31-14.74 39.05-36.41 39.05s-34.87-16.61-34.87-37.73c0-22.22 14.19-38.83 36.08-38.83s35.2 17.05 35.2 37.51Zm-53.57.99c0 14.52 6.82 24.75 18.04 24.75s17.82-10.78 17.82-25.19c0-13.31-6.38-24.75-17.93-24.75s-17.93 10.78-17.93 25.19ZM179.62 211.7c5.17-.88 12.43-1.54 22.66-1.54s17.71 1.98 22.66 5.94c4.73 3.74 7.92 9.9 7.92 17.16s-2.42 13.42-6.82 17.6c-5.72 5.39-14.19 7.81-24.09 7.81-2.2 0-4.18-.11-5.72-.33v26.51h-16.61V211.7Zm16.61 33.66c1.43.33 3.19.44 5.61.44 8.91 0 14.41-4.51 14.41-12.1 0-6.82-4.73-10.89-13.09-10.89-3.41 0-5.72.33-6.93.66v21.89ZM287.64 253.5h-27.28v17.6h30.47v13.75h-47.3v-74.14h45.76v13.75h-28.93v15.4h27.28v13.64ZM302.27 284.85v-74.14h19.58l15.4 27.17c4.4 7.81 8.8 17.05 12.1 25.41h.33c-1.1-9.79-1.43-19.8-1.43-30.91v-21.67h15.4v74.14h-17.6l-15.84-28.6c-4.4-7.92-9.24-17.49-12.87-26.18l-.33.11c.44 9.79.66 20.24.66 32.34v22.33h-15.4Z" class="b"/></svg>