<?xml version="1.0" encoding="UTF-8"?>
<svg id="a" xmlns="http://www.w3.org/2000/svg" version="1.1" viewBox="0 0 100 22">
  <!-- Generator: Adobe Illustrator 29.1.0, SVG Export Plug-In . SVG Version: 2.1.0 Build 142)  -->
  <defs>
    <style>
      .st0 {
        fill: #ed1c24;
      }
    </style>
  </defs>
  <path class="st0" d="M10.8,20.6c-.1.2-.2.3-.2.4-.3.5-.7.7-1.2.7s-2.5-.5-2.9-.7c-.8-.5-.8-1.6-.8-2.1s0-1.4.2-3.5c0-2,.6-8.8.6-8.8l.2-1.2c0-.1,0-.3-.2-.4-.1-.1-.3-.2-.4-.2s-2.5.9-2.8,1.1c-.3.2-.6.4-.9.8-.1.1-.2.2-.3.2-.1,0-.4-.1-.7-.4-.4-.3-.5-.6-.5-.9s0-.2,0-.5c0-.1,0-.3,0-.4s0-.2,0-.2c0,0-.2,0-.4-.1-.3,0-.4-.2-.4-.4s.2-.3.7-.5c.2,0,.7-.2,1.3-.5C6.3,1.1,10.3.2,13.9.2s7.2,1.1,9.2,3.2c1.7,1.8,2.6,3.8,2.6,6.1s-.6,3.7-1.9,5.9c-.7,1.1-1.3,2-1.9,2.6-.6.6-2,1.9-4,2.5-5,1.7-6.3.4-7.1,0h0ZM10.6,3.8l.9.4s.8.3.8.7-.7.9-.8,1.2-.2.9-.2,1.7c-.1,2.4-.2,3.9-.3,4.5-.1,1.8-.1,6-.1,6.2.5.2,1,.5,1.4.5.6,0,1.5-.3,2.6-1s4.1-2.4,5.2-7.2c1.1-4.6-1.1-6.6-1.4-6.9-1-.9-2.7-1-3.3-1-2.9,0-4.7.7-4.7.7h0Z"/>
  <path class="st0" d="M36,18.3c-1.1,1.3-2.4,3.2-4.9,3.3-3,.1-3.7-3.2-3.7-3.8,0-1.5.8-8.8.8-8.8,0-.2.2-.4.5-.6.3-.2.6-.3.9-.3s.2,0,.4,0c.2,0,.3,0,.4,0,.4,0,.8-.4,1.1-.4.7,0,1.8,1,1.9,1.1s.1.2.1.3c0,.2-1.1,3.9-1.5,5.6-.2.7-.2,1.4-.2,2.2s.2,1.9.9,2c.9,0,1.9-1.4,2.5-4,.3-1.3.6-3.2.7-4.1s-.4-1.1-.4-1.2c0-.2,0-.4.2-.5.2-.2.4-.3.5-.3,0,0,1.3,0,1.6.1.4,0,.7.1.9.1s.3,0,.9,0c.1,0,.2,0,.3,0,.2,0,.7.7.7,1.4s-1.1,3.7-1.2,6.2c0,.4.2.8.5,1.2s.7.6,1,.6c.6,0,1.5-.7,2.5-2,.2-.2.3-.3.3-.3.2,0,.2.1.3.4,0,0,0,.6,0,1.7,0,.1-.2.4-.7.7-.3.2-.6.4-1,.6-.2,0-.3.2-.5.3-.4.3-.7.4-.7.4s-.3.1-.9.3c-.5.2-.8.2-1,.2-.8,0-1.5-.2-2-.6-.5-.4-1-1-1.4-1.8h0Z"/>
  <path class="st0" d="M52.9,18.1c-.4.6-3.5,3.8-6.1,2.7-2.4-1-2.6-2.6-2.8-4.1s.6-5.9.9-7.8c.3-2.2.9-5.9.8-6.1-.2-.3-.3-1.1,0-1.4s2-.7,2.4-.7c.3,0,.6,0,.8,0,.6,0,2.1.5,2.3,1.1.2.6-.5,1.9-1.2,4.3-.7,2.4-1.6,5.5-1.5,9.7,0,1,.1,1.6.2,1.8.2.7.6,1.1,1.2,1.1s1.2-.7,1.7-2.4c.5-1.7-.4-4.5-.8-4.9-.3-.4-.5-.7-.6-.7-.2-.1,0-.4.4-.8.3-.2,1.6-.8,2.4-.9s1.3.2,1.9.8c.7.6.8,2.7.3,4.2-.4,1.4-1.2,2.9-1.2,2.9,0,.1.7.8,2.1.7.6,0,1.2-.5,2.3-1.6,0,0,.5-.5.5-.3s.2,1.4.2,1.6c0,0-.3.4-.4.5-.3.2-.4.4-1.2.8-.8.4-1.5.6-2.1.6s-.7,0-.9-.2c-.3,0-.8-.4-1.7-.9h0Z"/>
  <path class="st0" d="M61,8.6c1-.6,2.4-1.4,4.9-1.2,2.5.2,4.1,1.6,4.5,2.2.5.8.6,1.8.6,2.2s-.4,2-.8,2.5c-1.8,2.3-4.5,2.4-5.2,2.3-.2,0-1,0-1.1,0-.3,0-.4.1-.4.4,0,.6.3,1.1.8,1.6.5.4,1.1.7,1.8.7s2-.2,3.1-.7c2.1-1.1,3.1-2.3,3.2-2.4s.8-.8.8-.8c.1,0,0,.7,0,.8,0,0,0,.5,0,.7,0,.2,0,.4,0,.5,0,.3-.7.9-1.2,1.4-.5.4-2.5,1.8-4.1,2.5-1.5.7-2.8.6-3.9.6-2.4,0-4.7-1.4-5.2-3.7-.3-1.3,0-3.1.2-4.1s.5-2.1,1.1-3.6c.2-.7.5-1.2.7-1.7ZM65.8,9.1c-.3,0-.8.9-1.4,2.7-.5,1.6-.8,2.7-.8,3.2s0,.2,0,.2.8.3,1.1.3c.5,0,1.1-.5,1.6-1.4s.8-1.9.8-2.9,0-.9-.3-1.4c-.4-.6-1-.6-1-.6h0Z"/>
  <path class="st0" d="M75.1,8.6c1-.6,2.4-1.4,4.9-1.2,2.5.2,4.1,1.6,4.5,2.2.5.8.6,1.8.6,2.2s-.4,2-.8,2.5c-1.8,2.3-4.5,2.4-5.2,2.3-.2,0-1,0-1.1,0-.3,0-.4.1-.4.4,0,.6.3,1.1.8,1.6.5.4,1.1.7,1.8.7s2-.2,3.1-.7c2.1-1.1,3-2.1,3.1-2.2.2-.1.5-.2.5-.2.1,0,.1.3.1.4,0,0,0,.4,0,.7,0,.2,0,.3,0,.5,0,.3-.2.6-.7,1.1s-2.5,1.8-4.1,2.5c-1.5.7-2.8.6-3.9.6-2.4,0-4.7-1.4-5.2-3.7-.3-1.3,0-3.1.2-4.1s.5-2.1,1.1-3.6c.2-.7.5-1.2.7-1.7h0ZM79.9,9.1c-.3,0-.8.9-1.4,2.7-.5,1.6-.8,2.7-.8,3.2s0,.2,0,.2.8.3,1.1.3c.5,0,1.1-.5,1.6-1.4s.8-1.9.8-2.9,0-.9-.3-1.4c-.4-.6-1-.6-1-.6h0Z"/>
  <path class="st0" d="M87.3,17.7c-.3.3-1.2,1.1-1.2,1.1-.7.4-.7-.7-.7-.7,0-.2.5-1.3,1.1-1.9.7-.7,2.1-1.9,3.1-4.5.8-2.1,0-1.9.6-3.1.9-1.7,3.8-1.7,4.6-1.7s6.3.7,5.1,4.6c-.2.8-1.4,1.5-2.5.3-.8-.9.4-1,.1-1.6s-1.6-.9-2.1-.5c-.3.3-.4.5-.3.9.5,1.5,2.2,3.5,2.5,4.1.9,1.7.8,5.4-3.9,6.7-3.7,1-6.1-.9-6.4-2-.1-.6-.1-1.4,0-1.7h0ZM88,16.8c.6-.4.8-.4,1.2-.5s.8-.2,1,0,.3.4.2.9-.4.7-.4,1.2c0,.2,0,1.6,1.9,1.4,2-.2,2.1-2.3,1.7-3.1-.4-.9-.7-1.3-1.6-2.7-1.1-1.8-1.3-2.8-1.3-3-.2,1.6-1.5,4.4-2.6,5.8Z"/>
</svg>