<?xml version="1.0" encoding="UTF-8"?><svg id="a" xmlns="http://www.w3.org/2000/svg" viewBox="0 0 200 100"><defs><style>.b{fill:#fff;}.c{fill:#ed1c24;}</style></defs><rect class="c" width="200" height="100"/><path class="b" d="M41.14,64.45c-.19.3-.31.49-.35.59-.42.75-1.02,1.13-1.8,1.13-.26,0-3.83-.8-4.3-1.08-1.27-.75-1.23-2.48-1.23-3.12,0-.28.08-2.04.25-5.28.09-3,.95-13.16.95-13.16l.35-1.85c0-.2-.1-.42-.3-.65-.2-.23-.39-.34-.58-.34-.12,0-3.74,1.34-4.18,1.58-.43.24-.89.62-1.36,1.14-.21.22-.38.33-.49.33-.19,0-.55-.22-1.09-.66-.54-.45-.81-.88-.81-1.29,0-.08.02-.31.07-.7.02-.19.04-.41.04-.66,0-.2-.03-.33-.09-.38-.06-.05-.25-.11-.58-.19-.42-.11-.63-.33-.63-.66,0-.25.35-.5,1.06-.75.33-.11,1-.37,2.01-.77,6.44-2.56,12.36-3.85,17.76-3.85,6.18,0,10.78,1.59,13.82,4.76,2.61,2.7,3.91,5.78,3.91,9.22,0,2.67-.94,5.61-2.82,8.82-1.01,1.72-1.96,3.03-2.85,3.94-.89.91-2.96,2.81-6.03,3.82-7.58,2.5-9.5.62-10.71.05ZM40.93,39.24l1.32.64s1.24.5,1.21,1.04-1.07,1.36-1.23,1.88c-.16.52-.28,1.35-.35,2.49-.21,3.6-.35,5.87-.42,6.82-.19,2.64-.21,8.95-.21,9.31.79.36,1.57.77,2.04.77.96,0,2.28-.48,3.95-1.44,1.67-.96,6.13-3.57,7.88-10.75,1.67-6.84-1.64-9.92-2.14-10.34-1.52-1.29-4.07-1.56-5-1.55-4.32.07-7.05,1.13-7.05,1.13Z"/><path class="b" d="M79.03,61c-1.69,2-3.65,4.81-7.4,4.95-4.52.17-5.5-4.82-5.5-5.72,0-2.3,1.16-13.23,1.16-13.23,0-.27.26-.57.78-.9.52-.34.97-.5,1.37-.5.09,0,.29.03.6.09.26.03.48.05.67.05.54,0,1.25-.56,1.73-.54,1.07.05,2.65,1.48,2.8,1.62.15.14.23.29.23.45,0,.25-1.61,5.85-2.22,8.44-.24,1.08-.35,2.17-.35,3.26s.26,2.92,1.38,3.05c1.33.15,2.84-2.12,3.76-6.05.45-1.9.94-4.84,1.02-6.1s-.6-1.69-.6-1.83c0-.28.12-.54.35-.77.33-.36.6-.53.81-.52,0,0,2.01.11,2.43.19.63.13,1.1.19,1.41.19.05,0,.48-.03,1.3-.09.16-.02.3-.02.42-.02.35,0,1.04,1.09,1,2.07-.04.99-1.6,5.56-1.85,9.35-.04.56.27,1.15.81,1.77.54.62,1.06.93,1.55.93.96,0,2.2-1,3.7-3,.23-.31.4-.47.49-.47.23,0,.38.18.42.54,0,.02-.01.86-.04,2.53,0,.2-.34.54-1.02,1.01-.4.31-.92.63-1.55.94-.28.14-.52.27-.71.4-.66.44-1,.66-1.04.68s-.49.17-1.36.47c-.71.23-1.2.35-1.48.35-1.2,0-2.2-.28-3.01-.83-.81-.55-1.51-1.47-2.1-2.73Z"/><path class="b" d="M104.37,60.72c-.68.86-5.19,5.72-9.18,4.07-3.64-1.51-3.9-3.84-4.14-6.11-.24-2.28.9-8.88,1.3-11.74.4-3.35,1.3-8.79,1.16-9.22-.26-.39-.39-1.65.09-2.15.48-.49,3.03-.99,3.56-1.07.53-.08.93-.12,1.22-.12.96,0,3.08.75,3.45,1.6.37.85-.69,2.92-1.77,6.45-1.09,3.53-2.46,8.27-2.31,14.55.03,1.53.22,2.43.32,2.71.31,1.06.93,1.59,1.87,1.59.66,0,1.8-1.01,2.61-3.59.81-2.57-.67-6.71-1.23-7.32-.47-.63-.75-.98-.85-1.08-.24-.19-.02-.66.63-1.22.42-.36,2.38-1.28,3.63-1.29s1.95.32,2.83,1.17c.98.95,1.15,3.99.43,6.33-.65,2.13-1.79,4.3-1.79,4.39,0,.17,1.1,1.28,3.1,1.1.92-.08,1.74-.8,3.52-2.39.14-.13.82-.72.82-.46,0,.23.25,2.17.27,2.4.02.16-.49.58-.66.74-.41.38-.6.61-1.77,1.25-1.15.61-2.22.91-3.21.91-.54,0-1-.08-1.39-.23-.39-.16-1.23-.59-2.52-1.29Z"/><path class="b" d="M116.45,46.39c1.49-.84,3.64-2.1,7.42-1.73,3.78.37,6.16,2.41,6.7,3.25.81,1.25.97,2.64.97,3.34,0,.86-.65,2.96-1.26,3.75-2.66,3.48-6.83,3.55-7.79,3.44-.28-.03-1.49-.16-1.7-.16-.4,0-.6.18-.6.54,0,.92.39,1.72,1.16,2.38.77.66,1.69,1,2.75,1,1.43,0,3.05-.26,4.69-1.1,3.17-1.64,4.59-3.51,4.83-3.68.23-.17,1.18-1.27,1.28-1.27.21,0,.06,1.08.04,1.26,0,.08.05.78.1,1.11.02.27.07.54.07.76,0,.44-1.06,1.43-1.81,2.07-.75.64-3.69,2.64-6.23,3.78-2.2.99-4.18.97-5.84.95-3.63-.06-7.06-2.15-7.79-5.52-.44-2.01.01-4.73.28-6.13s.8-3.22,1.6-5.45c.35-1,.73-1.86,1.13-2.58ZM123.68,47.12c-.49,0-1.21,1.33-2.15,3.99-.82,2.39-1.23,3.99-1.23,4.78,0,.17.03.27.09.31.06.03,1.14.45,1.67.4.82-.08,1.63-.7,2.41-2.11.79-1.41,1.18-2.85,1.18-4.32,0-.69-.14-1.38-.42-2.09-.56-.96-1.55-.96-1.55-.96Z"/><path class="b" d="M137.66,46.39c1.49-.84,3.64-2.1,7.42-1.73,3.78.37,6.16,2.41,6.7,3.25.81,1.25.97,2.64.97,3.34,0,.86-.65,2.96-1.26,3.75-2.66,3.48-6.83,3.55-7.79,3.44-.28-.03-1.49-.16-1.7-.16-.4,0-.6.18-.6.54,0,.92.39,1.72,1.16,2.38.77.66,1.69,1,2.75,1,1.43,0,3.05-.26,4.69-1.1,3.17-1.64,4.46-3.19,4.69-3.36.23-.17.69-.29.79-.29.21,0,.18.39.16.58,0,.08-.08.66-.04.99.02.27.04.51.04.73,0,.44-.38.98-1.13,1.62-.75.64-3.69,2.64-6.23,3.78-2.2.99-4.18.97-5.84.95-3.63-.06-7.06-2.15-7.79-5.52-.44-2.01.01-4.73.28-6.13s.8-3.22,1.6-5.45c.35-1,.73-1.86,1.13-2.58ZM144.88,47.12c-.49,0-1.21,1.33-2.15,3.99-.82,2.39-1.23,3.99-1.23,4.78,0,.17.03.27.09.31.06.03,1.14.45,1.67.4.82-.08,1.63-.7,2.41-2.11.79-1.41,1.18-2.85,1.18-4.32,0-.69-.14-1.38-.42-2.09-.56-.96-1.55-.96-1.55-.96Z"/><path class="b" d="M155.96,59.99c-.44.52-1.79,1.62-1.79,1.62-1.03.64-1.11-1.05-1.11-1.05-.02-.31.72-1.98,1.63-2.82,1.12-1.12,3.11-2.92,4.62-6.77,1.26-3.19-.1-2.78.87-4.6,1.38-2.59,5.67-2.61,6.91-2.6,1.4.01,9.42,1.04,7.66,6.9-.36,1.18-2.11,2.29-3.71.47-1.15-1.3.62-1.45.19-2.36s-2.38-1.35-3.12-.74c-.53.44-.63.68-.41,1.32.77,2.27,3.3,5.3,3.76,6.2,1.34,2.59,1.22,8.14-5.93,10.02-5.53,1.46-9.22-1.35-9.62-3.04-.22-.93-.16-2.11.05-2.56ZM156.97,58.63c.86-.63,1.21-.59,1.79-.73.58-.14,1.21-.32,1.53-.07s.53.64.25,1.36-.63,1.05-.67,1.76c-.02.34.06,2.41,2.78,2.09,3.05-.36,3.17-3.42,2.62-4.59-.62-1.32-1.11-1.99-2.35-3.99-1.67-2.69-1.9-4.18-1.97-4.47-.35,2.36-2.23,6.62-3.98,8.65Z"/></svg>