<?xml version="1.0" encoding="UTF-8"?><svg id="a" xmlns="http://www.w3.org/2000/svg" viewBox="0 0 100 60.99"><defs><style>.c,.d,.e,.f,.g{fill-rule:evenodd;}.c,.e,.h{fill:#fefefe;}.d{fill:#e31e24;}.e{stroke:#b0cb1f;stroke-miterlimit:10;stroke-width:.24px;}.f{fill:#b0cb1f;}.g{fill:#79257f;}</style></defs><g id="b"><path class="g" d="M10.69,17.04h71.02v43.95H10.69c-5.88,0-10.69-4.72-10.69-10.49v-22.96c0-5.77,4.81-10.49,10.69-10.49Z"/><path class="d" d="M81.7,17.04v43.95h7.61c5.88,0,10.69-4.72,10.69-10.49v-22.96c0-5.77-4.81-10.49-10.69-10.49h-7.61Z"/><path class="c" d="M76.59,21.87s-1.43.02-2.69-.4l.02.06s-.23-.11-.61-.3h0s0,0,0,0c-1.03-.5-3.15-1.55-4.86-2.52-2.35-1.33-5.66-4.22-6.65-8.98s.69-7.99.69-7.99c0,0,.46,1.15,1.7,2.53s2.88,2.76,6.13,4.4c3.26,1.64,5.04,4.04,5.04,4.04,0,0,.34-1.65,3.67-3.84s8.28-1.84,12.39-3.88c4.11-2.04,5.06-4.02,5.06-4.02,0,0,.31,1.95.26,5.05-.05,3.1-1.69,8.38-7.03,11.65-5.34,3.27-13.11,4.2-13.11,4.2h0Z"/><path class="c" d="M84.42,17.29l-7.64,3.61s-1.94.03-3.29-.64-6.44-7.27-6.69-7.9c-.25-.63-.95-2.83-.66-3.05s-1.58-.95.57-.33c2.14.63,4.78.66,6.15,2.07,1.36,1.41,4.01,3.07,4.01,3.07,0,0,7.23-6.06,7.51-6.09.28-.03,4.63.53,4.77,1.08.13.55.28,2.68.1,3.37s.19,1.17-.5,1.57c-.69.4-4.32,3.24-4.32,3.24h0Z"/><path class="f" d="M62.66.77s-1.67,3.23-.69,7.99c.99,4.76,4.3,7.65,6.65,8.98,2.35,1.33,5.48,2.81,5.48,2.81,0,0-1.38-3.7-3.07-5.93-1.68-2.24-3.23-3.84-3.23-3.84,0,0,1.91.42,4.7,3.63,2.79,3.21,2.7,6.27,2.7,6.27,0,0,1.58-3.96,5.65-6.75s6.71-3.02,6.71-3.02c0,0-5.48,3.81-7.96,6.5s-2.83,3.49-2.83,3.49c0,0,7.77-.93,13.11-4.2s6.98-8.55,7.03-11.65c.05-3.1-.26-5.05-.26-5.05,0,0-.95,1.98-5.06,4.02-4.11,2.04-9.06,1.69-12.39,3.88-3.33,2.19-3.67,3.84-3.67,3.84,0,0-1.78-2.41-5.04-4.04-3.26-1.64-4.89-3.02-6.13-4.4-1.24-1.38-1.7-2.53-1.7-2.53h0Z"/><path class="c" d="M75.22,21.41s-1.47,4.09-3.57,7.1c-2.1,3.01-3.35,5.56-2.56,9.43.79,3.87,5.73,4.61,8.27,3.2,2.54-1.41,2.91-3.49,3.16-4.87.25-1.38-.32-4.74-1.71-7.16-1.4-2.42-3-6.1-3.23-6.73-.23-.63-.36-.96-.36-.96h0ZM75.15,23.42s-1.15,3.2-2.8,5.56c-1.64,2.36-2.62,4.36-2.01,7.39.62,3.03,4.49,3.61,6.48,2.51,1.99-1.1,2.28-2.73,2.48-3.82.2-1.08-.25-3.71-1.34-5.61-1.1-1.9-2.35-4.78-2.53-5.28-.18-.49-.28-.76-.28-.76h0Z"/><path class="c" d="M76.96,29.81s.69,1.54.74,4.14c.05,2.6-.51,3.78-.51,3.78,0,0,.93-1.43.98-3.6.05-2.17-1.2-4.31-1.2-4.31h0Z"/><path class="h" d="M35.71,53.65l-.03.49c-.08-.03-.17-.05-.28-.07-.11-.02-.21-.03-.32-.04-.11-.01-.22-.02-.33-.02-.11,0-.2,0-.29,0h-.06l.14,3.28h-.72l.08-3.26c-.12,0-.23.02-.35.04-.12.02-.24.04-.35.07-.11.03-.21.06-.31.09s-.17.08-.24.12l-.04-.68,3.1-.02h0ZM36.68,53.6l-.08,1.73c.04-.08.09-.15.14-.22.05-.07.11-.12.18-.17.07-.05.14-.09.22-.11s.17-.04.26-.04c.1,0,.19.02.28.06.08.04.15.1.21.16.06.07.11.15.15.24.04.09.07.18.1.28.03.1.04.19.05.29.01.1.02.19.02.28,0,.1,0,.2-.02.31-.01.11-.03.22-.05.33-.02.11-.04.21-.07.32-.03.1-.06.2-.1.29l-.58-.06c.04-.08.08-.19.12-.3.03-.12.06-.24.08-.37.02-.13.04-.26.05-.38.01-.13.02-.24.02-.34,0-.08,0-.17-.02-.26-.01-.09-.04-.18-.08-.26-.04-.08-.09-.14-.15-.19-.06-.05-.14-.08-.24-.08-.06,0-.11.01-.16.04-.05.02-.09.06-.13.09-.04.04-.08.08-.11.13-.03.05-.06.1-.08.15-.06.12-.1.26-.13.42l-.05,1.22-.44.04-.09-3.54.69-.05h0ZM39.87,56.57c-.12,0-.25-.02-.37-.05-.12-.03-.23-.09-.33-.16,0,.07,0,.13.01.2,0,.07.02.14.03.2.02.06.03.13.06.18.02.06.06.11.09.15.04.04.08.08.14.1.05.03.12.04.19.04.07,0,.14-.01.2-.04.06-.03.11-.07.16-.11.05-.05.08-.1.11-.17.03-.06.05-.13.06-.21l.58.14c-.05.1-.11.19-.19.26-.08.07-.17.13-.27.17-.1.04-.2.08-.31.1-.11.02-.21.03-.31.03-.18,0-.34-.03-.48-.08-.14-.06-.26-.14-.35-.25-.1-.11-.17-.24-.22-.39-.05-.15-.08-.33-.08-.52s.03-.36.09-.53c.06-.16.14-.31.25-.43.11-.12.23-.22.38-.29.15-.07.31-.11.49-.11.13,0,.26.02.39.05.13.03.25.09.35.16s.19.17.25.28c.06.11.1.25.1.41s-.03.29-.09.4c-.06.11-.14.2-.23.26-.1.07-.2.12-.33.15-.12.03-.25.05-.37.05h0ZM39.77,55c-.07,0-.13.02-.19.05-.06.03-.1.07-.15.13-.04.05-.08.12-.11.18s-.06.14-.08.22c-.02.08-.04.15-.05.23-.01.08-.02.15-.02.22.06.11.14.2.24.27.1.07.21.1.34.1.08,0,.16-.02.22-.06.07-.04.12-.09.17-.16.05-.07.08-.14.1-.22.02-.08.04-.16.04-.24s-.01-.16-.03-.25c-.02-.08-.05-.16-.1-.23-.04-.07-.1-.12-.16-.17s-.14-.07-.23-.07h0ZM44.42,53.54c.21,0,.4.04.56.12.16.08.3.19.42.32.12.13.21.29.29.47.08.18.14.36.19.56.05.19.08.39.1.59.02.2.03.39.03.56,0,.16,0,.31-.03.45-.02.14-.04.27-.06.38-.03.13-.06.25-.09.37l-.71-.14c.05-.12.09-.25.13-.4.04-.15.08-.3.11-.45-.19-.02-.38-.03-.56-.04-.19,0-.37,0-.56,0-.14,0-.29,0-.44,0-.14,0-.29,0-.44.02.03.14.07.28.11.43.04.14.09.29.15.44l-.74.15c-.03-.08-.07-.17-.09-.27-.02-.09-.04-.19-.06-.32-.02-.13-.03-.27-.03-.42,0-.21,0-.42.02-.64.02-.22.05-.43.09-.64.04-.21.11-.41.19-.59.08-.19.19-.35.31-.49.13-.14.28-.25.47-.33.18-.08.4-.12.65-.12h0ZM43.25,55.33c0,.14,0,.27.01.4,0,.13.02.26.05.38.16,0,.31.02.47.02.16,0,.31,0,.47,0,.19,0,.38,0,.57,0,.19,0,.38-.01.58-.03.03-.19.04-.36.04-.53,0-.12,0-.25-.02-.38-.02-.13-.04-.27-.08-.4-.04-.13-.08-.26-.14-.38-.06-.12-.13-.23-.21-.32-.08-.09-.18-.16-.29-.22-.11-.05-.23-.08-.37-.08-.13,0-.24.02-.34.07-.1.04-.19.1-.27.18-.08.08-.15.16-.21.26-.06.1-.11.21-.14.32-.04.11-.07.23-.08.35-.02.12-.03.24-.03.35h0ZM47.05,55.34c.04-.06.08-.12.14-.18.05-.06.11-.11.17-.15.06-.04.14-.08.21-.1.08-.03.16-.04.25-.04.12,0,.21.03.29.08.08.05.14.12.19.21.1-.1.21-.18.33-.24.12-.06.25-.09.38-.09.1,0,.18.02.25.05.07.04.14.08.19.15.06.06.1.13.14.21s.07.16.09.25c.02.09.04.18.05.27.01.09.02.18.02.26,0,.09,0,.2-.02.33-.01.12-.03.25-.05.38-.02.13-.05.25-.08.37-.03.12-.06.21-.1.29l-.64-.06c.06-.12.11-.26.16-.4.04-.12.08-.26.11-.42s.05-.33.05-.5c0-.11,0-.21-.02-.31-.01-.1-.04-.18-.07-.25s-.08-.13-.14-.17c-.06-.04-.13-.06-.23-.06-.07,0-.13.01-.19.04-.06.03-.12.07-.17.11.02.08.04.16.05.25,0,.09.02.17.02.26s0,.19-.01.32c0,.12-.02.25-.03.38-.01.13-.03.25-.04.37-.02.12-.03.21-.05.28l-.64-.05c.04-.12.08-.26.11-.4.03-.12.05-.27.08-.43.02-.16.04-.34.04-.53,0-.06,0-.12-.02-.19-.01-.07-.04-.13-.07-.19-.03-.06-.07-.11-.12-.14-.05-.04-.11-.06-.18-.06-.05,0-.09.01-.13.04-.04.03-.08.06-.12.11-.04.05-.08.1-.11.16-.04.06-.07.12-.1.19l.06,1.54-.62.07.12-2.4.42.03v.38s.01,0,.01,0ZM51.78,57.25l.06-.26c-.05.05-.12.1-.18.14-.07.04-.13.08-.2.11-.07.03-.14.05-.21.07-.07.02-.13.02-.19.02-.1,0-.21-.02-.31-.05-.11-.03-.21-.08-.29-.14-.09-.06-.16-.14-.22-.24-.06-.1-.08-.21-.08-.33,0-.16.03-.31.08-.43.05-.12.12-.22.22-.3.09-.08.2-.14.32-.17.12-.04.26-.06.4-.06.07,0,.14,0,.21.02.07.01.14.03.21.05.07.02.13.05.19.09.06.04.12.08.16.14,0-.09-.02-.19-.03-.29-.02-.1-.05-.19-.08-.27-.04-.08-.09-.15-.15-.21-.06-.05-.15-.08-.24-.08-.14,0-.27.04-.36.12-.1.08-.17.19-.2.35l-.61-.07c.04-.1.09-.2.16-.28.07-.08.15-.15.23-.2.09-.05.18-.09.28-.12.1-.03.2-.04.3-.04.15,0,.29.02.41.07.12.05.23.11.32.19.09.08.17.18.23.29.06.11.12.23.16.36.04.13.07.26.09.4.02.14.03.28.03.42,0,.12,0,.25-.02.37-.01.12-.03.24-.05.36l-.59-.03h0ZM51.9,56.53s0-.08.01-.11c0-.04,0-.07,0-.11,0-.08-.03-.15-.08-.21-.04-.06-.1-.11-.16-.16-.06-.04-.13-.08-.2-.1-.07-.02-.15-.03-.22-.03-.08,0-.16.01-.23.04-.07.03-.13.07-.18.12-.05.05-.09.12-.12.19-.03.07-.04.15-.04.24s.01.17.04.25c.03.08.06.14.11.19.05.05.1.1.17.13.07.03.14.05.23.05.08,0,.15-.01.22-.04.07-.02.14-.06.2-.1s.11-.09.15-.16c.04-.06.07-.13.09-.2h0ZM54.79,56.62l-.07.71-1.92-.08,1.23-2.14h-.06c-.09,0-.19.02-.29.05-.1.03-.19.07-.28.12-.09.05-.18.11-.27.17-.09.06-.17.13-.24.19l-.09-.69,2.01-.02-1.42,2.13c.11,0,.23-.01.35-.03.13-.02.25-.04.38-.08.13-.03.25-.08.36-.13.12-.05.22-.12.31-.2h0ZM55.98,54.31c0,.06-.01.12-.03.17-.02.05-.05.1-.09.14s-.08.07-.13.1c-.05.02-.1.04-.16.04s-.11-.01-.16-.04c-.05-.02-.1-.06-.13-.1-.04-.04-.07-.09-.09-.14-.02-.05-.03-.11-.03-.17s.01-.12.03-.18c.02-.05.05-.1.09-.14.04-.04.08-.07.13-.1.05-.02.1-.04.16-.04s.11.01.16.04c.05.02.09.06.13.1s.07.09.09.14c.02.05.03.11.03.18ZM55.9,55l-.18,2.42-.45-.05-.03-2.41.66.04h0ZM57.03,54.87l-.02.46c.04-.08.09-.16.15-.23.06-.07.12-.13.19-.18.07-.05.15-.09.23-.11.08-.02.17-.03.27-.01.15.02.27.07.38.15.1.07.19.17.25.28.06.11.11.25.14.4.03.15.04.32.04.49,0,.1,0,.2-.02.31-.02.11-.04.22-.06.33s-.06.21-.09.32c-.03.1-.07.2-.1.29l-.58-.06s.01-.02.03-.06c.02-.04.04-.09.06-.16.02-.07.05-.14.07-.23.03-.09.05-.18.07-.29.02-.1.04-.21.06-.32.01-.11.02-.23.02-.34,0-.13-.01-.24-.03-.33-.02-.1-.05-.18-.09-.25-.04-.07-.1-.12-.17-.15-.07-.04-.15-.05-.24-.05-.08,0-.16.02-.22.07-.06.05-.12.11-.17.18-.05.08-.09.16-.12.26-.03.09-.06.19-.09.29l-.06,1.36-.43.04-.09-2.38.64-.06h0ZM60.32,57.1c.12,0,.22-.02.3-.07.08-.05.15-.11.21-.19.05-.08.09-.17.11-.27.02-.1.03-.21.03-.32l-.03-.57c0-.07-.02-.14-.05-.21-.04-.07-.08-.13-.14-.18-.06-.05-.12-.1-.19-.13-.07-.03-.14-.05-.21-.05-.13,0-.23.03-.33.08-.09.06-.17.13-.23.22-.06.09-.11.19-.14.31-.03.12-.05.23-.05.35s.01.23.04.36c.03.12.07.23.13.33.06.1.13.18.22.25.09.06.2.1.33.1h0ZM60.08,58.55c-.14,0-.25-.03-.35-.08-.09-.06-.17-.13-.24-.22-.06-.09-.11-.2-.15-.32-.04-.12-.06-.24-.08-.37l.64-.05s-.01.09-.02.14c0,.05,0,.09,0,.14,0,.07,0,.13.02.2.01.07.03.13.06.19.03.06.07.1.12.14.05.04.11.05.18.05.08,0,.15-.02.21-.07.06-.05.11-.1.15-.18.04-.07.08-.16.11-.25.03-.1.05-.19.07-.29.02-.1.03-.2.04-.3,0-.1.02-.19.02-.27-.1.11-.21.2-.34.26-.13.06-.28.09-.44.09s-.31-.04-.44-.1-.25-.16-.34-.28c-.1-.12-.17-.25-.22-.4-.05-.15-.08-.31-.08-.48s.03-.32.08-.47c.05-.15.12-.28.22-.4.09-.12.21-.21.34-.28.13-.07.27-.1.43-.1.06,0,.12,0,.19.01.06.01.13.03.19.05.06.02.12.05.18.08s.11.07.16.11l-.02-.24.59-.06c.02.21.03.42.04.63s.01.42.01.63c0,.12,0,.25,0,.39,0,.14-.01.27-.02.41-.01.14-.03.28-.06.42-.02.14-.06.27-.1.39-.04.12-.1.24-.16.35s-.14.2-.24.28c-.09.08-.2.14-.32.18-.12.04-.26.07-.42.07h0ZM66.23,53.65l-.03.49c-.08-.03-.17-.05-.28-.07-.11-.02-.21-.03-.32-.04-.11-.01-.22-.02-.33-.02s-.2,0-.29,0h-.06l.14,3.28h-.72l.08-3.26c-.12,0-.23.02-.35.04-.12.02-.24.04-.35.07-.11.03-.21.06-.31.09-.1.04-.17.08-.24.12l-.04-.68,3.1-.02h0ZM68.06,57.25l.06-.26c-.05.05-.12.1-.18.14-.07.04-.13.08-.2.11-.07.03-.14.05-.21.07-.07.02-.13.02-.19.02-.1,0-.21-.02-.31-.05-.11-.03-.21-.08-.29-.14-.09-.06-.16-.14-.22-.24-.06-.1-.08-.21-.08-.33,0-.16.03-.31.08-.43.05-.12.12-.22.22-.3.09-.08.2-.14.32-.17.12-.04.26-.06.4-.06.07,0,.14,0,.21.02.07.01.14.03.21.05s.13.05.19.09c.06.04.12.08.16.14,0-.09-.02-.19-.03-.29-.02-.1-.05-.19-.08-.27-.04-.08-.09-.15-.15-.21-.06-.05-.15-.08-.24-.08-.14,0-.27.04-.36.12-.1.08-.17.19-.2.35l-.61-.07c.04-.1.09-.2.16-.28.07-.08.15-.15.23-.2.09-.05.18-.09.28-.12.1-.03.2-.04.3-.04.15,0,.29.02.41.07.12.05.23.11.32.19.09.08.17.18.23.29.06.11.12.23.16.36.04.13.07.26.09.4.02.14.03.28.03.42,0,.12,0,.25-.02.37-.01.12-.03.24-.05.36l-.59-.03h0ZM68.18,56.54s0-.08.01-.11c0-.04,0-.07,0-.11,0-.08-.03-.15-.08-.21-.04-.06-.1-.11-.16-.16-.06-.04-.13-.08-.2-.1-.07-.02-.15-.03-.22-.03-.08,0-.16.01-.23.04-.07.03-.13.07-.18.12-.05.05-.09.12-.12.19-.03.07-.04.15-.04.24s.01.17.04.25c.03.08.06.14.11.19.05.05.1.1.17.13.07.03.14.05.23.05.08,0,.15-.01.22-.04.07-.02.14-.06.2-.1s.11-.09.15-.16c.04-.06.07-.13.09-.2h0ZM70.27,57.36c-.13,0-.27-.02-.4-.06-.13-.04-.26-.09-.37-.17-.11-.08-.2-.17-.28-.29-.08-.12-.12-.26-.14-.41l.66.02s0,.02,0,.03v.03c0,.1.01.19.04.27s.07.15.12.2c.05.05.11.1.18.12.07.03.15.04.24.04.05,0,.1,0,.16-.02.05-.01.1-.03.14-.06.04-.03.07-.06.1-.11.03-.05.04-.1.04-.17,0-.08-.02-.14-.07-.2-.04-.05-.1-.1-.16-.14-.06-.04-.13-.07-.2-.09-.07-.02-.13-.04-.19-.06-.05-.01-.12-.03-.19-.05-.07-.02-.14-.04-.22-.07-.07-.03-.15-.06-.22-.09s-.14-.08-.19-.13c-.06-.05-.1-.1-.14-.17-.03-.06-.05-.14-.05-.22,0-.09.02-.18.05-.25.03-.08.08-.14.13-.2.06-.06.12-.11.19-.15.07-.04.15-.08.23-.11.08-.03.16-.05.24-.06.08-.01.15-.02.22-.02.12,0,.24.01.36.04.12.03.23.08.33.14.1.07.18.15.25.25s.11.23.12.38l-.64.05v-.03c0-.1,0-.19-.03-.27-.02-.08-.06-.15-.1-.21-.05-.06-.1-.1-.17-.13-.07-.03-.15-.05-.24-.05-.04,0-.09,0-.14.02-.05.01-.1.03-.14.06-.04.03-.08.06-.11.1-.03.04-.04.09-.04.15,0,.09.03.16.08.21.05.05.11.09.19.13.07.03.15.05.23.07.08.02.15.03.21.05.06.02.13.03.2.06.07.02.14.05.22.08.07.03.14.07.2.12.06.04.12.1.17.15.05.06.09.12.12.2.03.07.04.15.04.25,0,.14-.03.25-.1.35-.07.1-.15.17-.25.23-.1.06-.21.1-.33.13-.12.03-.23.04-.34.04h0ZM72.54,53.77l-.03,1.03h.56v.21h-.56l-.06,2.28-.43.04-.04-2.32h-.58v-.21h.57v-.87s.58-.16.58-.16h0ZM74.48,56.57c-.12,0-.25-.02-.37-.05-.12-.03-.23-.09-.33-.16,0,.07,0,.13.01.2,0,.07.02.14.03.2.02.06.03.13.06.18.02.06.06.11.09.15.04.04.08.08.14.1.05.03.12.04.19.04.07,0,.14-.01.2-.04.06-.03.11-.07.16-.11.05-.05.08-.1.11-.17.03-.06.05-.13.06-.21l.58.14c-.05.1-.11.19-.19.26-.08.07-.17.13-.27.17-.1.04-.2.08-.31.1-.11.02-.21.03-.31.03-.18,0-.34-.03-.48-.08-.14-.06-.26-.14-.35-.25-.1-.11-.17-.24-.22-.39-.05-.15-.08-.33-.08-.52s.03-.36.09-.53c.06-.16.14-.31.25-.43.11-.12.23-.22.38-.29.15-.07.31-.11.49-.11.13,0,.26.02.39.05.13.03.25.09.35.16.1.07.19.17.25.28.06.11.1.25.1.41s-.03.29-.09.4c-.06.11-.14.2-.23.26-.1.07-.2.12-.33.15-.12.03-.25.05-.37.05h0ZM74.37,55c-.07,0-.13.02-.19.05-.05.03-.1.07-.15.13-.04.05-.08.12-.11.18s-.06.14-.08.22c-.02.08-.04.15-.05.23-.01.08-.02.15-.02.22.06.11.14.2.24.27.1.07.21.1.34.1.08,0,.16-.02.22-.06s.12-.09.17-.16c.05-.07.08-.14.1-.22.02-.08.04-.16.04-.24s-.01-.16-.03-.25c-.02-.08-.05-.16-.1-.23-.04-.07-.1-.12-.16-.17s-.14-.07-.23-.07h0Z"/><path class="h" d="M76.66,57.04c0,.06-.01.11-.03.16-.02.05-.05.09-.08.13s-.08.07-.12.09c-.05.02-.1.03-.15.03s-.1-.01-.15-.03c-.05-.02-.09-.05-.12-.09-.03-.04-.06-.08-.08-.13-.02-.05-.03-.1-.03-.16s.01-.11.03-.16c.02-.05.05-.09.08-.13.03-.04.08-.07.12-.09.05-.02.1-.03.15-.03s.1.01.15.03c.05.02.09.05.12.09.04.04.06.08.08.13.02.05.03.1.03.16ZM77.9,57.04c0,.06-.01.11-.03.16-.02.05-.05.09-.08.13s-.08.07-.12.09c-.05.02-.1.03-.15.03s-.1-.01-.15-.03c-.05-.02-.09-.05-.12-.09-.03-.04-.06-.08-.08-.13-.02-.05-.03-.1-.03-.16s.01-.11.03-.16c.02-.05.05-.09.08-.13.03-.04.08-.07.12-.09.05-.02.1-.03.15-.03s.1.01.15.03c.05.02.09.05.12.09.04.04.06.08.08.13.02.05.03.1.03.16ZM79.14,57.04c0,.06-.01.11-.03.16-.02.05-.05.09-.08.13s-.08.07-.12.09c-.05.02-.1.03-.15.03s-.1-.01-.15-.03c-.05-.02-.09-.05-.12-.09-.03-.04-.06-.08-.08-.13-.02-.05-.03-.1-.03-.16s.01-.11.03-.16c.02-.05.05-.09.08-.13.03-.04.08-.07.12-.09.05-.02.1-.03.15-.03s.1.01.15.03c.05.02.09.05.12.09.04.04.06.08.08.13.02.05.03.1.03.16Z"/><path class="e" d="M61.04,27.38s-7.63,4.87-9.68,10.97-.7,9.65,1.98,9.78,6.15-4.37,6.15-4.37v3.46l3.92-.87s-.26-6.35,1.36-10.56,3.3-6.52,3.3-6.52l-3-2.72s-1.05.93-2.15,3.07h0l-1.88-2.24h0ZM62.42,30.67c-.12.29-.25.59-.37.92-1.32,3.55-2.12,8.08-5.05,10.64-2.93,2.56-3.22.16-2.71-2.23s4.03-5.92,5.5-7.4c.83-.85,1.88-1.51,2.63-1.93h0Z"/><path class="e" d="M11.34,22.57s-4.69,10.89-6.15,20.62c-1.47,9.73-1.25,10.23-1.25,10.23h4.03s.51-5.61,2.56-8.83c2.05-3.22,2.78-3.3,2.78-3.3,0,0-.51,2.89-.88,6.43s-.22,4.87-.22,4.87h3.81s.07-5.86.59-8.83c.51-2.97,3-9.49,3-9.49l-3-1.98-5.79,5.61s1.54-7.26,3-10.97c1.46-3.71,1.69-4.21,1.69-4.21l-4.18-.16h0Z"/><path class="e" d="M40.06,29.42s-2.64,5.94-4.03,12.79c-1.39,6.85-1.03,7.75-1.03,7.75l4.47-.33s.15-3.63,1.9-7.67c1.76-4.04,4.03-5.28,4.03-5.28,0,0-1.17,3.96-1.98,7.75s-.51,4.7-.51,4.7l4.69-.41s.15-6.02,1.32-10.31c1.17-4.29,4.03-7.75,4.03-7.75l-2.86-2.06-6.81,5.86.79-4.86-3.96-.4-.05.22h0Z"/><path class="e" d="M29.67,31.15s-7.63,4.87-9.68,10.97c-2.05,6.1-.7,9.65,1.98,9.78,2.67.12,6.15-4.37,6.15-4.37v3.46l3.92-.87s-.26-6.35,1.36-10.56c1.61-4.21,3.3-6.52,3.3-6.52l-3-2.72s-1.05.93-2.15,3.07h0l-1.88-2.24h0ZM31.05,34.44c-.12.29-.25.59-.37.92-1.32,3.55-2.12,8.08-5.05,10.64-2.93,2.56-3.22.16-2.71-2.23s4.03-5.92,5.5-7.4c.83-.85,1.88-1.51,2.63-1.93h0Z"/><path class="h" d="M88.35,54.63h5.01v1.3h-2.1v.38h2.1v1.3h-5.01v-1.3h1.79v-.38h-1.79v-1.3ZM88.35,54.1v-2.17h1v.87h.96v-.81h.95v.81h1.1v-.96h1v2.26h-5.01ZM88.35,49.22l5.01-.74v1.33l-.9.07v.47l.9.07v1.35l-5.01-.66v-1.88h0ZM91.57,49.91c-.57.06-1.27.13-2.11.2.96.13,1.67.21,2.11.24,0,0,0-.44,0-.44ZM88.35,46.95h4.01v-.79h1v2.09h-5.01s0-1.3,0-1.3ZM88.35,43.68h1v.77h4.01v1.3h-4.01v.77h-1v-2.84ZM88.35,40.39h5.01v1.3h-2.1v.38h2.1v1.3h-5.01v-1.3h1.79v-.38h-1.79v-1.3ZM88.35,37.09l3.2.95h1.81v1.2h-1.81l-3.2.92v-1.2c.98-.18,1.64-.29,1.98-.32-.53-.08-1.19-.2-1.98-.36,0,0,0-1.19,0-1.19ZM88.35,35.75v-.97c0-.63.03-1.05.09-1.28.06-.22.15-.39.29-.51.13-.12.28-.19.44-.22.16-.03.48-.04.96-.04h1.75c.45,0,.75.02.9.06.15.04.27.12.36.22.09.11.14.24.18.39.03.15.05.39.05.7v1.64h-5.01ZM89.2,34.45h3.3c0-.18-.04-.3-.11-.34-.08-.04-.28-.06-.62-.06h-1.95c-.23,0-.37,0-.44.02-.06.01-.11.05-.14.1-.03.05-.05.15-.05.29h0ZM88.35,32.25v-.92c0-.61.02-1.03.07-1.25.05-.22.17-.39.36-.53.19-.14.51-.21.93-.21.39,0,.65.05.79.15.13.1.21.29.24.57.06-.26.15-.43.26-.52.11-.09.21-.14.3-.16.09-.02.34-.03.74-.03h1.32v1.21h-1.67c-.27,0-.43.02-.5.06-.06.04-.1.15-.1.33h2.26v1.3h-5.01ZM89.2,30.95h1.11c0-.15-.02-.25-.06-.31-.04-.06-.17-.09-.39-.09h-.28c-.16,0-.26.03-.31.08-.05.06-.07.16-.07.31h0ZM88.35,27.54h5.01v1.3h-5.01s0-1.3,0-1.3ZM88.35,24.11h5.01v1.14l-2.28.68h2.28v1.09h-5.01v-1.09l2.26-.73h-2.26v-1.09ZM88.35,20.48l2.26.74,2.75-.81v1.34l-2.15.53h2.15v1.3h-5.01v-1.3h1.95l-1.95-.59v-1.22Z"/></g></svg>