<?xml version="1.0" encoding="UTF-8"?><svg id="a" xmlns="http://www.w3.org/2000/svg" viewBox="0 0 100 68.97"><defs><style>.d,.e,.f,.g,.h{fill-rule:evenodd;}.d,.f,.i{fill:#fefefe;}.e{fill:#e31e24;}.f{stroke:#b0cb1f;stroke-miterlimit:10;stroke-width:.24px;}.j{fill:#333;}.g{fill:#b0cb1f;}.h{fill:#79257f;}</style></defs><g id="b"><g id="c"><path class="h" d="M10.42,16.62h69.26v42.86H10.42c-5.73,0-10.42-4.61-10.42-10.23v-22.39c0-5.63,4.69-10.23,10.42-10.23Z"/><path class="e" d="M79.68,16.62v42.86h7.42c5.73,0,10.42-4.61,10.42-10.23v-22.39c0-5.63-4.69-10.23-10.42-10.23,0,0-7.42,0-7.42,0Z"/><path class="d" d="M74.7,21.33s-1.4.02-2.62-.39l.02.06s-.23-.11-.6-.29h0s0,0,0,0c-1.01-.49-3.08-1.51-4.74-2.45-2.29-1.3-5.52-4.11-6.48-8.76s.67-7.79.67-7.79c0,0,.45,1.12,1.66,2.47s2.81,2.69,5.98,4.29c3.18,1.6,4.92,3.94,4.92,3.94,0,0,.34-1.61,3.58-3.75s8.08-1.79,12.08-3.78c4.01-1.99,4.93-3.92,4.93-3.92,0,0,.31,1.9.26,4.92-.05,3.02-1.65,8.17-6.86,11.36-5.21,3.19-12.79,4.1-12.79,4.1h0Z"/><path class="d" d="M82.33,16.86l-7.46,3.52s-1.89.02-3.21-.62-6.28-7.09-6.52-7.7c-.24-.61-.92-2.76-.65-2.97s-1.54-.93.55-.32c2.09.61,4.67.64,5.99,2.02,1.33,1.38,3.91,2.99,3.91,2.99,0,0,7.05-5.91,7.33-5.94.27-.03,4.52.52,4.65,1.06.13.53.28,2.62.09,3.29s.18,1.14-.49,1.53c-.67.39-4.21,3.16-4.21,3.16h0Z"/><path class="g" d="M61.11.75s-1.63,3.15-.67,7.79c.96,4.65,4.19,7.46,6.48,8.76,2.29,1.3,5.35,2.75,5.35,2.75,0,0-1.35-3.61-2.99-5.79-1.64-2.18-3.15-3.75-3.15-3.75,0,0,1.87.41,4.58,3.54,2.72,3.13,2.63,6.11,2.63,6.11,0,0,1.55-3.87,5.51-6.58s6.55-2.95,6.55-2.95c0,0-5.35,3.71-7.76,6.34s-2.76,3.4-2.76,3.4c0,0,7.58-.9,12.79-4.1s6.81-8.34,6.86-11.36c.05-3.02-.26-4.92-.26-4.92,0,0-.93,1.93-4.93,3.92-4.01,1.99-8.84,1.65-12.08,3.78-3.24,2.14-3.58,3.75-3.58,3.75,0,0-1.74-2.35-4.92-3.94-3.18-1.6-4.77-2.94-5.98-4.29-1.21-1.35-1.66-2.47-1.66-2.47h0Z"/><path class="d" d="M73.35,20.88s-1.44,3.98-3.48,6.92c-2.05,2.94-3.26,5.42-2.5,9.19.77,3.77,5.58,4.49,8.06,3.12,2.48-1.37,2.83-3.4,3.08-4.75.25-1.35-.31-4.62-1.67-6.98-1.36-2.36-2.92-5.95-3.15-6.57-.22-.61-.35-.94-.35-.94h0ZM73.29,22.84s-1.12,3.12-2.73,5.43c-1.6,2.3-2.56,4.25-1.96,7.2.6,2.96,4.38,3.52,6.32,2.44,1.94-1.08,2.22-2.66,2.42-3.72.19-1.06-.24-3.62-1.31-5.47-1.07-1.85-2.29-4.67-2.47-5.15-.18-.48-.27-.74-.27-.74h0Z"/><path class="d" d="M75.05,29.07s.67,1.5.72,4.03c.05,2.53-.5,3.68-.5,3.68,0,0,.9-1.4.95-3.51.05-2.11-1.17-4.2-1.17-4.2h0Z"/><path class="i" d="M34.83,52.33l-.03.48c-.08-.03-.17-.05-.27-.07-.1-.02-.21-.03-.32-.04-.11-.01-.21-.02-.32-.02-.1,0-.2,0-.28,0h-.06l.13,3.2h-.7l.08-3.18c-.11,0-.23.02-.35.04-.12.02-.23.04-.34.06-.11.03-.21.06-.3.09s-.17.07-.23.12l-.04-.66,3.02-.02h0ZM35.77,52.28l-.08,1.68c.04-.08.08-.15.13-.21.05-.06.11-.12.17-.17.06-.05.14-.08.21-.11s.16-.04.25-.04c.1,0,.19.02.27.06.08.04.15.09.21.16.06.07.11.14.15.23.04.09.07.18.1.27.02.09.04.19.05.29.01.1.02.19.02.27,0,.1,0,.2-.02.3-.01.11-.03.21-.05.32-.02.11-.04.21-.07.31-.03.1-.06.2-.09.28l-.56-.06c.04-.08.08-.18.11-.3.03-.12.06-.24.08-.36.02-.13.04-.25.05-.37.01-.12.02-.23.02-.33,0-.08,0-.17-.02-.26-.01-.09-.04-.17-.07-.25-.04-.08-.08-.14-.14-.19-.06-.05-.14-.07-.23-.07-.06,0-.11.01-.15.04-.05.02-.09.05-.13.09-.04.04-.07.08-.1.13-.03.05-.06.1-.08.15-.05.12-.1.26-.13.41l-.05,1.19-.43.04-.09-3.45.67-.05h0ZM38.89,55.17c-.12,0-.24-.02-.36-.05-.12-.03-.23-.09-.32-.16,0,.06,0,.13.01.2,0,.07.02.13.03.2.01.06.03.12.06.18.02.06.05.1.09.15.04.04.08.07.13.1.05.03.12.04.19.04.07,0,.13-.01.19-.04.06-.03.11-.06.16-.11.05-.05.08-.1.11-.16.03-.06.05-.13.06-.2l.56.13c-.04.1-.11.19-.19.26-.08.07-.17.13-.27.17-.1.04-.2.08-.3.09-.11.02-.21.03-.3.03-.18,0-.33-.03-.47-.08-.14-.06-.25-.14-.35-.24-.09-.1-.17-.23-.21-.38-.05-.15-.07-.32-.07-.5s.03-.35.09-.51c.06-.16.14-.3.24-.42.1-.12.23-.21.37-.28.14-.07.31-.1.48-.1.13,0,.25.02.38.05.13.03.24.09.34.16s.18.16.24.27c.06.11.09.25.09.4s-.03.28-.09.39c-.06.11-.13.19-.23.26-.09.07-.2.11-.32.14-.12.03-.24.04-.36.04h0ZM38.79,53.64c-.07,0-.13.02-.19.05-.05.03-.1.07-.14.12-.04.05-.08.11-.11.18s-.05.14-.07.21c-.02.07-.04.15-.05.22-.01.08-.02.15-.02.21.06.11.13.19.23.26.1.07.21.1.33.1.08,0,.15-.02.22-.06.06-.04.12-.09.16-.16.04-.06.08-.14.1-.21.02-.08.04-.16.04-.24s-.01-.16-.03-.24c-.02-.08-.05-.16-.1-.22-.04-.07-.09-.12-.16-.16s-.14-.06-.22-.06h0ZM43.32,52.21c.21,0,.39.04.55.12.16.08.29.18.41.31.11.13.21.28.29.46.08.17.14.35.18.54.05.19.08.38.1.57.02.19.03.38.03.55,0,.15,0,.3-.03.44-.02.14-.04.26-.06.37-.03.13-.06.25-.09.36l-.69-.13c.04-.11.09-.24.12-.39.04-.14.07-.29.1-.44-.18-.02-.37-.03-.55-.03-.18,0-.37,0-.55,0-.14,0-.28,0-.42,0-.14,0-.28,0-.43.02.03.14.07.28.11.42.04.14.09.28.14.43l-.72.14c-.03-.08-.06-.16-.09-.26-.02-.08-.04-.19-.06-.31-.02-.12-.03-.26-.03-.41,0-.2,0-.41.02-.62.02-.21.05-.42.09-.62.04-.2.1-.4.18-.58.08-.18.18-.34.31-.48.13-.14.28-.24.46-.32.18-.08.39-.12.64-.12h0ZM42.18,53.96c0,.14,0,.27.01.39,0,.13.02.25.04.37.15,0,.3.02.46.02.15,0,.3,0,.46,0,.18,0,.37,0,.56,0,.19,0,.37-.01.56-.03.03-.18.04-.35.04-.51,0-.12,0-.24-.02-.37-.02-.13-.04-.26-.08-.39-.04-.13-.08-.25-.14-.37-.06-.12-.12-.22-.21-.31-.08-.09-.17-.16-.28-.21-.11-.05-.23-.08-.36-.08-.12,0-.23.02-.33.06-.1.04-.19.1-.27.17-.08.07-.15.16-.2.26-.06.1-.1.2-.14.31-.04.11-.06.22-.08.34-.02.12-.03.23-.03.34h0ZM45.89,53.98c.04-.06.08-.12.13-.18.05-.06.11-.11.17-.15.06-.04.13-.08.21-.1.07-.02.16-.04.24-.04.11,0,.21.03.28.08.08.05.14.12.18.2.1-.1.21-.17.33-.23.12-.06.25-.09.37-.09.09,0,.18.02.25.05.07.04.13.08.19.14.05.06.1.13.14.21s.07.16.09.25c.02.09.04.17.05.26.01.09.01.17.01.26,0,.09,0,.2-.02.32-.01.12-.03.24-.05.37-.02.13-.05.24-.08.36-.03.11-.06.21-.1.29l-.62-.06c.06-.12.11-.25.15-.39.04-.12.08-.26.11-.41s.05-.32.05-.49c0-.11,0-.21-.02-.3-.01-.09-.03-.18-.07-.25s-.08-.12-.14-.17c-.06-.04-.13-.06-.22-.06-.06,0-.12.01-.18.04-.06.03-.11.07-.17.11.02.08.04.16.05.24,0,.08.01.17.01.25s0,.19-.01.31c0,.12-.02.24-.03.37-.01.13-.03.25-.04.36-.02.11-.03.21-.05.27l-.62-.05c.04-.12.08-.25.11-.39.03-.12.05-.26.08-.42.02-.16.04-.33.04-.51,0-.06,0-.12-.02-.19-.01-.07-.03-.13-.06-.18-.03-.06-.07-.1-.12-.14-.05-.04-.11-.06-.17-.06-.04,0-.09.01-.13.04-.04.03-.08.06-.12.11-.04.04-.07.1-.11.15-.03.06-.07.12-.09.18l.06,1.5-.61.06.12-2.34.41.03v.37s.01,0,.01,0ZM50.5,55.83l.06-.26c-.05.05-.11.1-.18.14-.06.04-.13.08-.2.1-.07.03-.14.05-.21.07-.07.02-.13.02-.19.02-.1,0-.2-.02-.31-.05-.11-.03-.2-.08-.29-.14-.08-.06-.15-.14-.21-.23-.05-.09-.08-.2-.08-.32,0-.16.03-.3.08-.42.05-.12.12-.22.21-.29.09-.08.19-.13.31-.17.12-.04.25-.06.39-.06.07,0,.13,0,.2.02.07.01.14.03.2.05.07.02.13.05.19.09.06.04.11.08.16.13,0-.09-.02-.18-.03-.28-.02-.1-.05-.19-.08-.27-.04-.08-.09-.15-.15-.2-.06-.05-.14-.08-.24-.08-.14,0-.26.04-.36.12-.1.08-.16.19-.2.34l-.59-.07c.04-.1.09-.19.15-.27.07-.08.14-.14.23-.2.08-.05.17-.09.27-.12.1-.03.19-.04.29-.04.15,0,.28.02.4.07.12.05.22.11.31.19.09.08.17.17.23.28.06.11.11.23.15.35.04.12.07.26.09.39.02.14.03.27.03.41,0,.12,0,.24-.02.36-.01.12-.03.24-.05.35l-.58-.03h0ZM50.62,55.14s0-.07.01-.11c0-.04,0-.07,0-.11,0-.08-.03-.14-.08-.21-.04-.06-.09-.11-.15-.15-.06-.04-.13-.07-.2-.09-.07-.02-.14-.03-.21-.03-.08,0-.15.01-.22.04-.07.03-.13.07-.18.12-.05.05-.09.11-.12.19-.03.07-.04.15-.04.24s.01.17.04.24c.03.07.06.14.11.19.05.05.1.09.17.12.07.03.14.04.22.04.07,0,.14-.01.22-.03.07-.02.13-.06.19-.1s.11-.09.15-.15c.04-.06.07-.13.09-.2h0ZM53.44,55.22l-.07.69-1.87-.08,1.2-2.09h-.06c-.09,0-.18.02-.28.05-.09.03-.19.07-.28.12-.09.05-.18.11-.26.17-.08.06-.16.12-.23.18l-.09-.67,1.96-.02-1.39,2.08c.11,0,.22,0,.34-.03.12-.02.25-.04.37-.07.12-.03.24-.08.35-.13.11-.05.21-.12.3-.19h0ZM54.6,52.96c0,.06-.01.11-.03.17-.02.05-.05.1-.09.14s-.08.07-.13.09c-.05.02-.1.03-.16.03s-.11-.01-.16-.03c-.05-.02-.09-.05-.13-.09-.04-.04-.07-.08-.09-.14-.02-.05-.03-.11-.03-.17s.01-.12.03-.17c.02-.05.05-.1.09-.14.04-.04.08-.07.13-.09.05-.02.1-.03.16-.03s.11.01.16.03c.05.02.09.05.13.09s.06.09.09.14c.02.05.03.11.03.17ZM54.52,53.64l-.17,2.36-.44-.05-.03-2.35.64.04h0ZM55.61,53.51l-.02.45c.04-.08.09-.15.14-.23.06-.07.12-.13.19-.18.07-.05.14-.08.23-.11.08-.02.17-.03.26-.01.14.02.27.07.37.14.1.07.18.16.24.28.06.11.11.24.13.39.03.15.04.31.04.48,0,.1,0,.2-.02.3-.02.11-.04.21-.06.32s-.06.21-.09.31c-.03.1-.07.2-.1.28l-.56-.06s.01-.02.03-.06c.02-.04.04-.09.06-.15.02-.06.05-.14.07-.22.02-.09.05-.18.07-.28.02-.1.04-.21.06-.31.01-.11.02-.22.02-.33,0-.12-.01-.23-.03-.33-.02-.09-.05-.18-.09-.24-.04-.07-.1-.12-.16-.15-.07-.03-.14-.05-.24-.05-.08,0-.15.02-.22.07-.06.05-.12.11-.16.18-.05.07-.09.16-.12.25-.03.09-.06.19-.08.28l-.06,1.32-.42.04-.09-2.32.63-.05h0ZM58.83,55.69c.12,0,.22-.02.3-.07.08-.05.15-.11.2-.18.05-.08.09-.16.11-.26.02-.1.03-.2.02-.31l-.03-.56c0-.07-.02-.14-.05-.21-.04-.07-.08-.13-.13-.18-.06-.05-.12-.1-.19-.13-.07-.03-.14-.05-.2-.05-.12,0-.23.03-.32.08-.09.05-.17.12-.23.21-.06.09-.11.19-.14.3-.03.11-.05.23-.05.34s.01.23.04.35c.03.12.07.23.12.32.06.1.13.18.22.24.09.06.2.09.32.09h0ZM58.6,57.11c-.13,0-.24-.03-.34-.08-.09-.05-.17-.13-.23-.22-.06-.09-.11-.19-.15-.31-.04-.12-.06-.24-.08-.36l.63-.05s-.01.09-.02.14c0,.05,0,.09,0,.14,0,.07,0,.13.02.2.01.07.03.13.06.18.03.06.07.1.12.13.05.03.11.05.18.05.08,0,.14-.02.2-.07.06-.04.11-.1.15-.17.04-.07.08-.15.11-.25.03-.09.05-.19.07-.29.02-.1.03-.2.04-.29,0-.1.02-.18.02-.26-.1.11-.21.19-.33.25-.13.06-.27.09-.43.09s-.3-.03-.43-.1-.24-.16-.33-.27c-.09-.11-.17-.25-.22-.39-.05-.15-.08-.3-.08-.46s.03-.31.07-.46c.05-.15.12-.27.21-.39.09-.11.2-.2.33-.27.13-.07.27-.1.42-.1.06,0,.12,0,.18.01.06.01.12.03.18.05.06.02.12.05.17.08s.11.07.16.11l-.02-.24.58-.06c.02.21.03.41.04.62s.01.41.01.61c0,.12,0,.25,0,.38,0,.13-.01.27-.02.4-.01.14-.03.27-.06.41-.02.13-.06.26-.1.38-.04.12-.1.23-.16.34s-.14.19-.23.27c-.09.08-.19.14-.31.18-.12.04-.26.06-.41.06h0ZM64.59,52.33l-.03.48c-.08-.03-.17-.05-.27-.07-.1-.02-.21-.03-.32-.04-.11-.01-.21-.02-.32-.02s-.2,0-.28,0h-.06l.13,3.2h-.7l.08-3.18c-.11,0-.23.02-.35.04-.12.02-.23.04-.34.06-.11.03-.21.06-.3.09-.09.03-.17.07-.23.12l-.04-.66,3.02-.02h0ZM66.38,55.83l.06-.26c-.05.05-.11.1-.18.14-.06.04-.13.08-.2.1-.07.03-.14.05-.21.07-.07.02-.13.02-.19.02-.1,0-.2-.02-.31-.05-.11-.03-.2-.08-.29-.14-.08-.06-.15-.14-.21-.23-.05-.09-.08-.2-.08-.32,0-.16.03-.3.08-.42.05-.12.12-.22.21-.29.09-.08.19-.13.31-.17.12-.04.25-.06.39-.06.07,0,.13,0,.2.02.07.01.14.03.2.05s.13.05.19.09c.06.04.11.08.16.13,0-.09-.02-.18-.03-.28-.02-.1-.05-.19-.08-.27-.04-.08-.09-.15-.15-.2-.06-.05-.14-.08-.24-.08-.14,0-.26.04-.36.12-.1.08-.16.19-.2.34l-.59-.07c.04-.1.09-.19.15-.27.07-.08.14-.14.23-.2.08-.05.17-.09.27-.12.1-.03.19-.04.29-.04.15,0,.28.02.4.07.12.05.22.11.31.19.09.08.17.17.23.28.06.11.11.23.15.35.04.12.07.26.09.39.02.14.03.27.03.41,0,.12,0,.24-.02.36-.01.12-.03.24-.05.35l-.58-.03h0ZM66.5,55.14s0-.07.01-.11c0-.04,0-.07,0-.11,0-.08-.03-.14-.08-.21-.04-.06-.09-.11-.15-.15-.06-.04-.13-.07-.2-.09-.07-.02-.14-.03-.21-.03-.08,0-.15.01-.22.04-.07.03-.13.07-.18.12-.05.05-.09.11-.12.19-.03.07-.04.15-.04.24s.01.17.04.24c.03.07.06.14.11.19.05.05.1.09.17.12.07.03.14.04.22.04.07,0,.14-.01.22-.03.07-.02.13-.06.19-.1s.11-.09.15-.15c.04-.06.07-.13.09-.2h0ZM68.53,55.94c-.13,0-.26-.02-.39-.05-.13-.04-.25-.09-.36-.17-.11-.07-.2-.17-.27-.28-.07-.11-.12-.25-.14-.4l.64.02s0,.02,0,.03v.03c0,.1.01.18.04.26s.06.14.12.2c.05.05.11.09.18.12.07.03.15.04.24.04.05,0,.1,0,.15-.02.05-.01.09-.03.13-.06.04-.03.07-.06.09-.11.02-.04.04-.1.04-.17,0-.08-.02-.14-.07-.19-.04-.05-.1-.1-.16-.14-.06-.04-.13-.07-.2-.09-.07-.02-.13-.04-.18-.06-.05-.01-.11-.03-.18-.05-.07-.02-.14-.04-.21-.07-.07-.03-.14-.06-.21-.09s-.13-.08-.19-.12c-.06-.05-.1-.1-.13-.16-.03-.06-.05-.13-.05-.21,0-.09.02-.17.05-.25.03-.07.07-.14.13-.2.05-.06.12-.11.19-.15.07-.04.14-.08.22-.1.08-.03.15-.05.23-.06.08-.01.15-.02.22-.02.12,0,.23.01.35.04.12.03.23.07.33.14.1.06.18.15.25.25s.11.22.12.37l-.62.05v-.02c0-.1,0-.18-.03-.26-.02-.08-.06-.15-.1-.2-.05-.06-.1-.1-.17-.13-.07-.03-.15-.05-.24-.05-.04,0-.09,0-.13.02-.05.01-.09.03-.14.06-.04.03-.08.06-.11.1-.03.04-.04.09-.04.14,0,.08.02.15.07.21.05.05.11.09.18.12.07.03.15.05.22.07.08.02.15.03.2.05.06.02.13.03.2.06.07.02.14.05.21.08.07.03.14.07.2.11.06.04.12.09.17.15.05.06.09.12.12.19.03.07.04.15.04.24,0,.13-.03.24-.1.34-.06.09-.14.17-.24.22-.1.06-.21.1-.32.12-.12.03-.23.04-.33.04h0ZM70.75,52.44l-.03,1.01h.54v.21h-.55l-.06,2.23-.42.04-.04-2.27h-.56v-.21h.56v-.85s.56-.16.56-.16h0ZM72.63,55.17c-.12,0-.24-.02-.36-.05-.12-.03-.23-.09-.32-.16,0,.06,0,.13.01.2,0,.07.02.13.03.2.01.06.03.12.06.18.02.06.05.1.09.15.04.04.08.07.13.1.05.03.12.04.19.04.07,0,.13-.01.19-.04.06-.03.11-.06.16-.11.05-.05.08-.1.11-.16.03-.06.05-.13.06-.2l.56.13c-.04.1-.11.19-.19.26-.08.07-.17.13-.27.17-.1.04-.2.08-.3.09-.11.02-.21.03-.3.03-.18,0-.33-.03-.47-.08-.14-.06-.25-.14-.35-.24-.09-.1-.17-.23-.21-.38-.05-.15-.07-.32-.07-.5s.03-.35.09-.51c.06-.16.14-.3.24-.42.1-.12.23-.21.37-.28.14-.07.31-.1.48-.1.13,0,.25.02.38.05.13.03.24.09.34.16.1.07.18.16.24.27.06.11.09.25.09.4s-.03.28-.09.39c-.06.11-.13.19-.23.26-.09.07-.2.11-.32.14-.12.03-.24.04-.36.04h0ZM72.53,53.64c-.07,0-.13.02-.19.05-.05.03-.1.07-.14.12-.04.05-.08.11-.11.18s-.05.14-.07.21c-.02.07-.04.15-.05.22-.01.08-.02.15-.02.21.06.11.13.19.23.26.1.07.21.1.33.1.08,0,.15-.02.22-.06s.12-.09.16-.16c.04-.06.08-.14.1-.21.02-.08.04-.16.04-.24s-.01-.16-.03-.24c-.02-.08-.05-.16-.1-.22-.04-.07-.09-.12-.16-.16s-.14-.06-.22-.06h0Z"/><path class="i" d="M74.76,55.63c0,.06,0,.11-.03.16-.02.05-.05.09-.08.13s-.07.06-.12.08c-.04.02-.09.03-.14.03s-.1,0-.14-.03c-.04-.02-.08-.05-.12-.08-.03-.04-.06-.08-.08-.13-.02-.05-.03-.1-.03-.16s.01-.11.03-.16c.02-.05.05-.09.08-.13.03-.04.07-.06.12-.08.05-.02.09-.03.14-.03s.1,0,.14.03c.05.02.09.05.12.08.03.04.06.08.08.13.02.05.03.1.03.16ZM75.97,55.63c0,.06-.01.11-.03.16-.02.05-.05.09-.08.13s-.07.06-.12.08c-.04.02-.09.03-.14.03s-.1,0-.14-.03c-.04-.02-.08-.05-.12-.08-.03-.04-.06-.08-.08-.13-.02-.05-.03-.1-.03-.16s.01-.11.03-.16c.02-.05.05-.09.08-.13.03-.04.07-.06.12-.08.05-.02.09-.03.14-.03s.1,0,.14.03c.05.02.09.05.12.08.03.04.06.08.08.13.02.05.03.1.03.16ZM77.18,55.63c0,.06,0,.11-.03.16-.02.05-.05.09-.08.13s-.07.06-.12.08c-.04.02-.09.03-.14.03s-.1,0-.14-.03c-.04-.02-.08-.05-.12-.08-.03-.04-.06-.08-.08-.13-.02-.05-.03-.1-.03-.16s0-.11.03-.16c.02-.05.05-.09.08-.13.03-.04.07-.06.12-.08.05-.02.09-.03.14-.03s.1,0,.14.03c.05.02.09.05.12.08.03.04.06.08.08.13.02.05.03.1.03.16Z"/><path class="f" d="M59.53,26.7s-7.44,4.75-9.44,10.7-.68,9.41,1.93,9.53,6-4.26,6-4.26v3.38l3.82-.84s-.25-6.2,1.32-10.3,3.21-6.36,3.21-6.36l-2.93-2.66s-1.03.91-2.09,2.99h0l-1.83-2.19h0ZM60.88,29.91c-.12.28-.24.58-.36.89-1.29,3.46-2.07,7.88-4.93,10.38-2.86,2.49-3.14.16-2.64-2.17s3.93-5.77,5.36-7.22c.81-.83,1.84-1.47,2.57-1.88h0Z"/><path class="f" d="M11.06,22.01s-4.57,10.62-6,20.11c-1.43,9.49-1.21,9.98-1.21,9.98h3.93s.5-5.47,2.5-8.61c2-3.14,2.72-3.22,2.72-3.22,0,0-.5,2.82-.86,6.28s-.21,4.75-.21,4.75h3.72s.07-5.71.57-8.61c.5-2.9,2.93-9.25,2.93-9.25l-2.93-1.93-5.64,5.47s1.5-7.08,2.93-10.7c1.43-3.62,1.64-4.1,1.64-4.1l-4.07-.16h0Z"/><path class="f" d="M39.07,28.69s-2.57,5.79-3.93,12.47c-1.36,6.68-1,7.56-1,7.56l4.36-.32s.14-3.54,1.86-7.48c1.71-3.94,3.93-5.15,3.93-5.15,0,0-1.14,3.86-1.93,7.56s-.5,4.59-.5,4.59l4.57-.4s.14-5.87,1.29-10.06c1.14-4.18,3.93-7.56,3.93-7.56l-2.79-2.01-6.64,5.71.77-4.74-3.86-.39-.05.22h0Z"/><path class="f" d="M28.93,30.38s-7.44,4.75-9.44,10.7c-2,5.95-.68,9.41,1.93,9.53,2.61.12,6-4.26,6-4.26v3.38l3.82-.84s-.25-6.2,1.32-10.3c1.57-4.1,3.21-6.36,3.21-6.36l-2.93-2.66s-1.03.9-2.09,2.99h0l-1.83-2.19h0ZM30.28,33.59c-.12.28-.24.58-.36.89-1.29,3.46-2.07,7.88-4.93,10.38-2.86,2.49-3.14.16-2.64-2.17s3.93-5.77,5.36-7.22c.81-.82,1.84-1.47,2.57-1.88h0Z"/><path class="i" d="M86.16,53.28h4.89v1.27h-2.05v.37h2.05v1.27h-4.89v-1.27h1.75v-.37h-1.75v-1.27ZM86.16,52.76v-2.12h.98v.85h.93v-.79h.93v.79h1.07v-.93h.98v2.2h-4.89ZM86.16,48.01l4.89-.73v1.3l-.88.07v.46l.88.07v1.31l-4.89-.64v-1.84h0ZM89.31,48.68c-.55.06-1.24.12-2.06.19.94.13,1.62.2,2.06.24,0,0,0-.43,0-.43ZM86.16,45.79h3.91v-.77h.98v2.04h-4.89s0-1.27,0-1.27ZM86.16,42.6h.98v.75h3.91v1.27h-3.91v.75h-.98v-2.77ZM86.16,39.39h4.89v1.27h-2.05v.37h2.05v1.27h-4.89v-1.27h1.75v-.37h-1.75v-1.27ZM86.16,36.18l3.12.93h1.77v1.17h-1.77l-3.12.9v-1.17c.96-.18,1.6-.28,1.93-.31-.52-.07-1.16-.19-1.93-.35,0,0,0-1.17,0-1.17ZM86.16,34.87v-.95c0-.61.03-1.03.08-1.24.06-.22.15-.38.28-.49.13-.11.27-.18.43-.21.16-.03.47-.04.93-.04h1.71c.44,0,.73.02.88.06.15.04.26.11.35.22.08.1.14.23.17.38.03.15.05.38.05.68v1.6h-4.89ZM87,33.6h3.22c0-.18-.04-.29-.11-.33-.07-.04-.27-.06-.6-.06h-1.9c-.22,0-.36,0-.43.02-.06.01-.11.05-.14.1-.03.05-.04.14-.04.28h0ZM86.16,31.46v-.9c0-.6.02-1,.07-1.22.05-.21.16-.39.36-.52.19-.13.49-.2.91-.2.38,0,.64.05.77.14.13.09.21.28.23.56.06-.25.15-.42.25-.51.1-.09.2-.14.29-.16.09-.02.33-.03.72-.03h1.29v1.18h-1.63c-.26,0-.42.02-.49.06-.06.04-.09.15-.09.32h2.2v1.27h-4.89ZM87,30.18h1.09c0-.14-.02-.24-.06-.3-.04-.06-.17-.09-.38-.09h-.27c-.16,0-.26.03-.31.08-.05.05-.07.16-.07.3h0ZM86.16,26.86h4.89v1.27h-4.89s0-1.27,0-1.27ZM86.16,23.52h4.89v1.11l-2.22.66h2.22v1.06h-4.89v-1.06l2.2-.71h-2.2v-1.06ZM86.16,19.98l2.21.73,2.68-.79v1.31l-2.09.52h2.09v1.27h-4.89v-1.27h1.9l-1.9-.57v-1.19Z"/><path class="j" d="M7.75,62.62v.13c0,.09,0,.21,0,.36,0,.15,0,.34-.02.54,0,.21-.02.43-.03.68-.01.24-.03.49-.05.76-.02.26-.04.52-.07.78-.03.26-.06.52-.1.76-.04.25-.08.48-.14.69l-.68.03c-.12-.16-.25-.35-.4-.56-.15-.21-.3-.43-.46-.66-.16-.23-.32-.46-.49-.7-.17-.24-.32-.47-.48-.7-.36-.53-.73-1.07-1.11-1.63-.01.6-.02,1.17-.03,1.71,0,.23,0,.47,0,.71s0,.47,0,.69c0,.22,0,.43,0,.62,0,.19.01.36.02.49l-.76.09c-.04-.18-.07-.39-.1-.63-.03-.24-.05-.48-.07-.74-.02-.26-.03-.52-.04-.79,0-.27-.02-.53-.02-.79,0-.6,0-1.21,0-1.85l1.43-.1,2.56,4.1c.03-.29.04-.59.05-.92,0-.33,0-.67-.01-1.02-.01-.35-.04-.7-.07-1.06-.03-.36-.07-.71-.11-1.06l1.18.08h0ZM12.35,65.79c0,.27-.06.5-.17.71-.11.21-.26.38-.45.52-.19.14-.4.25-.65.32-.25.07-.5.11-.77.11s-.5-.04-.72-.13c-.22-.08-.41-.2-.57-.35-.16-.15-.28-.32-.37-.53-.09-.2-.13-.43-.13-.67s.05-.46.16-.67c.11-.21.25-.39.43-.54.18-.15.38-.28.61-.37.23-.09.47-.13.73-.13.27,0,.53.04.76.13.23.08.44.2.61.35.17.15.3.33.4.54.1.21.14.44.14.7h0ZM11.45,65.75c0-.1,0-.2-.02-.31-.01-.11-.04-.21-.07-.31-.03-.1-.07-.2-.12-.29-.05-.09-.11-.17-.19-.24-.08-.07-.17-.13-.27-.17-.1-.04-.22-.06-.35-.06-.2,0-.37.04-.5.13-.13.09-.23.2-.31.34-.08.14-.13.29-.16.45-.03.17-.04.32-.04.47,0,.1,0,.2.02.31s.04.21.07.32c.03.1.07.2.12.3.05.09.11.18.19.25.07.07.16.13.26.17.1.04.22.06.35.06s.25-.02.35-.06c.1-.04.19-.1.27-.17.07-.07.14-.16.19-.25.05-.1.09-.2.13-.3.03-.1.05-.21.07-.32.01-.11.02-.21.02-.31h0ZM13.99,64.16l-.04.6c.06-.11.14-.21.23-.3.09-.09.18-.17.29-.24.11-.07.23-.11.35-.14.13-.03.26-.04.4-.02.23.03.42.09.58.19.16.1.28.22.38.37.1.15.17.32.21.52.04.2.06.42.06.65,0,.13-.01.27-.04.41-.02.14-.06.29-.1.43-.04.14-.09.28-.14.42-.05.14-.1.26-.16.38l-.88-.08s.02-.03.05-.08c.03-.05.06-.12.09-.2.04-.09.07-.19.11-.3.04-.12.08-.24.11-.38.04-.13.06-.28.09-.42.02-.15.03-.3.03-.45,0-.17-.02-.31-.05-.44-.03-.13-.08-.24-.14-.32-.07-.09-.15-.16-.25-.2-.1-.05-.23-.07-.37-.07-.13,0-.24.03-.34.09-.1.06-.18.14-.26.24-.07.1-.14.21-.19.34-.05.12-.1.25-.13.37l-.09,1.78-.66.05-.14-3.13.98-.07h0ZM21.64,67.29l.09-.35c-.08.07-.18.13-.28.19-.1.06-.21.1-.31.14-.11.04-.22.07-.32.09-.11.02-.2.03-.29.03-.15,0-.31-.02-.48-.06-.16-.04-.31-.1-.45-.19-.13-.08-.24-.19-.33-.31-.09-.13-.13-.27-.13-.44,0-.22.04-.4.12-.56.08-.16.19-.29.33-.39.14-.1.3-.18.49-.23.19-.05.39-.07.61-.07.1,0,.21,0,.31.02.11.02.21.04.31.07.1.03.2.07.29.12.09.05.18.11.25.18,0-.12-.02-.24-.05-.38-.03-.13-.07-.25-.13-.36-.06-.11-.14-.2-.23-.27-.1-.07-.22-.11-.37-.11-.22,0-.41.05-.56.16-.15.1-.25.26-.31.45l-.93-.09c.06-.14.14-.26.24-.36.11-.1.22-.19.36-.26.13-.07.27-.12.42-.16.15-.04.3-.05.45-.05.23,0,.44.03.63.09.19.06.35.15.49.25.14.11.26.23.36.38.1.15.18.3.24.47.06.17.11.34.14.53.03.18.04.37.04.55,0,.16,0,.32-.03.49-.02.16-.05.32-.08.48l-.9-.04h0ZM21.83,66.35c0-.05.01-.1.02-.15,0-.05,0-.1.01-.15-.01-.1-.05-.2-.12-.28-.07-.08-.15-.15-.24-.2-.1-.06-.2-.1-.31-.13-.11-.03-.22-.04-.33-.04-.12,0-.24.02-.35.06-.11.04-.2.09-.28.16-.08.07-.14.15-.19.25-.05.1-.07.2-.07.32s.02.23.06.33c.04.1.1.18.17.25.07.07.16.13.26.17.1.04.22.06.35.06.11,0,.23-.02.34-.05.11-.03.21-.07.3-.13.09-.06.17-.12.24-.21.07-.08.11-.17.14-.27h0ZM24.34,62.04l-.18,5.31-.68.05-.18-5.27,1.03-.09h0ZM28.56,65.22l-.92.1v-.14c0-.11-.02-.21-.05-.32-.04-.11-.09-.21-.16-.3-.07-.09-.16-.16-.26-.22-.1-.06-.22-.09-.35-.09s-.24.02-.34.08c-.1.05-.18.12-.25.21-.07.08-.13.18-.18.29-.05.11-.08.22-.11.34-.03.12-.05.23-.06.35-.01.11-.02.22-.02.31,0,.09,0,.18.01.29,0,.1.02.21.04.31.02.1.05.2.09.3.04.1.09.18.15.25.06.07.14.13.23.18.09.05.2.07.33.07s.24-.03.35-.08.19-.13.27-.21c.07-.09.13-.18.18-.29.04-.11.07-.21.09-.31l.95.02c-.04.18-.13.35-.26.49-.13.14-.29.25-.46.35-.18.09-.37.16-.57.21s-.4.07-.59.07c-.25,0-.48-.04-.69-.12-.21-.08-.39-.19-.54-.34-.15-.14-.27-.31-.35-.51-.08-.2-.13-.41-.13-.64,0-.25.04-.49.14-.72s.22-.42.38-.58c.16-.16.36-.3.59-.39.23-.09.48-.14.75-.14.22,0,.43.02.62.07.19.05.36.12.51.22.15.1.28.22.38.37s.18.33.23.53h0ZM32.88,65.79c0,.27-.06.5-.17.71-.11.21-.26.38-.45.52-.19.14-.4.25-.65.32-.25.07-.5.11-.77.11s-.5-.04-.72-.13c-.22-.08-.41-.2-.57-.35-.16-.15-.28-.32-.37-.53-.09-.2-.13-.43-.13-.67s.05-.46.16-.67c.11-.21.25-.39.43-.54.18-.15.38-.28.61-.37.23-.09.47-.13.73-.13.27,0,.53.04.76.13.23.08.44.2.61.35.17.15.3.33.4.54.1.21.14.44.14.7h0ZM31.98,65.75c0-.1,0-.2-.02-.31-.01-.11-.04-.21-.07-.31-.03-.1-.07-.2-.12-.29-.05-.09-.11-.17-.19-.24-.08-.07-.17-.13-.27-.17-.1-.04-.22-.06-.35-.06-.2,0-.37.04-.5.13-.13.09-.23.2-.31.34-.08.14-.13.29-.16.45-.03.17-.05.32-.05.47,0,.1,0,.2.02.31s.04.21.07.32c.03.1.07.2.12.3.05.09.11.18.19.25.07.07.16.13.26.17.1.04.22.06.35.06s.25-.02.35-.06c.1-.04.19-.1.27-.17.07-.07.14-.16.19-.25.05-.1.09-.2.13-.3.03-.1.05-.21.07-.32.01-.11.02-.21.02-.31h0ZM34.58,62.5l-.12,2.27c.06-.1.13-.2.21-.29s.17-.16.27-.22c.1-.06.21-.11.33-.15.12-.03.25-.05.4-.05.16,0,.3.03.42.08.12.05.23.13.32.22.09.09.17.2.23.31.06.12.11.24.15.37.04.13.07.26.08.39.02.13.03.25.03.37,0,.13,0,.27-.03.41-.02.14-.04.29-.07.43-.03.14-.07.28-.11.42-.05.14-.09.26-.15.38l-.88-.08c.07-.11.13-.24.18-.4.05-.16.09-.32.13-.49.03-.17.06-.34.08-.5.02-.17.03-.31.03-.44,0-.11-.01-.22-.03-.34-.02-.12-.06-.23-.12-.33-.06-.1-.13-.19-.23-.25-.1-.07-.22-.1-.36-.1-.09,0-.17.02-.24.05-.07.03-.14.07-.2.12-.06.05-.12.11-.16.17-.05.07-.09.13-.13.2-.09.16-.15.34-.2.55l-.08,1.6-.67.05-.14-4.65,1.05-.07h0ZM41.33,65.79c0,.27-.06.5-.17.71-.11.21-.26.38-.45.52-.19.14-.4.25-.65.32-.25.07-.5.11-.77.11s-.5-.04-.72-.13c-.22-.08-.41-.2-.57-.35-.16-.15-.28-.32-.37-.53-.09-.2-.13-.43-.13-.67s.05-.46.16-.67c.11-.21.25-.39.43-.54.18-.15.38-.28.61-.37.23-.09.47-.13.73-.13.27,0,.53.04.76.13.23.08.44.2.61.35.17.15.3.33.4.54.1.21.14.44.14.7h0ZM40.43,65.75c0-.1,0-.2-.02-.31-.01-.11-.04-.21-.07-.31-.03-.1-.07-.2-.12-.29-.05-.09-.11-.17-.19-.24-.08-.07-.17-.13-.27-.17-.1-.04-.22-.06-.35-.06-.2,0-.37.04-.5.13-.13.09-.23.2-.31.34-.08.14-.13.29-.16.45-.03.17-.05.32-.05.47,0,.1,0,.2.02.31.01.11.04.21.07.32.03.1.07.2.12.3.05.09.11.18.19.25.07.07.16.13.26.17.1.04.22.06.35.06s.25-.02.35-.06c.1-.04.19-.1.27-.17.07-.07.14-.16.19-.25.05-.1.09-.2.13-.3.03-.1.05-.21.07-.32.01-.11.02-.21.02-.31h0ZM42.98,62.04l-.18,5.31-.68.05-.18-5.27,1.03-.09h0ZM44.9,63.43c0,.08-.02.15-.05.22-.03.07-.08.13-.13.18-.06.05-.12.09-.2.13-.08.03-.16.05-.25.05s-.17-.02-.25-.05c-.08-.03-.14-.07-.2-.13-.06-.05-.1-.11-.14-.18-.03-.07-.05-.15-.05-.22s.02-.16.05-.23c.03-.07.08-.13.14-.19.06-.05.12-.09.2-.13.08-.03.16-.05.25-.05s.17.02.25.05c.08.03.14.07.2.13.06.05.1.12.13.19.03.07.05.15.05.23ZM44.78,64.34l-.27,3.18-.69-.07-.04-3.16,1.01.05ZM48.99,65.22l-.92.1v-.14c0-.11-.02-.21-.05-.32-.04-.11-.09-.21-.16-.3-.07-.09-.16-.16-.26-.22-.1-.06-.22-.09-.35-.09s-.24.02-.34.08c-.1.05-.18.12-.25.21-.07.08-.13.18-.18.29-.05.11-.08.22-.11.34-.03.12-.05.23-.06.35-.01.11-.02.22-.02.31,0,.09,0,.18.01.29,0,.1.02.21.04.31.02.1.05.2.09.3.04.1.09.18.15.25.06.07.14.13.23.18.09.05.2.07.33.07s.24-.03.35-.08c.1-.06.19-.13.27-.21.07-.09.13-.18.18-.29.05-.11.07-.21.09-.31l.95.02c-.04.18-.13.35-.26.49-.13.14-.29.25-.46.35-.18.09-.37.16-.57.21-.2.05-.4.07-.59.07-.25,0-.48-.04-.69-.12-.21-.08-.39-.19-.54-.34-.15-.14-.27-.31-.35-.51-.08-.2-.13-.41-.13-.64,0-.25.05-.49.14-.72.09-.22.22-.42.38-.58.16-.16.36-.3.59-.39.23-.09.48-.14.75-.14.22,0,.43.02.62.07.19.05.36.12.51.22.15.1.28.22.38.37s.18.33.23.53h0ZM52.77,62.5l-.12,2.27c.06-.1.13-.2.21-.29s.17-.16.27-.22c.1-.06.21-.11.33-.15.12-.03.25-.05.4-.05.16,0,.3.03.42.08.12.05.23.13.32.22.09.09.17.2.23.31.06.12.11.24.15.37.04.13.07.26.08.39.02.13.03.25.03.37,0,.13,0,.27-.03.41-.02.14-.04.29-.07.43-.03.14-.07.28-.11.42-.05.14-.09.26-.14.38l-.88-.08c.07-.11.13-.24.18-.4.05-.16.09-.32.13-.49.03-.17.06-.34.08-.5.02-.17.03-.31.03-.44,0-.11-.01-.22-.03-.34-.02-.12-.06-.23-.12-.33-.06-.1-.13-.19-.23-.25-.1-.07-.22-.1-.36-.1-.09,0-.17.02-.24.05-.07.03-.14.07-.2.12-.06.05-.11.11-.16.17-.05.07-.09.13-.13.2-.09.16-.15.34-.2.55l-.08,1.6-.67.05-.14-4.65,1.05-.07h0ZM57.65,66.4c-.19,0-.37-.02-.56-.07-.19-.05-.35-.12-.5-.22,0,.09,0,.17.02.26,0,.09.03.18.05.26.02.08.05.16.09.24.04.07.08.14.14.2.06.06.13.1.21.13.08.03.18.05.29.05.11,0,.21-.02.3-.05.09-.04.17-.09.25-.15.07-.06.13-.13.17-.22.05-.08.08-.17.09-.27l.88.18c-.07.14-.17.25-.29.35-.12.09-.26.17-.42.23-.15.06-.31.1-.48.13-.17.03-.32.04-.48.04-.27,0-.52-.04-.73-.11-.22-.08-.4-.18-.54-.32-.15-.14-.26-.31-.34-.51-.08-.2-.12-.43-.12-.68s.05-.48.14-.69c.09-.22.22-.41.38-.57.16-.16.36-.29.58-.38.23-.09.48-.14.75-.14.2,0,.4.02.6.07.2.05.37.12.53.21.16.1.28.22.38.37.1.15.15.33.15.54s-.05.38-.13.52c-.09.14-.21.26-.35.35-.15.09-.31.15-.5.19-.19.04-.38.06-.57.06h0ZM57.49,64.33c-.11,0-.21.02-.29.06-.08.04-.16.1-.22.17-.07.07-.12.15-.17.24-.05.09-.08.18-.11.28-.03.1-.05.2-.07.3-.02.1-.03.2-.03.28.09.14.21.26.36.35.15.09.32.14.52.14.13,0,.24-.03.34-.08.1-.05.18-.12.25-.21s.12-.18.16-.29c.04-.11.06-.21.06-.32s-.02-.21-.05-.33c-.03-.11-.08-.21-.15-.3-.07-.09-.15-.16-.25-.22-.1-.06-.21-.09-.35-.09h0ZM62.2,67.29l.09-.35c-.08.07-.18.13-.28.19-.1.06-.21.1-.31.14-.11.04-.21.07-.32.09-.11.02-.2.03-.29.03-.16,0-.31-.02-.48-.06-.16-.04-.31-.1-.45-.19-.13-.08-.24-.19-.33-.31-.09-.13-.13-.27-.13-.44,0-.22.04-.4.12-.56.08-.16.19-.29.33-.39.14-.1.3-.18.49-.23.19-.05.39-.07.61-.07.1,0,.21,0,.31.02.11.02.21.04.31.07.1.03.2.07.29.12.09.05.18.11.25.18,0-.12-.02-.24-.05-.38-.03-.13-.07-.25-.13-.36-.06-.11-.14-.2-.23-.27-.1-.07-.22-.11-.37-.11-.22,0-.41.05-.56.16-.15.1-.25.26-.31.45l-.93-.09c.06-.14.14-.26.24-.36.11-.1.22-.19.36-.26.13-.07.27-.12.42-.16.15-.04.3-.05.45-.05.23,0,.44.03.63.09.19.06.35.15.49.25.14.11.26.23.36.38.1.15.18.3.24.47.06.17.11.34.14.53.03.18.04.37.04.55,0,.16,0,.32-.03.49-.02.16-.05.32-.08.48l-.9-.04h0ZM62.39,66.35c0-.05.01-.1.02-.15,0-.05,0-.1.01-.15-.01-.1-.05-.2-.12-.28-.07-.08-.15-.15-.24-.2-.1-.06-.2-.1-.31-.13-.11-.03-.22-.04-.33-.04-.12,0-.24.02-.35.06s-.2.09-.28.16c-.08.07-.14.15-.19.25-.05.1-.07.2-.07.32s.02.23.06.33c.04.1.09.18.17.25.07.07.16.13.26.17.1.04.22.06.35.06.12,0,.23-.02.34-.05.11-.03.21-.07.3-.13.09-.06.17-.12.24-.21.07-.08.11-.17.14-.27h0ZM64.9,62.04l-.18,5.31-.68.05-.18-5.27,1.03-.09ZM66.91,62.72l-.04,1.35h.85v.28h-.86l-.1,3-.66.06-.07-3.05h-.88v-.28h.87l-.02-1.14s.9-.21.9-.21ZM69.07,62.5l-.12,2.27c.06-.1.13-.2.21-.29.08-.09.17-.16.27-.22.1-.06.21-.11.33-.15.12-.03.25-.05.4-.05.16,0,.3.03.42.08.12.05.23.13.32.22.09.09.17.2.23.31.06.12.11.24.15.37.04.13.07.26.08.39.02.13.03.25.03.37,0,.13,0,.27-.03.41-.02.14-.04.29-.07.43-.03.14-.07.28-.11.42-.05.14-.09.26-.14.38l-.88-.08c.07-.11.13-.24.18-.4.05-.16.09-.32.13-.49.03-.17.06-.34.08-.5.02-.17.03-.31.03-.44,0-.11-.01-.22-.03-.34-.02-.12-.06-.23-.12-.33-.06-.1-.13-.19-.23-.25-.1-.07-.22-.1-.36-.1-.09,0-.17.02-.24.05-.07.03-.14.07-.2.12-.06.05-.11.11-.16.17-.05.07-.09.13-.13.2-.09.16-.15.34-.2.55l-.08,1.6-.67.05-.14-4.65,1.05-.07h0Z"/><path class="j" d="M75.46,64.26c0,.08.01.17.02.26,0,.09.01.19.01.29,0,.1,0,.19,0,.28,0,.09,0,.18,0,.26,0,.15,0,.31-.01.49,0,.18-.02.37-.04.57-.02.2-.05.4-.09.6-.04.2-.09.4-.16.59-.07.19-.15.37-.24.54-.1.17-.21.31-.34.44-.13.13-.28.22-.46.29-.17.07-.37.11-.59.11-.17,0-.33-.02-.48-.07-.15-.05-.29-.12-.41-.2-.13-.09-.24-.19-.33-.31-.09-.12-.17-.25-.22-.4l1.11-.26s0,.05,0,.08v.09c0,.07,0,.15.02.24.01.09.04.17.07.25.04.08.09.15.15.2.07.06.15.08.26.08.11,0,.21-.04.3-.11.09-.08.16-.17.22-.29.06-.12.11-.25.16-.4.04-.15.08-.3.1-.45.03-.15.05-.3.06-.43.01-.14.02-.25.02-.35-.06.12-.13.23-.21.33-.08.1-.18.19-.28.26-.11.07-.22.13-.35.17-.13.04-.27.06-.42.06-.24,0-.44-.05-.61-.15-.17-.1-.3-.23-.4-.39-.1-.16-.18-.35-.23-.56-.05-.21-.07-.42-.07-.64,0-.25.02-.47.06-.67.04-.2.09-.37.15-.52.06-.17.13-.32.21-.45l.95.22c-.2.32-.34.62-.42.9-.08.27-.13.54-.13.8,0,.11.01.22.04.34.03.12.08.23.14.33.06.1.15.19.25.25.1.07.23.1.38.1.13,0,.24-.03.34-.1.1-.07.19-.15.26-.26.08-.11.14-.23.19-.36.05-.13.1-.26.13-.39,0-.13,0-.26,0-.4,0-.14,0-.29,0-.43,0-.14-.01-.29-.03-.42-.01-.14-.03-.26-.05-.38l.96-.03h0ZM81.17,65.22c0-.08-.03-.16-.08-.24-.05-.08-.12-.15-.21-.21-.08-.06-.18-.11-.28-.14-.1-.04-.2-.05-.3-.05-.2,0-.36.04-.5.12-.14.08-.26.18-.34.31-.09.13-.16.27-.2.43-.04.16-.06.32-.06.47,0,.14.02.29.05.44.03.15.09.29.16.41.07.13.17.23.3.31.12.08.28.12.47.12.14,0,.27-.03.38-.09.11-.06.2-.14.28-.23.08-.09.14-.2.19-.32.05-.12.09-.23.11-.35,0-.16.01-.33.02-.49,0-.17.01-.33.01-.49h0ZM82.01,62.67l-.14,4.79-.66-.02-.03-.59c-.05.11-.11.2-.19.28-.08.08-.17.15-.27.21s-.21.1-.33.13c-.12.03-.25.04-.38.04-.26,0-.49-.04-.7-.12-.21-.08-.39-.19-.54-.33-.15-.14-.26-.31-.35-.51-.08-.2-.12-.41-.12-.64,0-.25.04-.48.13-.69.09-.21.21-.39.37-.54.16-.15.35-.27.58-.35.23-.08.48-.12.75-.11.08,0,.16,0,.25.02s.17.03.25.05c.08.02.16.06.23.09.07.04.14.08.21.14l-.07-1.91,1,.05h0ZM83.78,64.11l-.05.86c.06-.11.13-.21.22-.31.08-.1.17-.2.27-.29.1-.09.2-.17.31-.24.11-.07.22-.14.34-.18v1.1s-.11-.09-.17-.11c-.06-.02-.13-.03-.21-.03-.11,0-.21.02-.29.05-.09.03-.16.08-.22.13-.06.06-.12.12-.16.2-.05.08-.08.16-.11.24l-.1,1.78-.63.04-.21-3.19,1.02-.06h0ZM86.6,63.43c0,.08-.02.15-.05.22-.03.07-.08.13-.13.18-.06.05-.12.09-.2.13-.08.03-.16.05-.25.05s-.17-.02-.25-.05c-.08-.03-.15-.07-.2-.13-.06-.05-.1-.11-.14-.18-.03-.07-.05-.15-.05-.22s.02-.16.05-.23c.03-.07.08-.13.14-.19s.12-.09.2-.13c.08-.03.16-.05.25-.05s.17.02.25.05c.08.03.14.07.2.13.06.05.1.12.13.19.03.07.05.15.05.23ZM86.48,64.34l-.27,3.18-.69-.07-.04-3.16,1.01.05ZM88.19,64.16l-.04.6c.06-.11.14-.21.23-.3.09-.09.18-.17.29-.24.11-.07.23-.11.35-.14.13-.03.26-.04.41-.02.23.03.42.09.58.19.16.1.28.22.38.37.1.15.17.32.21.52.04.2.06.42.06.65,0,.13-.01.27-.04.41-.02.14-.06.29-.1.43-.04.14-.09.28-.14.42-.05.14-.1.26-.16.38l-.88-.08s.02-.03.05-.08c.03-.05.06-.12.09-.2.04-.09.07-.19.11-.3.04-.12.08-.24.11-.38.04-.13.06-.28.09-.42.02-.15.03-.3.03-.45,0-.17-.02-.31-.05-.44-.03-.13-.08-.24-.14-.32-.07-.09-.15-.16-.25-.2-.1-.05-.23-.07-.37-.07-.13,0-.24.03-.34.09-.1.06-.18.14-.26.24-.07.1-.14.21-.19.34-.05.12-.1.25-.13.37l-.09,1.78-.66.05-.14-3.13.98-.07h0ZM92.44,62.57l-.23,3.28c.17-.09.33-.19.49-.32.15-.12.29-.26.41-.41.12-.15.22-.31.31-.48.09-.17.15-.34.18-.52l1.12.21c-.17.23-.38.45-.63.66-.25.21-.52.39-.81.56.17.1.33.22.49.36.16.14.31.3.45.47.14.17.26.34.37.52.11.18.19.35.26.52l-1.09.18c0-.15-.02-.31-.07-.48-.04-.17-.1-.33-.17-.5-.07-.16-.16-.32-.26-.48-.1-.15-.2-.29-.31-.41-.12.06-.24.11-.36.16-.12.05-.24.09-.36.13l-.09,1.41-.61.05-.18-4.82,1.12-.09h0Z"/><path d="M97.3,14.03c.45,0,.9.12,1.33.35.43.23.77.57,1.01,1,.24.43.36.89.36,1.36s-.12.91-.36,1.34c-.24.43-.57.76-1,1-.43.24-.88.36-1.34.36s-.92-.12-1.35-.36c-.43-.24-.76-.57-1-1-.24-.43-.36-.88-.36-1.34s.12-.92.36-1.36c.24-.43.58-.77,1.01-1,.43-.23.88-.35,1.33-.35h0ZM97.3,14.48c-.38,0-.75.1-1.11.29-.36.19-.64.47-.84.84-.2.36-.3.74-.3,1.13s.1.76.3,1.12.48.64.84.84c.36.2.73.3,1.12.3s.76-.1,1.12-.3c.36-.2.64-.48.84-.84.2-.36.3-.73.3-1.12s-.1-.77-.3-1.13c-.2-.36-.48-.64-.84-.84s-.73-.29-1.11-.29h0ZM96.11,18.22v-2.9h1c.34,0,.59.03.74.08.15.05.28.15.37.28.09.13.14.28.14.43,0,.21-.08.4-.23.55-.15.16-.35.25-.61.27.1.04.19.09.25.15.12.11.26.31.43.58l.35.57h-.57l-.26-.46c-.2-.36-.37-.59-.49-.68-.09-.07-.21-.1-.38-.1h-.28v1.23h-.47ZM96.58,16.59h.57c.27,0,.46-.04.56-.12.1-.08.15-.19.15-.32,0-.09-.02-.16-.07-.23-.05-.07-.11-.12-.2-.15-.09-.03-.24-.05-.47-.05h-.53v.87h0Z"/></g></g></svg>