<?xml version="1.0" encoding="UTF-8"?><svg id="a" xmlns="http://www.w3.org/2000/svg" xmlns:xlink="http://www.w3.org/1999/xlink" viewBox="0 0 100 33.29"><defs><style>.e{fill:url(#c);}.f{fill:url(#d);}.g{fill:#e32b2d;}.h{fill:url(#b);}</style><linearGradient id="b" x1="-2207.73" y1="-1637.83" x2="-2207.73" y2="-1663.16" gradientTransform="translate(2218.85 1663.16)" gradientUnits="userSpaceOnUse"><stop offset="0" stop-color="#e32b2d"/><stop offset=".2" stop-color="#dc2a2c"/><stop offset=".49" stop-color="#ca292a"/><stop offset=".81" stop-color="#ac2727"/><stop offset="1" stop-color="#992625"/></linearGradient><linearGradient id="c" x1="-2178.76" y1="-1637.83" x2="-2178.76" y2="-1663.16" gradientTransform="translate(2218.85 1663.16)" gradientUnits="userSpaceOnUse"><stop offset="0" stop-color="#0d6334"/><stop offset="1" stop-color="#118945"/></linearGradient><linearGradient id="d" x1="-2193.72" y1="-1637.83" x2="-2193.72" y2="-1663.16" gradientTransform="translate(2218.85 1663.16)" gradientUnits="userSpaceOnUse"><stop offset="0" stop-color="#11713d"/><stop offset=".77" stop-color="#e32b2d"/><stop offset="1" stop-color="#e32b2d"/></linearGradient></defs><path class="g" d="M67.25,6.44h5.04c.38,2.24.64,4.51,1.02,6.76.02,0,.05,0,.07,0,.29-2.25.59-4.5.89-6.76,1.71,0,3.38,0,5.06,0,.06.23.09,14.23.03,14.81-.23.07-3,.08-3.39,0,0-1.61,0-3.22,0-4.84,0-1.61,0-3.23-.04-4.84-.28,1.61-.49,3.23-.71,4.84-.22,1.62-.44,3.24-.67,4.87-.82,0-1.61,0-2.43,0-.47-3.16-.93-6.32-1.4-9.48-.03,0-.06,0-.09,0,0,3.14,0,6.29,0,9.42-.27.07-2.8.1-3.37.04-.07-.22-.09-14.46-.02-14.84Z"/><path class="g" d="M3.63,30.43c.07-.13.11-.23.17-.31.28-.36.54-.75.86-1.08,1.49-1.52,3.29-2.49,5.4-2.85.94-.16,1.88-.14,2.83-.06,2.37.21,4.6.94,6.78,1.83,1.67.67,3.36,1.25,5.12,1.65,1.82.41,3.66.65,5.53.65,3.47,0,6.67-.97,9.59-2.84.33-.21.63-.45.95-.68.06-.04.11-.08.17-.12.02.01.03.03.05.04-.07.08-.14.16-.21.24-2.32,2.51-5.13,4.25-8.37,5.3-1.4.45-2.84.73-4.31.9-1.52.17-3.04.22-4.56.16-2.2-.09-4.37-.39-6.51-.9-1.33-.31-2.65-.65-3.98-.93-1.2-.25-2.41-.45-3.63-.62-1.41-.19-2.84-.34-4.26-.48-.52-.05-1.04-.07-1.61.1Z"/><path class="g" d="M90.61,21.29c-1.35,0-2.67,0-4.03,0-.53-2.06-1.03-4.13-1.56-6.19-.02,0-.05,0-.07.01,0,2.05,0,4.09,0,6.13-.24.08-3.5.1-3.9.02,0-4.93,0-9.86,0-14.82h3.88c0,1.87,0,3.74,0,5.6.02,0,.05,0,.07.01.23-.6.39-1.22.58-1.84.2-.63.39-1.27.58-1.9.19-.62.38-1.24.58-1.88,1.21,0,2.42,0,3.66,0-.04.12-.06.24-.1.36-.68,2.01-1.35,4.02-2.04,6.03-.08.22-.08.42,0,.64.77,2.5,1.53,5,2.29,7.5.03.1.05.2.08.32Z"/><path class="g" d="M100,13.86c0,.97.01,1.93,0,2.9,0,.47-.04.95-.1,1.41-.13,1.06-.68,1.86-1.58,2.42-.64.41-1.36.61-2.11.67-.89.08-1.78.04-2.65-.24-1.2-.38-2.05-1.13-2.43-2.35-.1-.32-.14-.66-.16-.99-.04-.66-.06-1.32-.07-1.98,0-1.44,0-2.88,0-4.32,0-.58.04-1.16.1-1.73.11-1.16.72-2.02,1.71-2.61.48-.29,1.01-.45,1.57-.54,1.1-.17,2.18-.14,3.23.23,1.21.43,2.04,1.25,2.33,2.52.12.54.14,1.1.15,1.66.02.98,0,1.95,0,2.93h0ZM96.06,13.83s.02,0,.03,0c0-1.13,0-2.27,0-3.4,0-.4-.03-.8-.09-1.19-.05-.34-.36-.49-.69-.4-.22.06-.38.2-.41.43-.04.33-.08.67-.08,1,0,1.69,0,3.38,0,5.07,0,.83,0,1.66.01,2.49,0,.22.03.44.06.66.05.3.23.42.53.43.3,0,.5-.12.56-.4.05-.21.08-.44.08-.65,0-1.34,0-2.69,0-4.03Z"/><path class="g" d="M48.28,6.43c1.92,0,3.79,0,5.69,0,.75,4.94,1.5,9.88,2.25,14.84-1.34,0-2.66,0-4,0-.07-.88-.15-1.74-.22-2.62-.48,0-.94,0-1.44,0-.08.87-.16,1.74-.24,2.63-1.35,0-2.68,0-4.05,0,.67-4.96,1.34-9.89,2.01-14.85ZM51.89,15.99c-.2-2.04-.39-4.05-.58-6.07-.34,2.01-.62,4.02-.79,6.07h1.37Z"/><path class="g" d="M66.49,21.28c-1.36,0-2.66,0-4,0-.07-.88-.15-1.74-.22-2.63-.48,0-.94,0-1.44,0-.08.87-.16,1.74-.25,2.63-1.35,0-2.67,0-3.98,0-.09-.21,1.89-14.39,1.97-14.84,1.87,0,3.75,0,5.67,0,.75,4.93,1.5,9.87,2.25,14.84ZM61.57,9.97c-.2.65-.25,1.33-.34,1.99-.1.66-.18,1.33-.25,2-.07.67-.17,1.34-.19,2.03.47,0,.91,0,1.36,0-.19-2.02-.39-4.02-.58-6.03Z"/><path class="h" d="M0,25.33h9.1c3.31-.99,4.39-4.97,5.48-8.94l2.37-8.49C18.15,2.83,19.86-.02,22.23,0h-9.98c-2.61.4-4.22,3.44-5.25,8.03l-1.74,7.35c-1.69,6.68-3.25,9.23-5.25,9.95Z"/><path class="e" d="M28.97,25.33h9.1c3.31-.99,4.39-4.97,5.48-8.94l2.37-8.49C47.12,2.83,48.84-.02,51.2,0h-9.98c-2.61.4-4.22,3.44-5.25,8.03l-1.74,7.35c-1.69,6.68-3.25,9.23-5.25,9.95Z"/><path class="f" d="M36.24,25.33h-9.1c-3.31-.99-4.39-4.97-5.48-8.94l-2.37-8.49C18.09,2.83,16.38-.02,14.01,0h9.98c2.61.4,4.22,3.44,5.25,8.03l1.74,7.35c1.69,6.68,3.25,9.23,5.25,9.95Z"/></svg>