<?xml version="1.0" encoding="UTF-8"?><svg id="a" xmlns="http://www.w3.org/2000/svg" xmlns:xlink="http://www.w3.org/1999/xlink" viewBox="0 0 198.07 33.32"><defs><style>.aa{clip-path:url(#i);}.ab{clip-path:url(#k);}.ac{fill:url(#w);}.ad{fill:url(#t);}.ae{clip-path:url(#f);}.af{fill:url(#d);}.ag{fill:url(#l);}.ah{fill:url(#h);}.ai{fill:url(#o);}.aj{fill:url(#j);}.ak{fill:none;}.al{fill:url(#g);}.am{fill:url(#z);}.an{fill:url(#q);}.ao{fill:url(#m);}.ap{fill:url(#e);}.aq{fill:url(#v);}.ar{fill:url(#x);}.as{fill:url(#p);}.at{fill:url(#y);}.au{fill:#58595b;}.av{fill:url(#b);}.aw{fill:url(#r);}.ax{fill:#5a5b5c;}.ay{fill:url(#n);}.az{fill:url(#u);}.ba{clip-path:url(#c);}.bb{fill:url(#s);}</style><linearGradient id="b" x1="2356.77" y1="6.71" x2="2376.82" y2="6.71" gradientTransform="translate(2376.82) rotate(-180) scale(1 -1)" gradientUnits="userSpaceOnUse"><stop offset="0" stop-color="#2e3191"/><stop offset="1" stop-color="#00adee"/></linearGradient><clipPath id="c"><path class="av" d="M4.64,12.93H0C0,12.82,0,12.71,0,12.61,0,5.92,5.68.49,12.7.49c2.74,0,5.28.83,7.35,2.24-1.41-.76-2.99-1.19-4.65-1.19-5.73,0-10.42,5.03-10.76,11.38Z"/></clipPath><linearGradient id="d" x1="2374.42" y1="17.16" x2="2363.21" y2="5.58" xlink:href="#b"/><linearGradient id="e" x1="2346.69" y1="6.99" x2="2363.95" y2="6.99" gradientTransform="translate(2376.82) rotate(-180) scale(1 -1)" gradientUnits="userSpaceOnUse"><stop offset="0" stop-color="#000"/><stop offset="1" stop-color="#fff"/></linearGradient><clipPath id="f"><path class="ap" d="M30.13,10.61S21.25-3,12.86,7.1c0,0,6.62-6.64,13.83,3.51h3.44Z"/></clipPath><linearGradient id="g" x1="2348.11" y1="8" x2="2365.38" y2="8" gradientTransform="translate(2376.82) rotate(-180) scale(1 -1)" gradientUnits="userSpaceOnUse"><stop offset="0" stop-color="#fff"/><stop offset="1" stop-color="#000"/></linearGradient><linearGradient id="h" x1="3.97" y1="27.15" x2="31.67" y2="27.15" gradientTransform="matrix(1,0,0,1,0,0)" xlink:href="#b"/><clipPath id="i"><path class="ak" d="M26.23,20.98h5.44s-9.09,17.66-23.12,10.74c0,0-2.66-1.23-4.58-4.57,0,0,10.57,10.76,22.26-6.17Z"/></clipPath><linearGradient id="j" x1="2.16" y1="25.07" x2="29.86" y2="25.07" gradientUnits="userSpaceOnUse"><stop offset="0" stop-color="#00adee"/><stop offset="1" stop-color="#2e3191"/></linearGradient><clipPath id="k"><path class="ax" d="M0,20.44h3.37s2.26,8.07,10.1,5.61C13.47,26.05,3.89,31.55,0,20.44Z"/></clipPath><linearGradient id="l" x1="1.76" y1="23.38" x2="15.23" y2="23.38" gradientTransform="matrix(1,0,0,1,0,0)" xlink:href="#g"/><linearGradient id="m" x1="8.95" y1="22.84" x2="8.95" y2="11.11" gradientUnits="userSpaceOnUse"><stop offset="0" stop-color="#00adee"/><stop offset=".14" stop-color="#0d87d2"/><stop offset=".29" stop-color="#1968ba"/><stop offset=".45" stop-color="#2250a8"/><stop offset=".61" stop-color="#283e9b"/><stop offset=".79" stop-color="#2c3493"/><stop offset="1" stop-color="#2e3191"/></linearGradient><linearGradient id="n" x1="2505.27" y1="-75.45" x2="2505.27" y2="-85.76" gradientTransform="translate(-2483.61 96.65)" xlink:href="#m"/><linearGradient id="o" x1="15.3" y1="10.37" x2="15.3" y2="41.06" xlink:href="#m"/><linearGradient id="p" x1="41.83" y1="19.35" x2="41.83" y2="-4.72" xlink:href="#m"/><linearGradient id="q" x1="58.85" y1="19.35" x2="58.85" y2="-4.72" xlink:href="#m"/><linearGradient id="r" x1="76" y1="19.35" x2="76" y2="-4.72" xlink:href="#m"/><linearGradient id="s" x1="91.29" y1="19.35" x2="91.29" y2="-4.72" xlink:href="#m"/><linearGradient id="t" x1="105.44" y1="19.35" x2="105.44" y2="-4.72" xlink:href="#m"/><linearGradient id="u" x1="127.08" y1="19.35" x2="127.08" y2="-4.72" xlink:href="#m"/><linearGradient id="v" x1="144.07" y1="19.35" x2="144.07" y2="-4.72" xlink:href="#m"/><linearGradient id="w" x1="160.86" y1="19.35" x2="160.86" y2="-4.72" xlink:href="#m"/><linearGradient id="x" x1="176.48" y1="19.35" x2="176.48" y2="-4.72" xlink:href="#m"/><linearGradient id="y" x1="191.92" y1="19.35" x2="191.92" y2="-4.72" xlink:href="#m"/><linearGradient id="z" x1="115.79" y1="3.25" x2="115.79" y2="37.43" xlink:href="#m"/></defs><path class="av" d="M4.64,12.93H0C0,12.82,0,12.71,0,12.61,0,5.92,5.68.49,12.7.49c2.74,0,5.28.83,7.35,2.24-1.41-.76-2.99-1.19-4.65-1.19-5.73,0-10.42,5.03-10.76,11.38Z"/><g class="ba"><path class="af" d="M7.52,13.93H2.89c0-.11,0-.21,0-.32,0-6.69,5.68-12.12,12.7-12.12,2.74,0,5.28.83,7.35,2.24-1.41-.76-2.99-1.19-4.65-1.19-5.73,0-10.42,5.03-10.76,11.38Z"/></g><path class="ap" d="M30.13,10.61S21.25-3,12.86,7.1c0,0,6.62-6.64,13.83,3.51h3.44Z"/><g class="ae"><path class="al" d="M28.71,11.62S19.83-1.99,11.44,8.11c0,0,6.62-6.64,13.83,3.51h3.44Z"/></g><path class="ah" d="M26.23,20.98h5.44s-9.09,17.66-23.12,10.74c0,0-2.66-1.23-4.58-4.57,0,0,10.57,10.76,22.26-6.17Z"/><g class="aa"><path class="aj" d="M24.41,18.9h5.44s-9.09,17.66-23.12,10.74c0,0-2.66-1.23-4.58-4.57,0,0,10.57,10.76,22.26-6.17Z"/></g><path class="ax" d="M0,20.44h3.37s2.26,8.07,10.1,5.61C13.47,26.05,3.89,31.55,0,20.44Z"/><g class="ab"><path class="ag" d="M1.76,19.9h3.37s2.26,8.07,10.1,5.61c0,0-9.58,5.5-13.47-5.61Z"/></g><path class="ao" d="M9.68,9.2h0c.76,0,1.37.62,1.37,1.37v12.82h-4.23v-11.34c0-1.57,1.28-2.85,2.85-2.85Z"/><path class="ay" d="M20.92,9.2h1.48c.76,0,1.37.62,1.37,1.37v11.11h-4.23v-11.11c0-.76.62-1.37,1.37-1.37Z" transform="translate(43.33 30.88) rotate(180)"/><path class="ai" d="M6.83,16.5s1.89-3.02,4.06-1.48c1.8,1.27,7.01,6.17,8.75,7.82.38.36.86.58,1.37.64h0c1.47.17,2.77-.98,2.77-2.46v-.24s0-4.72,0-4.72c0,0-1,1.82-2.14,1.94-1.24.12-2.28-.88-2.52-1.14-.05-.05-.09-.09-.14-.14l-8.24-7.1c-.38-.33-.84-.56-1.34-.67h0c-1.31-.29-2.56.7-2.56,2.04v5.53Z"/><path class="as" d="M35.42,16.36V.27h3.17l6.61,10.74V.27h3.03v16.08h-3.27l-6.51-10.49v10.49h-3.03Z"/><path class="an" d="M51.02,8.41c0-1.64.25-3.01.74-4.12.37-.82.87-1.55,1.5-2.21s1.33-1.13,2.09-1.45c1.01-.42,2.17-.64,3.48-.64,2.38,0,4.28.74,5.71,2.21,1.43,1.47,2.14,3.51,2.14,6.13s-.71,4.63-2.13,6.09c-1.42,1.47-3.31,2.2-5.68,2.2s-4.31-.73-5.73-2.19c-1.42-1.46-2.13-3.47-2.13-6.03ZM54.38,8.31c0,1.82.42,3.2,1.27,4.14.84.94,1.92,1.41,3.22,1.41s2.37-.47,3.2-1.4c.83-.93,1.25-2.33,1.25-4.2s-.41-3.22-1.22-4.12c-.81-.91-1.89-1.36-3.23-1.36s-2.43.46-3.25,1.38-1.23,2.3-1.23,4.15Z"/><path class="aw" d="M69.24.27h6.45c1.28,0,2.23.05,2.86.16.63.11,1.19.33,1.69.66.5.34.91.78,1.24,1.34s.5,1.19.5,1.88c0,.75-.2,1.44-.61,2.07-.41.63-.96,1.1-1.66,1.42.98.29,1.74.77,2.27,1.46.53.69.79,1.5.79,2.42,0,.73-.17,1.44-.51,2.13-.34.69-.81,1.24-1.4,1.66-.59.41-1.32.67-2.19.76-.54.06-1.85.1-3.93.11h-5.5V.27ZM72.5,2.95v3.72h2.14c1.27,0,2.06-.02,2.37-.05.56-.07,1-.26,1.32-.58.32-.32.48-.74.48-1.26s-.14-.9-.41-1.21c-.28-.31-.68-.5-1.23-.56-.32-.04-1.25-.05-2.79-.05h-1.87ZM72.5,9.35v4.3h3.02c1.17,0,1.92-.03,2.24-.1.48-.09.88-.3,1.18-.64s.46-.8.46-1.37c0-.48-.12-.89-.35-1.23-.24-.34-.57-.58-1.02-.74-.44-.15-1.41-.23-2.89-.23h-2.63Z"/><path class="bb" d="M85.61,16.36V.41h3.26v13.24h8.11v2.71h-11.37Z"/><path class="ad" d="M99.3,16.36V.27h11.97v2.72h-8.71v3.57h8.11v2.71h-8.11v4.38h9.02v2.71h-12.28Z"/><path class="az" d="M120.62,16.36V.27h3.26v6.33h6.39V.27h3.26v16.08h-3.26v-7.03h-6.39v7.03h-3.26Z"/><path class="aq" d="M136.24,8.41c0-1.64.25-3.01.74-4.12.37-.82.87-1.55,1.5-2.21s1.33-1.13,2.09-1.45c1.01-.42,2.17-.64,3.48-.64,2.38,0,4.28.74,5.71,2.21,1.43,1.47,2.14,3.51,2.14,6.13s-.71,4.63-2.13,6.09c-1.42,1.47-3.31,2.2-5.68,2.2s-4.31-.73-5.73-2.19c-1.42-1.46-2.13-3.47-2.13-6.03ZM139.6,8.31c0,1.82.42,3.2,1.27,4.14.84.94,1.92,1.41,3.22,1.41s2.37-.47,3.2-1.4c.83-.93,1.25-2.33,1.25-4.2s-.41-3.22-1.22-4.12c-.81-.91-1.89-1.36-3.23-1.36s-2.43.46-3.25,1.38-1.23,2.3-1.23,4.15Z"/><path class="ac" d="M154.43.27h3.26v8.71c0,1.38.04,2.28.12,2.69.14.66.47,1.19,1,1.59.52.4,1.24.6,2.15.6s1.62-.19,2.09-.56c.47-.38.75-.84.85-1.39.1-.55.14-1.46.14-2.73V.27h3.26v8.45c0,1.93-.09,3.3-.26,4.09s-.5,1.47-.97,2.02c-.47.55-1.11.99-1.9,1.31-.79.33-1.83.49-3.11.49-1.54,0-2.71-.18-3.51-.53-.8-.35-1.43-.82-1.89-1.38-.46-.57-.77-1.16-.91-1.78-.21-.92-.32-2.28-.32-4.08V.27Z"/><path class="ar" d="M169.91,11.12l3.17-.31c.19,1.06.58,1.84,1.16,2.34.58.5,1.37.75,2.36.75,1.05,0,1.84-.22,2.37-.66.53-.44.8-.96.8-1.55,0-.38-.11-.7-.34-.97-.22-.27-.62-.5-1.17-.7-.38-.13-1.25-.37-2.61-.7-1.75-.43-2.97-.96-3.68-1.59-.99-.88-1.49-1.96-1.49-3.24,0-.82.23-1.59.7-2.3s1.14-1.26,2.02-1.63c.88-.37,1.94-.56,3.18-.56,2.03,0,3.55.44,4.58,1.33,1.02.89,1.56,2.07,1.61,3.54l-3.26.14c-.14-.83-.44-1.42-.9-1.78-.46-.36-1.15-.54-2.07-.54s-1.69.19-2.22.58c-.35.25-.52.58-.52,1,0,.38.16.71.48.98.41.34,1.41.7,3,1.07,1.59.37,2.76.76,3.52,1.16.76.4,1.36.94,1.78,1.63.43.69.64,1.55.64,2.56,0,.92-.26,1.78-.77,2.59-.51.8-1.24,1.4-2.18,1.79s-2.11.59-3.51.59c-2.04,0-3.61-.47-4.7-1.41-1.09-.94-1.75-2.31-1.96-4.11Z"/><path class="at" d="M185.78,16.36V.27h11.97v2.72h-8.71v3.57h8.11v2.71h-8.11v4.38h9.02v2.71h-12.28Z"/><path class="au" d="M50.16,29.24v-1.03h3.73s0,3.25,0,3.25c-.57.45-1.16.8-1.77,1.02-.61.23-1.23.34-1.87.34-.86,0-1.65-.18-2.36-.55-.71-.37-1.24-.9-1.6-1.6-.36-.7-.54-1.48-.54-2.34s.18-1.65.54-2.39c.36-.74.87-1.29,1.55-1.65s1.45-.54,2.32-.54c.64,0,1.21.1,1.73.31.51.21.92.49,1.21.86s.51.84.67,1.43l-1.05.29c-.13-.45-.3-.8-.49-1.05-.2-.25-.48-.46-.84-.61-.36-.15-.77-.23-1.21-.23-.53,0-.99.08-1.38.24-.39.16-.7.37-.94.64-.24.26-.42.55-.56.87-.22.54-.34,1.13-.34,1.76,0,.78.14,1.43.41,1.96.27.53.66.92,1.18,1.17.52.26,1.06.38,1.64.38.5,0,1-.1,1.48-.29s.84-.4,1.09-.62v-1.63h-2.59Z"/><path class="au" d="M55.63,32.68v-8.76h6.36v1.03h-5.2v2.68h4.87v1.03h-4.87v2.98h5.4v1.03h-6.57Z"/><path class="au" d="M63.79,32.68v-8.76h1.19l4.62,6.88v-6.88h1.12v8.76h-1.19l-4.62-6.89v6.89h-1.12Z"/><path class="au" d="M72.7,32.68v-8.76h6.36v1.03h-5.2v2.68h4.87v1.03h-4.87v2.98h5.4v1.03h-6.57Z"/><path class="au" d="M80.89,32.68v-8.76h3.9c.78,0,1.38.08,1.79.24.41.16.73.44.98.83.24.4.37.84.37,1.32,0,.62-.2,1.15-.61,1.57-.4.43-1.03.7-1.87.81.31.15.54.29.7.44.34.31.66.7.97,1.17l1.53,2.38h-1.46l-1.16-1.82c-.34-.53-.62-.93-.84-1.21-.22-.28-.42-.47-.59-.59s-.35-.19-.53-.23c-.13-.03-.35-.04-.65-.04h-1.35v3.89h-1.16ZM82.06,27.79h2.5c.53,0,.95-.05,1.25-.16.3-.11.53-.28.68-.53s.23-.5.23-.79c0-.41-.15-.76-.45-1.02-.3-.27-.78-.4-1.43-.4h-2.78v2.9Z"/><path class="au" d="M88.79,32.68l3.38-8.76h1.25l3.6,8.76h-1.33l-1.03-2.65h-3.68l-.97,2.65h-1.24ZM91.32,29.08h2.98l-.92-2.43c-.28-.74-.49-1.34-.62-1.82-.11.56-.27,1.12-.47,1.67l-.97,2.57Z"/><path class="au" d="M97.9,32.68v-8.76h1.16v7.73h4.33v1.03h-5.5Z"/><path class="au" d="M109.76,32.68v-7.73h-2.9v-1.03h6.97v1.03h-2.91v7.73h-1.16Z"/><path class="au" d="M115.05,32.68v-8.76h3.9c.78,0,1.38.08,1.79.24.41.16.73.44.98.83.24.4.37.84.37,1.32,0,.62-.2,1.15-.61,1.57-.4.43-1.03.7-1.87.81.31.15.54.29.7.44.34.31.66.7.97,1.17l1.53,2.38h-1.46l-1.16-1.82c-.34-.53-.62-.93-.84-1.21-.22-.28-.42-.47-.59-.59s-.35-.19-.53-.23c-.13-.03-.35-.04-.65-.04h-1.35v3.89h-1.16ZM116.21,27.79h2.5c.53,0,.95-.05,1.25-.16.3-.11.53-.28.68-.53s.23-.5.23-.79c0-.41-.15-.76-.45-1.02-.3-.27-.78-.4-1.43-.4h-2.78v2.9Z"/><path class="au" d="M122.94,32.68l3.38-8.76h1.25l3.6,8.76h-1.33l-1.03-2.65h-3.68l-.97,2.65h-1.24ZM125.48,29.08h2.98l-.92-2.43c-.28-.74-.49-1.34-.62-1.82-.11.56-.27,1.12-.47,1.67l-.97,2.57Z"/><path class="au" d="M132.1,32.68v-8.76h3.03c.68,0,1.21.04,1.57.13.5.12.93.32,1.29.63.46.39.81.89,1.04,1.5.23.61.34,1.3.34,2.08,0,.67-.08,1.26-.23,1.77-.16.51-.36.94-.6,1.28-.24.34-.51.6-.8.8s-.64.34-1.05.44c-.41.1-.88.15-1.41.15h-3.17ZM133.27,31.65h1.88c.58,0,1.03-.05,1.37-.16.33-.11.59-.26.79-.45.28-.28.49-.64.65-1.11.15-.46.23-1.03.23-1.69,0-.92-.15-1.62-.45-2.11s-.67-.82-1.1-.99c-.31-.12-.81-.18-1.51-.18h-1.85v6.69Z"/><path class="au" d="M141.18,32.68v-8.76h1.16v8.76h-1.16Z"/><path class="au" d="M144.38,32.68v-8.76h1.19l4.62,6.88v-6.88h1.12v8.76h-1.19l-4.62-6.89v6.89h-1.12Z"/><path class="au" d="M157.39,29.24v-1.03h3.73s0,3.25,0,3.25c-.57.45-1.16.8-1.77,1.02-.61.23-1.23.34-1.87.34-.86,0-1.65-.18-2.36-.55-.71-.37-1.24-.9-1.6-1.6-.36-.7-.54-1.48-.54-2.34s.18-1.65.54-2.39c.36-.74.87-1.29,1.55-1.65s1.45-.54,2.32-.54c.64,0,1.21.1,1.73.31.51.21.92.49,1.21.86s.51.84.67,1.43l-1.05.29c-.13-.45-.3-.8-.49-1.05-.2-.25-.48-.46-.84-.61-.36-.15-.77-.23-1.21-.23-.53,0-.99.08-1.38.24-.39.16-.7.37-.94.64-.24.26-.42.55-.56.87-.22.54-.34,1.13-.34,1.76,0,.78.14,1.43.41,1.96.27.53.66.92,1.18,1.17.52.26,1.06.38,1.64.38.5,0,1-.1,1.48-.29s.84-.4,1.09-.62v-1.63h-2.59Z"/><path class="au" d="M166.2,32.68v-8.76h1.16v7.73h4.33v1.03h-5.5Z"/><path class="au" d="M173.03,32.68v-8.76h1.16v7.73h4.33v1.03h-5.5Z"/><path class="au" d="M186.19,29.61l1.16.29c-.24.95-.68,1.68-1.32,2.18-.63.5-1.41.75-2.33.75s-1.72-.19-2.31-.58c-.59-.38-1.05-.94-1.36-1.67-.31-.73-.47-1.51-.47-2.35,0-.91.17-1.71.52-2.39.35-.68.85-1.2,1.49-1.55.65-.35,1.36-.53,2.13-.53.88,0,1.62.22,2.22.67.6.45,1.02,1.07,1.25,1.88l-1.15.27c-.2-.64-.5-1.1-.89-1.39-.39-.29-.88-.44-1.46-.44-.68,0-1.24.16-1.7.48s-.77.76-.96,1.3c-.18.54-.28,1.11-.28,1.68,0,.75.11,1.4.33,1.95.22.56.56.97,1.02,1.25.46.28.96.41,1.49.41.65,0,1.2-.19,1.66-.56.45-.37.76-.93.92-1.67Z"/><rect class="am" x="34.1" y="20.09" width="163.38" height=".86"/></svg>