<?xml version="1.0" encoding="UTF-8"?><svg id="a" xmlns="http://www.w3.org/2000/svg" xmlns:xlink="http://www.w3.org/1999/xlink" viewBox="0 0 60 40"><defs><style>.z{fill:url(#k);}.aa{fill:url(#w);}.ab{fill:url(#t);}.ac{clip-path:url(#m);}.ad{fill:url(#c);}.ae{fill:url(#d);}.af{fill:url(#l);}.ag{fill:url(#h);}.ah{fill:url(#o);}.ai{fill:url(#j);}.aj{fill:none;}.ak{fill:url(#g);}.al{fill:url(#q);}.am{clip-path:url(#p);}.an{fill:url(#e);}.ao{fill:url(#i);}.ap{fill:url(#f);}.aq{fill:url(#v);}.ar{clip-path:url(#s);}.as{fill:url(#x);}.at{fill:url(#y);}.au{fill:url(#b);}.av{fill:url(#r);}.aw{fill:#5a5b5c;}.ax{fill:url(#n);}.ay{clip-path:url(#u);}</style><linearGradient id="b" x1="2.36" y1="41" x2="2.36" y2="32.12" gradientUnits="userSpaceOnUse"><stop offset="0" stop-color="#00adee"/><stop offset=".14" stop-color="#0d87d2"/><stop offset=".29" stop-color="#1968ba"/><stop offset=".45" stop-color="#2250a8"/><stop offset=".61" stop-color="#283e9b"/><stop offset=".79" stop-color="#2c3493"/><stop offset="1" stop-color="#2e3191"/></linearGradient><linearGradient id="c" x1="8.64" y1="41" x2="8.64" y2="32.12" xlink:href="#b"/><linearGradient id="d" x1="14.97" y1="41" x2="14.97" y2="32.12" xlink:href="#b"/><linearGradient id="e" x1="20.61" y1="41" x2="20.61" y2="32.12" xlink:href="#b"/><linearGradient id="f" x1="25.83" y1="41" x2="25.83" y2="32.12" xlink:href="#b"/><linearGradient id="g" x1="33.81" y1="41" x2="33.81" y2="32.12" xlink:href="#b"/><linearGradient id="h" x1="40.08" y1="41" x2="40.08" y2="32.12" xlink:href="#b"/><linearGradient id="i" x1="46.28" y1="41" x2="46.28" y2="32.12" xlink:href="#b"/><linearGradient id="j" x1="52.04" y1="41" x2="52.04" y2="32.12" xlink:href="#b"/><linearGradient id="k" x1="57.73" y1="41" x2="57.73" y2="32.12" xlink:href="#b"/><linearGradient id="l" x1="2303.03" y1="5.6" x2="2321.07" y2="5.6" gradientTransform="translate(2336.82) rotate(-180) scale(1 -1)" gradientUnits="userSpaceOnUse"><stop offset="0" stop-color="#2e3191"/><stop offset="1" stop-color="#00adee"/></linearGradient><clipPath id="m"><path class="af" d="M19.92,11.19h-4.17c0-.1,0-.19,0-.29C15.75,4.88,20.87,0,27.18,0c2.47,0,4.75.75,6.62,2.02-1.27-.68-2.69-1.07-4.19-1.07-5.16,0-9.37,4.53-9.68,10.24Z"/></clipPath><linearGradient id="n" x1="2318.91" y1="15" x2="2308.82" y2="4.58" xlink:href="#l"/><linearGradient id="o" x1="2293.95" y1="5.85" x2="2309.49" y2="5.85" gradientTransform="translate(2336.82) rotate(-180) scale(1 -1)" gradientUnits="userSpaceOnUse"><stop offset="0" stop-color="#000"/><stop offset="1" stop-color="#fff"/></linearGradient><clipPath id="p"><path class="ah" d="M42.87,9.11s-7.99-12.25-15.54-3.16c0,0,5.96-5.97,12.45,3.16h3.09Z"/></clipPath><linearGradient id="q" x1="2295.24" y1="6.76" x2="2310.77" y2="6.76" gradientTransform="translate(2336.82) rotate(-180) scale(1 -1)" gradientUnits="userSpaceOnUse"><stop offset="0" stop-color="#fff"/><stop offset="1" stop-color="#000"/></linearGradient><linearGradient id="r" x1="19.32" y1="23.99" x2="44.25" y2="23.99" gradientTransform="matrix(1,0,0,1,0,0)" xlink:href="#l"/><clipPath id="s"><path class="aj" d="M39.35,18.43h4.9s-8.18,15.89-20.81,9.66c0,0-2.39-1.1-4.12-4.11,0,0,9.51,9.68,20.03-5.55Z"/></clipPath><linearGradient id="t" x1="17.69" y1="22.12" x2="42.62" y2="22.12" gradientUnits="userSpaceOnUse"><stop offset="0" stop-color="#00adee"/><stop offset="1" stop-color="#2e3191"/></linearGradient><clipPath id="u"><path class="aw" d="M15.75,17.95h3.03s2.04,7.27,9.09,5.05c0,0-8.62,4.95-12.12-5.05Z"/></clipPath><linearGradient id="v" x1="17.33" y1="20.6" x2="29.46" y2="20.6" gradientTransform="matrix(1,0,0,1,0,0)" xlink:href="#q"/><linearGradient id="w" x1="23.8" y1="20.11" x2="23.8" y2="9.56" xlink:href="#b"/><linearGradient id="x" x1="2451.69" y1="-67.85" x2="2451.69" y2="-77.13" gradientTransform="translate(-2416.45 86.48)" xlink:href="#b"/><linearGradient id="y" x1="29.52" y1="8.89" x2="29.52" y2="36.51" xlink:href="#b"/></defs><path class="au" d="M0,39.89v-5.93h1.17l2.44,3.96v-3.96h1.12v5.93h-1.21l-2.4-3.87v3.87H0Z"/><path class="ad" d="M5.75,36.96c0-.6.09-1.11.27-1.52.14-.3.32-.57.55-.81s.49-.42.77-.53c.37-.16.8-.23,1.28-.23.88,0,1.58.27,2.11.81.53.54.79,1.3.79,2.26s-.26,1.71-.78,2.25c-.52.54-1.22.81-2.1.81s-1.59-.27-2.11-.81c-.52-.54-.78-1.28-.78-2.22ZM6.99,36.92c0,.67.16,1.18.47,1.53.31.35.71.52,1.19.52s.87-.17,1.18-.52c.31-.34.46-.86.46-1.55s-.15-1.19-.45-1.52c-.3-.33-.7-.5-1.19-.5s-.9.17-1.2.51-.46.85-.46,1.53Z"/><path class="ae" d="M12.47,33.96h2.38c.47,0,.82.02,1.05.06.23.04.44.12.62.24.18.12.34.29.46.5s.18.44.18.69c0,.28-.08.53-.23.76-.15.23-.35.41-.61.52.36.11.64.28.84.54.19.25.29.55.29.89,0,.27-.06.53-.19.79-.13.26-.3.46-.52.61-.22.15-.49.25-.81.28-.2.02-.68.04-1.45.04h-2.03v-5.93ZM13.68,34.95v1.37h.79c.47,0,.76,0,.87-.02.21-.02.37-.1.49-.21.12-.12.18-.27.18-.46s-.05-.33-.15-.45c-.1-.11-.25-.18-.45-.21-.12-.01-.46-.02-1.03-.02h-.69ZM13.68,37.31v1.59h1.11c.43,0,.71-.01.82-.04.18-.03.32-.11.44-.24s.17-.29.17-.5c0-.18-.04-.33-.13-.45-.09-.12-.21-.21-.38-.27-.16-.06-.52-.08-1.07-.08h-.97Z"/><path class="an" d="M18.51,39.89v-5.88h1.2v4.89h2.99v1h-4.19Z"/><path class="ap" d="M23.56,39.89v-5.93h4.42v1h-3.21v1.32h2.99v1h-2.99v1.61h3.33v1h-4.53Z"/><path class="ak" d="M31.43,39.89v-5.93h1.2v2.34h2.36v-2.34h1.2v5.93h-1.2v-2.59h-2.36v2.59h-1.2Z"/><path class="ag" d="M37.19,36.96c0-.6.09-1.11.27-1.52.14-.3.32-.57.55-.81s.49-.42.77-.53c.37-.16.8-.23,1.28-.23.88,0,1.58.27,2.11.81.53.54.79,1.3.79,2.26s-.26,1.71-.78,2.25c-.52.54-1.22.81-2.1.81s-1.59-.27-2.11-.81c-.52-.54-.78-1.28-.78-2.22ZM38.43,36.92c0,.67.16,1.18.47,1.53.31.35.71.52,1.19.52s.87-.17,1.18-.52c.31-.34.46-.86.46-1.55s-.15-1.19-.45-1.52c-.3-.33-.7-.5-1.19-.5s-.9.17-1.2.51-.46.85-.46,1.53Z"/><path class="ao" d="M43.9,33.96h1.2v3.21c0,.51.01.84.04.99.05.24.17.44.37.58.19.15.46.22.79.22s.6-.07.77-.21c.17-.14.28-.31.31-.51.04-.2.05-.54.05-1.01v-3.28h1.2v3.12c0,.71-.03,1.22-.1,1.51s-.18.54-.36.74c-.17.2-.41.36-.7.48-.29.12-.67.18-1.15.18-.57,0-1-.07-1.29-.2-.29-.13-.53-.3-.7-.51-.17-.21-.28-.43-.34-.66-.08-.34-.12-.84-.12-1.51v-3.17Z"/><path class="ai" d="M49.61,37.96l1.17-.11c.07.39.21.68.43.86.22.18.51.28.87.28.39,0,.68-.08.88-.24.2-.16.29-.35.29-.57,0-.14-.04-.26-.12-.36-.08-.1-.23-.18-.43-.26-.14-.05-.46-.13-.96-.26-.64-.16-1.1-.35-1.36-.59-.37-.33-.55-.72-.55-1.19,0-.3.09-.58.26-.85s.42-.46.74-.6c.32-.14.71-.21,1.17-.21.75,0,1.31.16,1.69.49.38.33.58.76.6,1.31l-1.2.05c-.05-.3-.16-.52-.33-.66-.17-.13-.42-.2-.76-.2s-.62.07-.82.21c-.13.09-.19.21-.19.37,0,.14.06.26.18.36.15.13.52.26,1.11.4.59.14,1.02.28,1.3.43.28.15.5.35.66.6.16.26.24.57.24.95,0,.34-.09.66-.28.96-.19.3-.46.52-.8.66s-.78.22-1.3.22c-.75,0-1.33-.17-1.74-.52s-.64-.85-.72-1.52Z"/><path class="z" d="M55.47,39.89v-5.93h4.42v1h-3.21v1.32h2.99v1h-2.99v1.61h3.33v1h-4.53Z"/><path class="af" d="M19.92,11.19h-4.17c0-.1,0-.19,0-.29C15.75,4.88,20.87,0,27.18,0c2.47,0,4.75.75,6.62,2.02-1.27-.68-2.69-1.07-4.19-1.07-5.16,0-9.37,4.53-9.68,10.24Z"/><g class="ac"><path class="ax" d="M22.52,12.09h-4.17c0-.1,0-.19,0-.29,0-6.02,5.11-10.9,11.42-10.9,2.47,0,4.75.75,6.62,2.02-1.27-.68-2.69-1.07-4.19-1.07-5.16,0-9.37,4.53-9.68,10.24Z"/></g><path class="ah" d="M42.87,9.11s-7.99-12.25-15.54-3.16c0,0,5.96-5.97,12.45,3.16h3.09Z"/><g class="am"><path class="al" d="M41.58,10.01s-7.99-12.25-15.54-3.16c0,0,5.96-5.97,12.45,3.16h3.09Z"/></g><path class="av" d="M39.35,18.43h4.9s-8.18,15.89-20.81,9.66c0,0-2.39-1.1-4.12-4.11,0,0,9.51,9.68,20.03-5.55Z"/><g class="ar"><path class="ab" d="M37.72,16.56h4.9s-8.18,15.89-20.81,9.66c0,0-2.39-1.1-4.12-4.11,0,0,9.51,9.68,20.03-5.55Z"/></g><path class="aw" d="M15.75,17.95h3.03s2.04,7.27,9.09,5.05c0,0-8.62,4.95-12.12-5.05Z"/><g class="ay"><path class="aq" d="M17.33,17.46h3.03s2.04,7.27,9.09,5.05c0,0-8.62,4.95-12.12-5.05Z"/></g><path class="aa" d="M24.46,7.84h0c.68,0,1.24.55,1.24,1.24v11.53h-3.81v-10.21c0-1.41,1.15-2.56,2.56-2.56Z"/><path class="as" d="M34.58,7.84h1.33c.68,0,1.24.55,1.24,1.24v9.99h-3.81v-9.99c0-.68.55-1.24,1.24-1.24Z" transform="translate(70.49 26.91) rotate(180)"/><path class="at" d="M21.9,14.41s1.7-2.72,3.65-1.33c1.62,1.14,6.31,5.55,7.88,7.04.34.32.77.52,1.23.57h0c1.33.15,2.49-.89,2.49-2.22v-.22s0-4.25,0-4.25c0,0-.9,1.64-1.93,1.74-1.11.11-2.05-.8-2.27-1.02-.04-.04-.08-.08-.13-.12l-7.42-6.39c-.35-.3-.76-.51-1.2-.6h0c-1.18-.26-2.3.63-2.3,1.84v4.97Z"/></svg>