<?xml version="1.0" encoding="UTF-8"?><svg id="a" xmlns="http://www.w3.org/2000/svg" xmlns:xlink="http://www.w3.org/1999/xlink" viewBox="0 0 67.22 50"><defs><style>.aa{clip-path:url(#i);}.ab{clip-path:url(#k);}.ac{fill:url(#w);}.ad{fill:url(#t);}.ae{clip-path:url(#f);}.af{fill:url(#d);}.ag{fill:url(#l);}.ah{fill:url(#h);}.ai{fill:url(#o);}.aj{fill:url(#j);}.ak{fill:none;}.al{fill:url(#g);}.am{fill:url(#z);}.an{fill:url(#q);}.ao{fill:url(#m);}.ap{fill:url(#e);}.aq{fill:url(#v);}.ar{fill:url(#x);}.as{fill:url(#p);}.at{fill:url(#y);}.au{fill:#58595b;}.av{fill:url(#b);}.aw{fill:url(#r);}.ax{fill:#5a5b5c;}.ay{fill:url(#n);}.az{fill:url(#u);}.ba{clip-path:url(#c);}.bb{fill:url(#s);}</style><linearGradient id="b" x1="2306.21" y1="6.22" x2="2326.26" y2="6.22" gradientTransform="translate(2344.03) rotate(-180) scale(1 -1)" gradientUnits="userSpaceOnUse"><stop offset="0" stop-color="#2e3191"/><stop offset="1" stop-color="#00adee"/></linearGradient><clipPath id="c"><path class="av" d="M22.41,12.44h-4.63c0-.11,0-.21,0-.32,0-6.69,5.68-12.12,12.7-12.12,2.74,0,5.28.83,7.35,2.24-1.41-.76-2.99-1.19-4.65-1.19-5.73,0-10.42,5.03-10.76,11.38Z"/></clipPath><linearGradient id="d" x1="2323.86" y1="16.67" x2="2312.65" y2="5.09" xlink:href="#b"/><linearGradient id="e" x1="2296.13" y1="6.5" x2="2313.4" y2="6.5" gradientTransform="translate(2344.03) rotate(-180) scale(1 -1)" gradientUnits="userSpaceOnUse"><stop offset="0" stop-color="#000"/><stop offset="1" stop-color="#fff"/></linearGradient><clipPath id="f"><path class="ap" d="M47.91,10.12s-8.88-13.61-17.27-3.51c0,0,6.62-6.64,13.83,3.51h3.44Z"/></clipPath><linearGradient id="g" x1="2297.55" y1="7.51" x2="2314.82" y2="7.51" gradientTransform="translate(2344.03) rotate(-180) scale(1 -1)" gradientUnits="userSpaceOnUse"><stop offset="0" stop-color="#fff"/><stop offset="1" stop-color="#000"/></linearGradient><linearGradient id="h" x1="21.74" y1="26.66" x2="49.44" y2="26.66" gradientTransform="matrix(1,0,0,1,0,0)" xlink:href="#b"/><clipPath id="i"><path class="ak" d="M44,20.48h5.44s-9.09,17.66-23.12,10.74c0,0-2.66-1.23-4.58-4.57,0,0,10.57,10.76,22.26-6.17Z"/></clipPath><linearGradient id="j" x1="19.93" y1="24.58" x2="47.63" y2="24.58" gradientUnits="userSpaceOnUse"><stop offset="0" stop-color="#00adee"/><stop offset="1" stop-color="#2e3191"/></linearGradient><clipPath id="k"><path class="ax" d="M17.77,19.95h3.37s2.26,8.07,10.1,5.61c0,0-9.58,5.5-13.47-5.61Z"/></clipPath><linearGradient id="l" x1="19.53" y1="22.89" x2="33" y2="22.89" gradientTransform="matrix(1,0,0,1,0,0)" xlink:href="#g"/><linearGradient id="m" x1="26.72" y1="22.35" x2="26.72" y2="10.62" gradientUnits="userSpaceOnUse"><stop offset="0" stop-color="#00adee"/><stop offset=".14" stop-color="#0d87d2"/><stop offset=".29" stop-color="#1968ba"/><stop offset=".45" stop-color="#2250a8"/><stop offset=".61" stop-color="#283e9b"/><stop offset=".79" stop-color="#2c3493"/><stop offset="1" stop-color="#2e3191"/></linearGradient><linearGradient id="n" x1="2454.72" y1="-58.77" x2="2454.72" y2="-69.08" gradientTransform="translate(-2415.28 79.48)" xlink:href="#m"/><linearGradient id="o" x1="33.08" y1="9.88" x2="33.08" y2="40.57" xlink:href="#m"/><linearGradient id="p" x1="3.17" y1="44.48" x2="3.17" y2="34.6" xlink:href="#m"/><linearGradient id="q" x1="10.15" y1="44.48" x2="10.15" y2="34.6" xlink:href="#m"/><linearGradient id="r" x1="17.18" y1="44.48" x2="17.18" y2="34.6" xlink:href="#m"/><linearGradient id="s" x1="23.44" y1="44.48" x2="23.44" y2="34.6" xlink:href="#m"/><linearGradient id="t" x1="29.24" y1="44.48" x2="29.24" y2="34.6" xlink:href="#m"/><linearGradient id="u" x1="38.11" y1="44.48" x2="38.11" y2="34.6" xlink:href="#m"/><linearGradient id="v" x1="45.08" y1="44.48" x2="45.08" y2="34.6" xlink:href="#m"/><linearGradient id="w" x1="51.97" y1="44.48" x2="51.97" y2="34.6" xlink:href="#m"/><linearGradient id="x" x1="58.37" y1="44.48" x2="58.37" y2="34.6" xlink:href="#m"/><linearGradient id="y" x1="64.7" y1="44.48" x2="64.7" y2="34.6" xlink:href="#m"/><linearGradient id="z" x1="33.49" y1="37.87" x2="33.49" y2="51.88" xlink:href="#m"/></defs><path class="av" d="M22.41,12.44h-4.63c0-.11,0-.21,0-.32,0-6.69,5.68-12.12,12.7-12.12,2.74,0,5.28.83,7.35,2.24-1.41-.76-2.99-1.19-4.65-1.19-5.73,0-10.42,5.03-10.76,11.38Z"/><g class="ba"><path class="af" d="M25.3,13.44h-4.63c0-.11,0-.21,0-.32,0-6.69,5.68-12.12,12.7-12.12,2.74,0,5.28.83,7.35,2.24-1.41-.76-2.99-1.19-4.65-1.19-5.73,0-10.42,5.03-10.76,11.38Z"/></g><path class="ap" d="M47.91,10.12s-8.88-13.61-17.27-3.51c0,0,6.62-6.64,13.83,3.51h3.44Z"/><g class="ae"><path class="al" d="M46.48,11.13s-8.88-13.61-17.27-3.51c0,0,6.62-6.64,13.83,3.51h3.44Z"/></g><path class="ah" d="M44,20.48h5.44s-9.09,17.66-23.12,10.74c0,0-2.66-1.23-4.58-4.57,0,0,10.57,10.76,22.26-6.17Z"/><g class="aa"><path class="aj" d="M42.19,18.4h5.44s-9.09,17.66-23.12,10.74c0,0-2.66-1.23-4.58-4.57,0,0,10.57,10.76,22.26-6.17Z"/></g><path class="ax" d="M17.77,19.95h3.37s2.26,8.07,10.1,5.61c0,0-9.58,5.5-13.47-5.61Z"/><g class="ab"><path class="ag" d="M19.53,19.4h3.37s2.26,8.07,10.1,5.61c0,0-9.58,5.5-13.47-5.61Z"/></g><path class="ao" d="M27.45,8.71h0c.76,0,1.37.62,1.37,1.37v12.82h-4.23v-11.34c0-1.57,1.28-2.85,2.85-2.85Z"/><path class="ay" d="M38.7,8.71h1.48c.76,0,1.37.62,1.37,1.37v11.11h-4.23v-11.11c0-.76.62-1.37,1.37-1.37Z" transform="translate(78.87 29.9) rotate(180)"/><path class="ai" d="M24.6,16.01s1.89-3.02,4.06-1.48c1.8,1.27,7.01,6.17,8.75,7.82.38.36.86.58,1.37.64h0c1.47.17,2.77-.98,2.77-2.46v-.24s0-4.72,0-4.72c0,0-1,1.82-2.14,1.94-1.24.12-2.28-.88-2.52-1.14-.05-.05-.09-.09-.14-.14l-8.24-7.1c-.38-.33-.84-.56-1.34-.67h0c-1.31-.29-2.56.7-2.56,2.04v5.53Z"/><path class="as" d="M.54,43.25v-6.59h1.3l2.71,4.4v-4.4h1.24v6.59h-1.34l-2.67-4.3v4.3H.54Z"/><path class="an" d="M6.94,39.99c0-.67.1-1.24.3-1.69.15-.34.36-.64.62-.9s.55-.46.86-.59c.41-.17.89-.26,1.43-.26.98,0,1.76.3,2.34.9.59.6.88,1.44.88,2.51s-.29,1.9-.87,2.5c-.58.6-1.36.9-2.33.9s-1.77-.3-2.35-.9c-.58-.6-.87-1.42-.87-2.47ZM8.31,39.95c0,.75.17,1.31.52,1.7.35.39.79.58,1.32.58s.97-.19,1.31-.57c.34-.38.51-.96.51-1.72s-.17-1.32-.5-1.69c-.33-.37-.77-.56-1.33-.56s-.99.19-1.33.56-.51.94-.51,1.7Z"/><path class="aw" d="M14.4,36.65h2.65c.52,0,.91.02,1.17.07.26.04.49.13.69.27.2.14.37.32.51.55s.2.49.2.77c0,.31-.08.59-.25.85-.17.26-.39.45-.68.58.4.12.71.32.93.6.22.28.33.61.33.99,0,.3-.07.59-.21.87-.14.28-.33.51-.57.68-.24.17-.54.27-.9.31-.22.02-.76.04-1.61.04h-2.25v-6.59ZM15.74,37.75v1.52h.88c.52,0,.84,0,.97-.02.23-.03.41-.11.54-.24.13-.13.2-.3.2-.51s-.06-.37-.17-.5c-.11-.13-.28-.2-.5-.23-.13-.01-.51-.02-1.14-.02h-.77ZM15.74,40.37v1.76h1.24c.48,0,.79-.01.92-.04.2-.04.36-.12.49-.26s.19-.33.19-.56c0-.2-.05-.37-.14-.5-.1-.14-.24-.24-.42-.3-.18-.06-.58-.09-1.19-.09h-1.08Z"/><path class="bb" d="M21.11,43.25v-6.54h1.34v5.43h3.32v1.11h-4.66Z"/><path class="ad" d="M26.73,43.25v-6.59h4.91v1.12h-3.57v1.46h3.32v1.11h-3.32v1.79h3.7v1.11h-5.03Z"/><path class="az" d="M35.47,43.25v-6.59h1.34v2.6h2.62v-2.6h1.34v6.59h-1.34v-2.88h-2.62v2.88h-1.34Z"/><path class="aq" d="M41.87,39.99c0-.67.1-1.24.3-1.69.15-.34.36-.64.62-.9s.55-.46.86-.59c.41-.17.89-.26,1.43-.26.98,0,1.76.3,2.34.9.59.6.88,1.44.88,2.51s-.29,1.9-.87,2.5c-.58.6-1.36.9-2.33.9s-1.77-.3-2.35-.9c-.58-.6-.87-1.42-.87-2.47ZM43.25,39.95c0,.75.17,1.31.52,1.7.35.39.79.58,1.32.58s.97-.19,1.31-.57c.34-.38.51-.96.51-1.72s-.17-1.32-.5-1.69c-.33-.37-.77-.56-1.33-.56s-.99.19-1.33.56-.51.94-.51,1.7Z"/><path class="ac" d="M49.33,36.65h1.34v3.57c0,.57.02.93.05,1.1.06.27.19.49.41.65.22.16.51.25.88.25s.67-.08.86-.23c.19-.15.31-.34.35-.57.04-.22.06-.6.06-1.12v-3.65h1.34v3.46c0,.79-.04,1.35-.11,1.68s-.21.6-.4.83c-.19.22-.45.4-.78.54-.32.13-.75.2-1.27.2-.63,0-1.11-.07-1.44-.22-.33-.15-.58-.33-.77-.57-.19-.23-.31-.48-.37-.73-.09-.38-.13-.94-.13-1.67v-3.52Z"/><path class="ar" d="M55.67,41.1l1.3-.13c.08.43.24.75.48.96.24.2.56.31.97.31.43,0,.75-.09.97-.27.22-.18.33-.39.33-.64,0-.16-.05-.29-.14-.4-.09-.11-.25-.2-.48-.29-.16-.05-.51-.15-1.07-.29-.72-.18-1.22-.39-1.51-.65-.41-.36-.61-.81-.61-1.33,0-.34.1-.65.29-.94s.47-.51.83-.67c.36-.15.79-.23,1.3-.23.83,0,1.46.18,1.88.54.42.36.64.85.66,1.45l-1.34.06c-.06-.34-.18-.58-.37-.73-.19-.15-.47-.22-.85-.22s-.69.08-.91.24c-.14.1-.21.24-.21.41,0,.16.07.29.2.4.17.14.58.29,1.23.44.65.15,1.13.31,1.44.47.31.16.56.39.73.67.18.28.26.63.26,1.05,0,.38-.11.73-.32,1.06-.21.33-.51.58-.89.74s-.87.24-1.44.24c-.84,0-1.48-.19-1.93-.58s-.72-.95-.8-1.68Z"/><path class="at" d="M62.18,43.25v-6.59h4.91v1.12h-3.57v1.46h3.32v1.11h-3.32v1.79h3.7v1.11h-5.03Z"/><path class="au" d="M6.58,48.53v-.42h1.53s0,1.33,0,1.33c-.23.19-.48.33-.73.42-.25.09-.51.14-.77.14-.35,0-.68-.08-.97-.23-.29-.15-.51-.37-.66-.66-.15-.29-.22-.61-.22-.96s.07-.68.22-.98c.15-.3.36-.53.63-.68s.59-.22.95-.22c.26,0,.5.04.71.13.21.08.38.2.5.35s.21.35.27.59l-.43.12c-.05-.18-.12-.33-.2-.43-.08-.1-.2-.19-.34-.25-.15-.06-.31-.09-.5-.09-.22,0-.41.03-.57.1-.16.07-.29.15-.39.26-.1.11-.17.23-.23.36-.09.22-.14.46-.14.72,0,.32.06.59.17.8.11.22.27.38.48.48.21.1.44.16.67.16.21,0,.41-.04.61-.12s.35-.16.45-.25v-.67h-1.06Z"/><path class="au" d="M8.82,49.94v-3.59h2.61v.42h-2.13v1.1h2v.42h-2v1.22h2.21v.42h-2.69Z"/><path class="au" d="M12.17,49.94v-3.59h.49l1.89,2.82v-2.82h.46v3.59h-.49l-1.89-2.82v2.82h-.46Z"/><path class="au" d="M15.82,49.94v-3.59h2.61v.42h-2.13v1.1h2v.42h-2v1.22h2.21v.42h-2.69Z"/><path class="au" d="M19.18,49.94v-3.59h1.6c.32,0,.57.03.73.1.17.06.3.18.4.34.1.16.15.34.15.54,0,.25-.08.47-.25.64-.17.17-.42.29-.77.33.13.06.22.12.29.18.14.13.27.29.4.48l.63.98h-.6l-.48-.75c-.14-.22-.25-.38-.34-.49-.09-.11-.17-.19-.24-.24s-.14-.08-.22-.1c-.05-.01-.14-.02-.27-.02h-.55v1.6h-.48ZM19.66,47.93h1.03c.22,0,.39-.02.51-.07.12-.04.22-.12.28-.22s.1-.21.1-.32c0-.17-.06-.31-.19-.42-.12-.11-.32-.16-.59-.16h-1.14v1.19Z"/><path class="au" d="M22.42,49.94l1.38-3.59h.51l1.48,3.59h-.54l-.42-1.09h-1.51l-.4,1.09h-.51ZM23.46,48.46h1.22l-.38-.99c-.11-.3-.2-.55-.26-.74-.05.23-.11.46-.19.69l-.4,1.05Z"/><path class="au" d="M26.15,49.94v-3.59h.48v3.17h1.78v.42h-2.25Z"/><path class="au" d="M31.02,49.94v-3.17h-1.19v-.42h2.86v.42h-1.19v3.17h-.48Z"/><path class="au" d="M33.18,49.94v-3.59h1.6c.32,0,.57.03.73.1.17.06.3.18.4.34.1.16.15.34.15.54,0,.25-.08.47-.25.64-.17.17-.42.29-.77.33.13.06.22.12.29.18.14.13.27.29.4.48l.63.98h-.6l-.48-.75c-.14-.22-.25-.38-.34-.49-.09-.11-.17-.19-.24-.24s-.14-.08-.22-.1c-.05-.01-.14-.02-.27-.02h-.55v1.6h-.48ZM33.66,47.93h1.03c.22,0,.39-.02.51-.07.12-.04.22-.12.28-.22s.1-.21.1-.32c0-.17-.06-.31-.19-.42-.12-.11-.32-.16-.59-.16h-1.14v1.19Z"/><path class="au" d="M36.42,49.94l1.38-3.59h.51l1.48,3.59h-.54l-.42-1.09h-1.51l-.4,1.09h-.51ZM37.46,48.46h1.22l-.38-.99c-.11-.3-.2-.55-.26-.74-.05.23-.11.46-.19.69l-.4,1.05Z"/><path class="au" d="M40.17,49.94v-3.59h1.24c.28,0,.49.02.64.05.21.05.38.13.53.26.19.16.33.36.43.61.09.25.14.53.14.85,0,.27-.03.51-.1.73-.06.21-.15.39-.25.52-.1.14-.21.25-.33.33s-.26.14-.43.18c-.17.04-.36.06-.58.06h-1.3ZM40.65,49.51h.77c.24,0,.42-.02.56-.07.14-.04.24-.11.32-.19.11-.11.2-.26.26-.45.06-.19.09-.42.09-.69,0-.38-.06-.66-.19-.87s-.27-.34-.45-.41c-.13-.05-.33-.07-.62-.07h-.76v2.74Z"/><path class="au" d="M43.89,49.94v-3.59h.48v3.59h-.48Z"/><path class="au" d="M45.21,49.94v-3.59h.49l1.89,2.82v-2.82h.46v3.59h-.49l-1.89-2.82v2.82h-.46Z"/><path class="au" d="M50.54,48.53v-.42h1.53s0,1.33,0,1.33c-.23.19-.48.33-.73.42-.25.09-.51.14-.77.14-.35,0-.68-.08-.97-.23-.29-.15-.51-.37-.66-.66-.15-.29-.22-.61-.22-.96s.07-.68.22-.98c.15-.3.36-.53.63-.68s.59-.22.95-.22c.26,0,.5.04.71.13.21.08.38.2.5.35s.21.35.27.59l-.43.12c-.05-.18-.12-.33-.2-.43-.08-.1-.2-.19-.34-.25-.15-.06-.31-.09-.5-.09-.22,0-.41.03-.57.1-.16.07-.29.15-.39.26-.1.11-.17.23-.23.36-.09.22-.14.46-.14.72,0,.32.06.59.17.8.11.22.27.38.48.48.21.1.44.16.67.16.21,0,.41-.04.61-.12s.35-.16.45-.25v-.67h-1.06Z"/><path class="au" d="M54.15,49.94v-3.59h.48v3.17h1.78v.42h-2.25Z"/><path class="au" d="M56.95,49.94v-3.59h.48v3.17h1.78v.42h-2.25Z"/><path class="au" d="M62.35,48.68l.48.12c-.1.39-.28.69-.54.89-.26.21-.58.31-.95.31s-.7-.08-.95-.24c-.24-.16-.43-.39-.56-.68-.13-.3-.19-.62-.19-.96,0-.37.07-.7.22-.98.14-.28.35-.49.61-.63.27-.14.56-.22.87-.22.36,0,.66.09.91.27.25.18.42.44.51.77l-.47.11c-.08-.26-.2-.45-.36-.57-.16-.12-.36-.18-.6-.18-.28,0-.51.07-.69.2s-.32.31-.39.53c-.08.22-.11.45-.11.69,0,.31.04.57.13.8.09.23.23.4.42.51.19.11.39.17.61.17.27,0,.49-.08.68-.23.19-.15.31-.38.38-.68Z"/><rect class="am" y="44.78" width="66.98" height=".35"/></svg>