<svg xmlns="http://www.w3.org/2000/svg" viewBox="0 0 500 500"><path fill="#0c7e4a" d="M500 454.4H343.7S74 278.2 88.1 134.1c13.4-129.4 218-114.6 301.6-1.2 37.4 36 74 150.1 9.7 249.8l-67.3-38.4s43.9-70.8.5-148.9c-29.4-62.1-138.8-88.2-176-50.4-37.1 37.8 44.2 143.5 146.7 206.3C405.8 414.1 500 454.4 500 454.4"/><path fill="#73c057" d="M68.3 101.5s-32.7 50-16.6 126.2c16 76.2 91.6 167.8 149.9 224.2l105.1 5.8S32.4 274.4 68.3 101.5"/><path fill="#c9d63c" d="M19.6 155.3S-.3 293 161.1 435.2c0 0-228-37.8-141.6-279.9"/><path fill="#ee2b36" d="m218 179.7 57.8 53.7 143.7-123.6v71L279.2 304.4l-62.9-58.3 1.7-66.4z"/><path fill="none" stroke="#fff" stroke-miterlimit="10" stroke-width="8.7" d="m218 179.7 57.8 53.7 143.7-123.6v71L279.2 304.4l-62.9-58.3 1.7-66.4z"/></svg>