<svg xmlns="http://www.w3.org/2000/svg" viewBox="0 0 600 500"><path fill="#fff" d="M355.6 497.6h-1.1l-105.2-5.8c-9.4-.6-18.4-4.5-25.3-11l-.2-.2c-1.7-1.7-3.8-3.7-6-5.9-2.2.4-4.4.6-6.6.6s-4.5-.2-6.7-.6c-3.6-.6-31.4-5.7-64.7-21.2-44.5-20.8-79.6-51.6-101.7-88.9C2.7 304.2.6 229.4 31.9 141.9v-.1c5.7-15.5 20.3-26 36.6-26.4 7-21.1 14.9-33.6 16.4-35.8 7.5-11.3 20-18 33.4-18s3.6.1 5.4.4c3-4 6.2-7.9 9.6-11.6 18-19.4 41.6-33.2 70.1-41 17-4.6 35.2-7 54.2-7 29.3 0 59.4 5.4 89.3 16.1 37.2 13.3 70.7 33.8 97.9 59.9 7.1-5.5 15.8-8.5 24.7-8.5s11.2 1.2 16.4 3.5c.1 0 .2 0 .3.1 14.1 6.6 23.3 20.8 23.3 36.3v64.4c6.1 17.5 10.4 35.9 12.8 54.6 5 39.1 3.7 96.1-27.5 155.2 33.9 17 59.6 28.6 70.1 33.2 1.1.5 1.7.8 1.8.8.2 0 .4.2.6.3 16.3 7.9 25.3 26.1 21.7 44-3.8 18.5-20.3 32-39.2 32H393.5c-5.2 0-10.5-1.1-15.4-3.1-6.3 4.1-13.8 6.3-21.5 6.3h-1.1Z"/><path fill="#0c7e4a" d="M550 454.4H393.7S124 278.2 138.1 134.1c13.4-129.4 218-114.6 301.6-1.2 37.4 36 74 150.1 9.7 249.8l-67.3-38.4s43.9-70.8.5-148.9c-29.4-62.1-138.8-88.2-176-50.4-37.1 37.8 44.2 143.5 146.7 206.3C455.8 414.1 550 454.4 550 454.4"/><path fill="#73c057" d="M118.3 101.5s-32.7 50-16.6 126.2c16 76.2 91.6 167.8 149.9 224.2l105.1 5.8S82.4 274.4 118.3 101.5"/><path fill="#c9d63c" d="M69.6 155.3S49.7 293 211.1 435.2c0 0-228-37.8-141.6-279.9"/><path fill="#ee2b36" d="m268 179.7 57.8 53.7 143.7-123.6v71L329.2 304.4l-62.9-58.3 1.7-66.4Z"/><path fill="none" stroke="#fff" stroke-miterlimit="10" stroke-width="8.7" d="m268 179.7 57.8 53.7 143.7-123.6v71L329.2 304.4l-62.9-58.3 1.7-66.4Z"/></svg>