<?xml version="1.0" encoding="UTF-8"?><svg id="a" xmlns="http://www.w3.org/2000/svg" viewBox="0 0 1000 612.39"><defs><style>.b{fill:#007943;}.c{fill:#c9d63c;}.d{fill:none;stroke:#fff;stroke-miterlimit:10;stroke-width:7.57px;}.e{fill:#0c7e4a;}.f{fill:#73c057;}.g{fill:#ee2b36;}</style></defs><path class="b" d="M186.33,596.3v-54.75h23.27c5.85,0,10.1.49,12.75,1.47,2.65.98,4.77,2.73,6.37,5.25,1.59,2.52,2.39,5.39,2.39,8.63,0,4.11-1.21,7.5-3.62,10.18-2.42,2.68-6.03,4.36-10.83,5.06,2.39,1.39,4.36,2.93,5.92,4.59,1.56,1.67,3.65,4.63,6.29,8.89l6.69,10.68h-13.22l-7.99-11.91c-2.84-4.26-4.78-6.94-5.83-8.05-1.05-1.11-2.15-1.87-3.32-2.28-1.17-.41-3.03-.62-5.56-.62h-2.24v22.86h-11.05ZM197.38,564.7h8.18c5.3,0,8.61-.22,9.93-.67,1.32-.45,2.35-1.22,3.1-2.32.75-1.1,1.12-2.46,1.12-4.11,0-1.84-.49-3.33-1.48-4.46-.98-1.13-2.37-1.85-4.16-2.15-.9-.12-3.59-.19-8.07-.19h-8.63v13.89Z"/><path class="b" d="M262.2,583.67l10.46,1.75c-1.34,3.83-3.47,6.75-6.37,8.76-2.9,2-6.53,3.01-10.89,3.01-6.9,0-12-2.25-15.31-6.76-2.61-3.61-3.92-8.17-3.92-13.67,0-6.57,1.72-11.72,5.15-15.44,3.44-3.72,7.78-5.58,13.03-5.58,5.9,0,10.56,1.95,13.97,5.84,3.41,3.9,5.04,9.87,4.89,17.91h-26.29c.07,3.11.92,5.53,2.54,7.26,1.62,1.73,3.63,2.6,6.05,2.6,1.64,0,3.02-.45,4.15-1.34,1.12-.9,1.97-2.34,2.54-4.33ZM262.8,573.07c-.07-3.04-.86-5.35-2.35-6.93-1.49-1.58-3.31-2.37-5.45-2.37-2.29,0-4.18.83-5.68,2.5-1.49,1.67-2.23,3.93-2.2,6.8h15.69Z"/><path class="b" d="M274.96,556.63h5.83v-2.99c0-3.34.35-5.83,1.06-7.47.71-1.64,2.02-2.98,3.92-4.01s4.31-1.55,7.23-1.55,5.91.45,8.78,1.34l-1.42,7.32c-1.67-.4-3.27-.6-4.82-.6s-2.61.35-3.27,1.06c-.66.71-.99,2.07-.99,4.09v2.8h7.84v8.25h-7.84v31.41h-10.49v-31.41h-5.83v-8.25Z"/><path class="b" d="M312.85,596.3h-10.49v-39.66h9.75v5.64c1.67-2.66,3.17-4.42,4.5-5.27,1.33-.85,2.84-1.27,4.54-1.27,2.39,0,4.69.66,6.91,1.98l-3.25,9.15c-1.77-1.14-3.41-1.72-4.93-1.72s-2.71.4-3.73,1.21c-1.02.81-1.82,2.27-2.41,4.39-.59,2.12-.88,6.55-.88,13.29v12.25Z"/><path class="b" d="M353.32,583.67l10.46,1.75c-1.34,3.83-3.47,6.75-6.37,8.76-2.9,2-6.53,3.01-10.89,3.01-6.9,0-12-2.25-15.31-6.76-2.61-3.61-3.92-8.17-3.92-13.67,0-6.57,1.72-11.72,5.15-15.44,3.44-3.72,7.78-5.58,13.03-5.58,5.9,0,10.56,1.95,13.97,5.84,3.41,3.9,5.04,9.87,4.89,17.91h-26.29c.07,3.11.92,5.53,2.54,7.26,1.62,1.73,3.63,2.6,6.05,2.6,1.64,0,3.02-.45,4.15-1.34,1.12-.9,1.97-2.34,2.54-4.33ZM353.91,573.07c-.07-3.04-.86-5.35-2.35-6.93-1.49-1.58-3.31-2.37-5.45-2.37-2.29,0-4.18.83-5.68,2.5-1.49,1.67-2.23,3.93-2.2,6.8h15.69Z"/><path class="b" d="M366.97,584.98l10.53-1.61c.45,2.04,1.36,3.59,2.73,4.65,1.37,1.06,3.29,1.59,5.75,1.59,2.71,0,4.76-.5,6.12-1.49.92-.7,1.38-1.63,1.38-2.8,0-.8-.25-1.46-.75-1.98-.52-.5-1.69-.96-3.51-1.38-8.47-1.87-13.83-3.57-16.1-5.12-3.14-2.14-4.71-5.12-4.71-8.93,0-3.44,1.36-6.32,4.07-8.66,2.71-2.34,6.92-3.51,12.62-3.51s9.46.88,12.1,2.65c2.64,1.77,4.46,4.38,5.45,7.84l-9.9,1.83c-.42-1.54-1.23-2.73-2.41-3.55-1.18-.82-2.87-1.23-5.06-1.23-2.76,0-4.74.39-5.94,1.16-.8.55-1.19,1.26-1.19,2.13,0,.75.35,1.38,1.05,1.9.95.7,4.21,1.68,9.8,2.95,5.59,1.27,9.49,2.83,11.71,4.67,2.19,1.87,3.29,4.47,3.29,7.81,0,3.63-1.52,6.76-4.56,9.37-3.04,2.61-7.53,3.92-13.48,3.92-5.4,0-9.68-1.1-12.83-3.29-3.15-2.19-5.21-5.17-6.18-8.92Z"/><path class="b" d="M421.44,541.55v20.13c3.39-3.96,7.43-5.94,12.14-5.94,2.41,0,4.59.45,6.54,1.34,1.94.9,3.4,2.04,4.39,3.44s1.66,2.94,2.02,4.63c.36,1.69.54,4.32.54,7.88v23.27h-10.49v-20.95c0-4.16-.2-6.8-.6-7.92-.4-1.12-1.1-2.01-2.11-2.67-1.01-.66-2.27-.99-3.79-.99-1.74,0-3.3.42-4.67,1.27-1.37.85-2.37,2.12-3.01,3.83-.63,1.71-.95,4.23-.95,7.56v19.87h-10.49v-54.75h10.49Z"/><path class="b" d="M454.7,556.63h9.67v5.42c3.46-4.21,7.58-6.31,12.36-6.31,2.54,0,4.74.52,6.61,1.57s3.4,2.63,4.59,4.74c1.74-2.12,3.62-3.7,5.64-4.74s4.17-1.57,6.46-1.57c2.91,0,5.38.59,7.4,1.77,2.02,1.18,3.52,2.92,4.52,5.21.72,1.69,1.08,4.43,1.08,8.22v25.36h-10.49v-22.67c0-3.93-.36-6.47-1.08-7.62-.97-1.49-2.46-2.24-4.48-2.24-1.47,0-2.85.45-4.15,1.34-1.29.9-2.23,2.21-2.8,3.94-.57,1.73-.86,4.46-.86,8.2v19.05h-10.49v-21.74c0-3.86-.19-6.35-.56-7.47-.37-1.12-.95-1.95-1.74-2.5-.78-.55-1.85-.82-3.19-.82-1.62,0-3.08.44-4.37,1.31-1.29.87-2.22,2.13-2.78,3.77-.56,1.64-.84,4.37-.84,8.18v19.27h-10.49v-39.66Z"/><path class="b" d="M544.25,583.67l10.46,1.75c-1.34,3.83-3.47,6.75-6.37,8.76-2.9,2-6.53,3.01-10.89,3.01-6.9,0-12-2.25-15.31-6.76-2.61-3.61-3.92-8.17-3.92-13.67,0-6.57,1.72-11.72,5.15-15.44,3.44-3.72,7.78-5.58,13.03-5.58,5.9,0,10.56,1.95,13.97,5.84s5.04,9.87,4.89,17.91h-26.29c.07,3.11.92,5.53,2.54,7.26,1.62,1.73,3.63,2.6,6.05,2.6,1.64,0,3.03-.45,4.15-1.34,1.12-.9,1.97-2.34,2.54-4.33ZM544.84,573.07c-.08-3.04-.86-5.35-2.35-6.93-1.49-1.58-3.31-2.37-5.45-2.37-2.29,0-4.18.83-5.68,2.5s-2.23,3.93-2.2,6.8h15.69Z"/><path class="b" d="M597.67,596.3h-10.49v-20.24c0-4.28-.22-7.05-.67-8.31s-1.18-2.23-2.18-2.93c-1.01-.7-2.22-1.05-3.64-1.05-1.82,0-3.45.5-4.89,1.49-1.44,1-2.43,2.32-2.97,3.96-.54,1.64-.8,4.68-.8,9.11v17.96h-10.49v-39.66h9.75v5.83c3.46-4.48,7.82-6.72,13.07-6.72,2.32,0,4.43.42,6.35,1.25s3.37,1.9,4.35,3.19c.98,1.29,1.67,2.76,2.05,4.41.39,1.64.58,4,.58,7.06v24.65Z"/><path class="b" d="M624.29,556.63v8.37h-7.17v15.98c0,3.24.07,5.12.21,5.66.14.54.45.98.93,1.33.49.35,1.08.52,1.77.52.97,0,2.38-.34,4.22-1.01l.9,8.14c-2.44,1.04-5.2,1.57-8.29,1.57-1.89,0-3.6-.32-5.12-.95s-2.63-1.46-3.34-2.46c-.71-1.01-1.2-2.37-1.48-4.09-.22-1.22-.34-3.68-.34-7.39v-17.29h-4.82v-8.37h4.82v-7.88l10.53-6.12v14h7.17Z"/><path class="b" d="M625.65,584.98l10.53-1.61c.45,2.04,1.36,3.59,2.73,4.65,1.37,1.06,3.29,1.59,5.75,1.59,2.71,0,4.75-.5,6.12-1.49.92-.7,1.38-1.63,1.38-2.8,0-.8-.25-1.46-.75-1.98-.52-.5-1.69-.96-3.51-1.38-8.46-1.87-13.83-3.57-16.1-5.12-3.14-2.14-4.71-5.12-4.71-8.93,0-3.44,1.36-6.32,4.07-8.66,2.71-2.34,6.92-3.51,12.62-3.51s9.46.88,12.1,2.65c2.64,1.77,4.46,4.38,5.45,7.84l-9.9,1.83c-.42-1.54-1.23-2.73-2.41-3.55-1.18-.82-2.87-1.23-5.06-1.23-2.76,0-4.74.39-5.94,1.16-.8.55-1.2,1.26-1.2,2.13,0,.75.35,1.38,1.05,1.9.95.7,4.21,1.68,9.8,2.95,5.59,1.27,9.49,2.83,11.71,4.67,2.19,1.87,3.29,4.47,3.29,7.81,0,3.63-1.52,6.76-4.56,9.37-3.04,2.61-7.53,3.92-13.48,3.92-5.4,0-9.68-1.1-12.83-3.29-3.15-2.19-5.21-5.17-6.18-8.92Z"/><path class="b" d="M688.85,596.3v-54.75h37.53v9.26h-26.48v12.96h22.86v9.26h-22.86v23.27h-11.05Z"/><path class="b" d="M741.05,568.73l-9.52-1.72c1.07-3.83,2.91-6.67,5.53-8.51s6.5-2.76,11.65-2.76c4.68,0,8.17.55,10.46,1.66,2.29,1.11,3.9,2.52,4.84,4.22.93,1.71,1.4,4.84,1.4,9.39l-.11,12.25c0,3.49.17,6.06.5,7.71.34,1.66.96,3.43,1.89,5.32h-10.38c-.27-.7-.61-1.73-1.01-3.1-.17-.62-.3-1.03-.37-1.23-1.79,1.74-3.71,3.05-5.75,3.92-2.04.87-4.22,1.31-6.54,1.31-4.08,0-7.3-1.11-9.65-3.32-2.35-2.22-3.53-5.02-3.53-8.4,0-2.24.54-4.24,1.61-5.99,1.07-1.76,2.57-3.1,4.5-4.03s4.71-1.75,8.35-2.45c4.9-.92,8.3-1.78,10.2-2.58v-1.05c0-2.02-.5-3.45-1.49-4.31-1-.86-2.88-1.29-5.64-1.29-1.87,0-3.32.37-4.37,1.1s-1.89,2.02-2.54,3.87ZM755.09,577.25c-1.34.45-3.47.98-6.39,1.61s-4.82,1.23-5.71,1.83c-1.37.97-2.05,2.2-2.05,3.7s.55,2.74,1.64,3.81c1.1,1.07,2.49,1.61,4.18,1.61,1.89,0,3.7-.62,5.42-1.87,1.27-.95,2.1-2.1,2.5-3.47.27-.9.41-2.6.41-5.12v-2.09Z"/><path class="b" d="M808.11,568.36l-10.34,1.87c-.35-2.07-1.14-3.62-2.37-4.67-1.23-1.04-2.83-1.57-4.8-1.57-2.61,0-4.7.9-6.25,2.71-1.56,1.81-2.33,4.82-2.33,9.06,0,4.71.79,8.03,2.37,9.97,1.58,1.94,3.7,2.91,6.37,2.91,1.99,0,3.62-.57,4.89-1.7,1.27-1.13,2.17-3.08,2.69-5.84l10.31,1.76c-1.07,4.73-3.12,8.3-6.16,10.72-3.04,2.42-7.11,3.62-12.21,3.62-5.8,0-10.43-1.83-13.87-5.49s-5.17-8.73-5.17-15.2,1.73-11.65,5.19-15.29c3.46-3.65,8.14-5.47,14.04-5.47,4.83,0,8.67,1.04,11.52,3.12,2.85,2.08,4.9,5.25,6.14,9.5Z"/><path class="b" d="M832.03,556.63v8.37h-7.17v15.98c0,3.24.07,5.12.21,5.66.14.54.45.98.93,1.33.49.35,1.08.52,1.77.52.97,0,2.38-.34,4.22-1.01l.9,8.14c-2.44,1.04-5.2,1.57-8.29,1.57-1.89,0-3.6-.32-5.12-.95s-2.63-1.46-3.34-2.46c-.71-1.01-1.2-2.37-1.48-4.09-.22-1.22-.34-3.68-.34-7.39v-17.29h-4.82v-8.37h4.82v-7.88l10.53-6.12v14h7.17Z"/><path class="b" d="M834.67,575.9c0-3.49.86-6.86,2.58-10.12,1.72-3.26,4.15-5.75,7.3-7.47,3.15-1.72,6.67-2.58,10.55-2.58,6,0,10.92,1.95,14.75,5.84s5.75,8.82,5.75,14.77-1.94,10.97-5.81,14.92c-3.87,3.95-8.75,5.92-14.62,5.92-3.64,0-7.1-.82-10.4-2.46-3.3-1.64-5.81-4.05-7.52-7.23-1.72-3.17-2.58-7.04-2.58-11.6ZM845.42,576.46c0,3.93.93,6.95,2.8,9.04s4.17,3.14,6.91,3.14,5.04-1.04,6.89-3.14,2.78-5.13,2.78-9.11-.93-6.87-2.78-8.96c-1.85-2.09-4.15-3.14-6.89-3.14s-5.04,1.05-6.91,3.14c-1.87,2.09-2.8,5.1-2.8,9.04Z"/><path class="b" d="M891.64,596.3h-10.49v-39.66h9.75v5.64c1.67-2.66,3.17-4.42,4.5-5.27,1.33-.85,2.84-1.27,4.54-1.27,2.39,0,4.69.66,6.91,1.98l-3.25,9.15c-1.77-1.14-3.41-1.72-4.93-1.72s-2.71.4-3.73,1.21c-1.02.81-1.82,2.27-2.41,4.39-.59,2.12-.88,6.55-.88,13.29v12.25Z"/><path class="b" d="M904.17,556.63h11.17l9.49,28.16,9.26-28.16h10.87l-14,38.17-2.5,6.91c-.92,2.32-1.8,4.08-2.63,5.3-.83,1.22-1.79,2.21-2.88,2.97-1.08.76-2.42,1.35-4,1.77-1.58.42-3.37.63-5.36.63s-4-.21-5.94-.63l-.93-8.22c1.64.32,3.12.49,4.44.49,2.44,0,4.24-.72,5.42-2.15,1.17-1.43,2.07-3.25,2.69-5.47l-15.09-39.77Z"/><path class="e" d="M106.35,519.64c32.35-9.14,55.7-35.19,55.7-65.99,0-38.38-36.27-69.5-81.03-69.5S0,415.27,0,453.65c0,31.84,24.99,58.62,59.05,66.85,36.56,42.54,102.55,39.05,102.55,39.05v-7.69c-32.71-3.86-50.06-24.79-55.25-32.22M37.37,453.65c0-32.36,20.38-58.62,45.53-58.62s45.52,26.25,45.52,58.62-20.38,58.62-45.52,58.62-45.53-26.25-45.53-58.62"/><path class="e" d="M195.77,389.36v92.13c0,26.81,34.16,41.55,68.01,41.55s62.65-22.79,62.65-40.89v-92.8h-21.77v83.75c0,19.77-17.43,35.19-36.18,35.19s-37.19-11.73-37.19-26.47v-92.48h-35.52Z"/><path class="e" d="M431.96,386.34h-15.06l-68.35,132.8h22.11l17.08-36.63h57.3l18.42,36.63h32.83l-64.33-132.8ZM394.97,470.93l23.79-43.53,20.7,43.53h-44.49Z"/><polygon class="e" points="519.08 389.7 519.08 519.15 627.35 519.15 627.35 505.89 554.37 505.89 554.37 389.37 519.08 389.7"/><rect class="e" x="651.44" y="389.38" width="32.2" height="129.78"/><polygon class="e" points="842.06 388.56 709.53 388.56 709.53 399.57 760.02 399.57 760.02 519.15 792.06 519.15 792.06 399.57 842.06 399.57 842.06 388.56"/><polygon class="e" points="851.77 388.73 888.66 388.73 933.81 446.17 977.82 389.54 1000 389.54 945.62 462.52 945.62 519.31 912.3 519.31 912.3 462.52 851.77 388.73"/><path class="e" d="M717.33,356.76h-135.34s-233.5-152.53-221.3-277.32c11.64-112.04,188.79-99.27,261.12-1.08,32.35,31.17,64.1,129.97,8.43,216.29l-58.24-33.28s38.04-61.27.4-128.89c-25.5-53.81-120.19-76.33-152.37-43.61-32.16,32.72,38.27,124.24,127.02,178.59,88.75,54.36,170.28,89.3,170.28,89.3"/><path class="f" d="M343.49,51.14s-28.29,43.26-14.42,109.27c13.86,66.01,79.3,145.31,129.78,194.12l90.96,4.99S312.43,200.9,343.49,51.14"/><path class="c" d="M301.34,97.73s-17.19,119.25,122.59,242.38c0,0-197.46-32.72-122.59-242.38"/><polygon class="g" points="473.18 118.87 523.17 165.36 647.65 58.38 647.65 119.86 526.18 226.84 471.69 176.35 473.18 118.87"/><polygon class="d" points="473.18 118.87 523.17 165.36 647.65 58.38 647.65 119.86 526.18 226.84 471.69 176.35 473.18 118.87"/></svg>