<?xml version="1.0" encoding="UTF-8"?><svg id="a" xmlns="http://www.w3.org/2000/svg" viewBox="0 0 1000.02 803.85"><defs><style>.d{fill:#231f20;}.e{fill:#fff;}.f{fill:none;}.g{fill:#781214;}.h{fill:#b11f24;}</style></defs><g id="b"><path class="d" d="M101.89,749.35c-31.39,0-56.51-9.44-74.65-28.01-18.08-18.52-27.24-44.07-27.24-75.93s10.25-55.91,30.48-74.48c19.95-18.32,46.05-27.63,77.57-27.63,10.54,0,21.03,1.24,31.2,3.67,10.04,2.42,19.31,5.52,27.55,9.24l8.81,3.98-3.31,9.06c-.92,2.51-1.8,5.41-2.65,8.78-.91,3.62-1.69,6.91-2.35,9.94l-1.54,7.09-12.74,1.77-5.51-3.96c-4.55-5.19-10.31-9.55-17.09-12.91-7.83-3.96-15.93-5.95-24.16-5.95-18.93,0-33.43,6.63-44.3,20.31-10.74,13.5-15.97,30.48-15.97,51.88s5.52,39.77,16.4,53.1c10.52,12.84,24.36,19.09,42.31,19.09,8.47,0,16.58-1.65,24.8-5.07,8.44-3.49,16.1-8.08,22.78-13.63l18.94-15.76-3.62,46.04-4.23,2.79c-8.23,5.44-17.48,9.62-27.48,12.41-9.82,2.76-21.27,4.17-34.01,4.17Z"/><path class="d" d="M308.76,745.43l-19.23,1.09-3.31-4.75c-5.79-8.29-10.89-15.45-15.31-21.53-2.89-3.96-8.31-11.12-16.22-21.49-7.9-10.33-13.43-17.48-16.65-21.45-3.15-3.96-6.44-7.99-9.87-12.07v81.75l-22.19-1.58-21.22,1.54v-199.75h66.16c19.41,0,34.2,3.22,45.18,9.81,13.73,8.27,20.98,21.87,20.98,39.31,0,19.65-8.81,35.85-25.47,46.85-5.76,3.85-12.34,7-19.65,9.46l36.51,47.03c1.67,2.26,6.62,8.38,15,18.61l23.37,29.19-38.07-2.02ZM232.17,628.52c9.08-.02,16.41-.79,21.61-2.33,4.55-1.33,8.66-3.89,12.6-7.86,4.92-4.94,7.3-10.85,7.3-18.11s-1.5-12.3-4.46-15.29c-2.75-2.76-6.01-4.71-9.95-5.95-4.41-1.4-10.66-2.11-18.61-2.11l-12.49.43v51.13l4,.09Z"/><path class="d" d="M434.66,749.35c-14.67,0-28.7-2.31-41.71-6.84-13.44-4.67-25.07-11.91-34.56-21.53-9.34-9.46-16.58-20.47-21.52-32.74-4.93-12.2-7.43-26.18-7.43-41.53,0-29.26,9.3-53.55,27.65-72.17,9.86-9.99,21.32-17.76,34.08-23.14,12.82-5.37,27.53-8.11,43.74-8.11s31.32,2.49,44.9,7.4c13.94,5.05,26.57,13.25,37.54,24.36,7.25,7.36,13.19,16.55,17.63,27.33,5.13,12.52,7.72,26.13,7.72,40.44,0,16.01-2.54,30.43-7.57,42.85-5.06,12.45-12.54,23.75-22.27,33.61-9.89,10.03-22.01,17.66-36.02,22.67-13.66,4.91-27.85,7.4-42.17,7.4ZM437.99,572.7c-9.04,0-17.17,1.41-24.14,4.21-6.86,2.74-12.59,6.43-17.01,10.92-7.09,7.18-12.46,15.96-15.97,26.07-3.63,10.48-5.46,22.56-5.46,35.94,0,12.09,1.68,22.74,5.01,31.68,3.23,8.72,8.15,16.46,14.62,23.01,4.72,4.66,10.65,8.45,17.52,11.21,6.95,2.79,14.64,4.19,22.87,4.19,15.57,0,28.28-5.19,38.86-15.92,6.38-6.48,11.78-14.85,16.06-24.89,4.23-9.96,6.37-20.16,6.37-30.34,0-11.8-.59-20.99-1.76-27.27-1.08-5.96-3.07-11.89-5.9-17.62-4.67-9.31-11.13-16.58-19.74-22.21-9.45-6.04-19.72-8.99-31.32-8.99Z"/><path class="d" d="M582.72,705.98l-51.1-159.76,27.07,1.81,19.14-1.34,10.74,38.34c3.78,13.91,8.47,30.25,14.09,49.09,1.54,5.21,3.84,12.71,6.9,22.53l6.51,20.61,7.92-22.96,25.17-74.96,10.15-32.97,14.85,1.58,14.64-1.59,9.46,30.89,33.37,100.82c1.37-4.32,2.97-9.53,4.82-15.6,10.79-35.94,21.65-71.9,32.61-107.88l2.46-8.06,17.38,1.52,7.18-.79,17.28-1.52-6.81,15.96c-3.34,7.83-5.95,14.17-7.79,19.11-1.84,4.94-3.96,10.91-6.29,17.89l-50.2,148.28-15.45-1.49-16.09,1.45-40.46-127.18-43.38,127.17-15.92-1.43-16.02,1.49-12.21-40.99Z"/><path class="d" d="M832.96,745.5l-17.59,1.93v-200.23h25.02l109.63,120.54v-121.69l17.81,1.88,17.38-1.97v200.27h-23.17l-3.12-4.03c-1.96-2.54-4.52-5.66-7.66-9.35-4-4.78-7.15-8.43-9.46-10.98l-91.25-102.29v127.85l-17.58-1.93Z"/><path class="e" d="M162.55,565.71c-1.03,2.78-2.02,6.04-2.96,9.77-.94,3.74-1.76,7.17-2.44,10.29l-1.8.26c-5.48-6.25-12.25-11.38-20.3-15.37-9.25-4.69-18.85-7.03-28.78-7.03-22.1,0-39.57,8.08-52.42,24.23-12.17,15.29-18.25,34.74-18.25,58.36s6.25,44.38,18.76,59.66c12.5,15.29,29.29,22.93,50.37,22.93,9.77,0,19.36-1.95,28.78-5.86,9.42-3.91,17.9-8.99,25.44-15.24l-1.28,16.41c-7.37,4.87-15.55,8.56-24.54,11.07-8.99,2.52-19.4,3.78-31.22,3.78-28.61,0-51.01-8.29-67.2-24.88-16.19-16.58-24.28-39.47-24.28-68.65s9.03-50.24,27.11-66.83c18.07-16.58,41.59-24.88,70.54-24.88,9.76,0,19.36,1.13,28.78,3.39,9.42,2.26,17.99,5.12,25.7,8.6Z"/><path class="e" d="M324.19,735.85l-14.84-.78-14.58.78c-5.84-8.36-10.99-15.59-15.45-21.69-2.92-4.01-8.37-11.23-16.35-21.69-7.98-10.45-13.6-17.68-16.86-21.69-5.67-7.14-11.85-14.54-18.54-22.21h-9.78v87.28l-11.05-.78-11.56.78v-178.21h55.76c17.3,0,30.58,2.77,39.83,8.31,10.62,6.41,15.93,16.54,15.93,30.39,0,16.28-6.94,29.01-20.81,38.19-8.57,5.72-19.19,9.7-31.86,11.95l46.26,59.58c1.54,2.09,6.59,8.36,15.16,18.81,4.28,5.4,7.2,9.06,8.74,10.98ZM284.1,600.24c0-10.04-2.49-17.57-7.48-22.59-3.96-3.98-8.69-6.83-14.19-8.57-5.5-1.73-12.81-2.6-21.93-2.6l-22.7.78v71.39l14.19.26c10.32,0,18.57-.91,24.77-2.72,6.19-1.82,11.86-5.32,17.02-10.52,6.88-6.92,10.32-15.4,10.32-25.44Z"/><path class="e" d="M532.34,642.84c0,14.76-2.27,27.75-6.81,38.95-4.54,11.2-11.22,21.28-20.04,30.22-8.82,8.95-19.53,15.68-32.12,20.19-12.59,4.51-25.48,6.77-38.67,6.77s-26.3-2.08-38.29-6.25c-11.99-4.17-22.19-10.51-30.58-19.02-8.4-8.51-14.82-18.28-19.27-29.31-4.46-11.03-6.68-23.58-6.68-37.65,0-26.58,8.22-48.2,24.67-64.88,8.91-9.03,19.14-15.98,30.71-20.84,11.56-4.86,24.8-7.29,39.7-7.29s28.87,2.26,41.37,6.77c12.5,4.52,23.73,11.81,33.66,21.89,6.34,6.43,11.48,14.42,15.42,23.97,4.63,11.29,6.94,23.45,6.94,36.48ZM507.15,648.83c0-12.51-.64-22.23-1.93-29.18-1.28-6.95-3.56-13.72-6.81-20.32-5.48-10.94-13.28-19.71-23.38-26.32-11.14-7.12-23.47-10.68-37-10.68-10.45,0-19.79,1.65-28.01,4.95-8.22,3.3-15.08,7.73-20.56,13.29-8.22,8.34-14.35,18.33-18.37,29.96-4.03,11.64-6.04,24.75-6.04,39.34,0,13.38,1.88,25.14,5.65,35.3,3.77,10.16,9.42,19.06,16.96,26.71,5.82,5.73,12.85,10.25,21.07,13.55,8.22,3.3,17.13,4.95,26.73,4.95,18.33,0,33.75-6.34,46.25-19.02,7.36-7.47,13.45-16.84,18.25-28.14,4.79-11.29,7.2-22.75,7.2-34.39Z"/><path class="e" d="M797.01,557.64c-3.43,7.99-6.08,14.5-7.97,19.54-1.89,5.04-4.03,11.12-6.42,18.24l-47.54,140.43-8.22-.78-8.74.78-46.51-146.16h-2.06l-49.85,146.16-8.74-.78-8.48.78-9.76-32.83-46.51-145.38,11.82.78,12.08-.78c1.37,4.86,4.2,14.94,8.48,30.22,3.77,13.9,8.48,30.31,14.14,49.24,1.54,5.21,3.85,12.77,6.94,22.67,4.97,15.81,9.94,31.53,14.91,47.16h2.31c5.65-16.32,11.31-32.74,16.96-49.24,3.94-11.63,7.88-23.36,11.82-35.17,5.65-16.84,10.11-30.13,13.37-39.86l7.71-25.01,7.45.78,7.2-.78,6.94,22.66,41.91,126.61,2.31.02c2.57-6.77,4.96-13.46,7.19-20.06,1.71-5.21,3.94-12.33,6.68-21.37,10.78-35.95,21.65-71.91,32.61-107.86l8.99.78,8.99-.78Z"/><path class="e" d="M974.84,735.85h-7.68c-2.05-2.62-4.69-5.85-7.93-9.69-4.1-4.88-7.34-8.64-9.72-11.26l-106.67-119.56-2.66.08v140.43l-7.2-.78-7.2.78v-178.21h10.02l122.06,134.18h2.57v-134.18l7.45.78,6.94-.78v178.21Z"/><path class="e" d="M298.26,529.04L144.72,11l226.43,122.65L500.54,0l127.99,133.63L855.99,11.28l-151.92,517.76h-405.81ZM635.03,431.59l72.73-234.2-117.17,65.15-90.11-55.03-90.12,55.01-117.17-65.15,72.73,234.22h269.13ZM500.46,203.28l42.34-22.69-42.34-44.23-42.34,44.25,42.34,22.67Z"/><polygon class="h" points="721.32 257.54 651.83 481 346.32 481 276.3 257.54 721.32 257.54"/><g id="c"><path class="e" d="M359.45,309.3c-2.63,0-4.76,2.13-4.76,4.76s2.13,4.76,4.76,4.76,4.76-2.13,4.76-4.76-2.13-4.76-4.76-4.76ZM359.45,316.12c-1.09,0-1.98-.88-1.98-1.98s.88-1.98,1.98-1.98,1.98.88,1.98,1.98-.88,1.98-1.98,1.98Z"/><path class="e" d="M379.58,299.84c-.36-.08-1.42-.32-2.59.12-1.83.7-3.1,2.74-2.67,3.5.18.32.7.48,1.07.38.4-.11.54-.49.78-.82.61-.83,1.95-1.42,3.11-1.13.95.24,1.73,1.04,1.97,1.97.15.57.13,1.13-.03,1.63-.36,1.17-1.58,2.05-2.72,2-.94-.03-1.94-.69-2.48-1.44-.23-.33-.37-.66-.74-.77-.45-.14-1.09.1-1.24.46-.39.89,1.7,3.72,4.46,3.82,2.19.08,4.11-1.59,4.69-3.45.25-.81.3-1.7.09-2.63-.41-1.8-1.89-3.24-3.7-3.63Z"/><path class="e" d="M396.9,312c-3.41,0-6.17,2.76-6.17,6.17s2.76,6.17,6.17,6.17,6.17-2.76,6.17-6.17-2.76-6.17-6.17-6.17ZM396.9,321.59c-1.89,0-3.42-1.53-3.42-3.42s1.53-3.42,3.42-3.42,3.42,1.53,3.42,3.42-1.53,3.42-3.42,3.42Z"/><path class="e" d="M391.46,328.36c-3.02,0-5.46,2.44-5.46,5.46s2.44,5.46,5.46,5.46,5.46-2.44,5.46-5.46-2.44-5.46-5.46-5.46ZM391.46,337.25c-1.89,0-3.43-1.53-3.43-3.43s1.53-3.43,3.43-3.43,3.43,1.53,3.43,3.43-1.53,3.43-3.43,3.43Z"/><path class="e" d="M394.19,352.89c-3.02,0-5.47,2.45-5.47,5.47s2.45,5.47,5.47,5.47,5.47-2.45,5.47-5.47-2.45-5.47-5.47-5.47ZM394.19,361.07c-1.5,0-2.72-1.22-2.72-2.72s1.22-2.72,2.72-2.72,2.72,1.22,2.72,2.72-1.22,2.72-2.72,2.72Z"/><path class="e" d="M446.65,381.56c-2.64,0-4.77,2.14-4.77,4.77s2.14,4.77,4.77,4.77,4.77-2.14,4.77-4.77-2.14-4.77-4.77-4.77ZM445.95,389.7c-1.51,0-2.73-1.22-2.73-2.73s1.22-2.73,2.73-2.73,2.73,1.22,2.73,2.73-1.22,2.73-2.73,2.73Z"/><path class="e" d="M475.58,369.41c-4-.65-8.14.79-10.31,3.68-.56.74-.43,2.6.44,2.91.23.08,1.3-.08,1.48-.12.53-.1,1.63-.84,1.86-1.26,1.23-2.2,2.79-2.99,5.32-2.7,2.97.34,5.62,2.33,6.3,5.23,1.22,5.16-2.68,9.71-8.09,8.79-2.17-.37-3.14-1.03-4.47-2.96-.54-.78-1.73-3.16-1.72-3.99,0-.73.01-1.37-.65-1.54-.15-.04-1.2.25-1.37.35-.56.33-.64.66-.71,1.13-.12.73,0,1.5.13,2.27.74,4.47,4.52,8,9.03,8.45,6.43.64,11.79-4.69,11.22-11.11-.41-4.56-3.93-8.4-8.46-9.13Z"/><path class="e" d="M447.32,265.7c-2.26,0-4.09,1.83-4.09,4.09s1.83,4.09,4.09,4.09,4.09-1.83,4.09-4.09-1.83-4.09-4.09-4.09ZM447.32,271.25c-.8,0-1.46-.65-1.46-1.46s.65-1.46,1.46-1.46,1.46.65,1.46,1.46-.65,1.46-1.46,1.46Z"/><path class="e" d="M595.84,350.18c-2.26,0-4.1,1.83-4.1,4.1s1.83,4.1,4.1,4.1,4.1-1.83,4.1-4.1-1.83-4.1-4.1-4.1ZM595.84,357.01c-1.51,0-2.73-1.22-2.73-2.73s1.22-2.73,2.73-2.73,2.73,1.22,2.73,2.73-1.22,2.73-2.73,2.73Z"/><path class="e" d="M618.94,320.22c-5.25,0-9.5,4.25-9.5,9.5s4.25,9.5,9.5,9.5,9.5-4.25,9.5-9.5-4.25-9.5-9.5-9.5ZM618.94,336.44c-3.72,0-6.73-3.01-6.73-6.73s3.01-6.73,6.73-6.73,6.73,3.01,6.73,6.73-3.01,6.73-6.73,6.73Z"/><path class="e" d="M648.3,318.84c-1.88,0-3.41,1.53-3.41,3.41s1.53,3.41,3.41,3.41,3.41-1.53,3.41-3.41-1.53-3.41-3.41-3.41ZM648.3,324.3c-1.13,0-2.05-.92-2.05-2.05s.92-2.05,2.05-2.05,2.05.92,2.05,2.05-.92,2.05-2.05,2.05Z"/><path class="e" d="M632.6,299.76c-3.02,0-5.46,2.45-5.46,5.46s2.45,5.46,5.46,5.46,5.46-2.45,5.46-5.46-2.45-5.46-5.46-5.46ZM633.31,309.31c-1.88,0-3.4-1.83-3.4-4.09s1.52-4.09,3.4-4.09,3.4,1.83,3.4,4.09-1.52,4.09-3.4,4.09Z"/><path class="e" d="M572,282.06c-2.62,0-4.75,2.44-4.75,5.46s2.13,5.46,4.75,5.46,4.75-2.44,4.75-5.46-2.13-5.46-4.75-5.46ZM571.99,290.24c-1.13,0-2.04-1.22-2.04-2.73s.92-2.73,2.04-2.73,2.04,1.22,2.04,2.73-.92,2.73-2.04,2.73Z"/><path class="e" d="M560.41,292.95c-4.52,0-8.18,3.66-8.18,8.18s3.66,8.18,8.18,8.18,8.18-3.66,8.18-8.18-3.66-8.18-8.18-8.18ZM560.41,306.56c-3.01,0-5.44-2.44-5.44-5.44s2.44-5.44,5.44-5.44,5.44,2.44,5.44,5.44-2.44,5.44-5.44,5.44Z"/><path class="e" d="M518.16,339.29c-3.77,0-6.82,3.05-6.82,6.82s3.05,6.82,6.82,6.82,6.82-3.05,6.82-6.82-3.05-6.82-6.82-6.82ZM518.2,350.19c-2.26,0-4.1-1.83-4.1-4.08s1.84-4.08,4.1-4.08,4.1,1.83,4.1,4.08-1.84,4.08-4.1,4.08Z"/><circle class="f" cx="484.11" cy="357" r="5.45"/><path class="f" d="M471.18,344.81c-3.39,0-6.13,3.04-6.13,6.78s2.75,6.78,6.13,6.78c1.99,0,3.74-1.06,4.86-2.69.18-1.12.59-2.17,1.18-3.09.04-.33.09-.66.09-1,0-3.75-2.75-6.78-6.13-6.78Z"/><path class="e" d="M476.04,355.68c-1.12,1.62-2.87,2.69-4.86,2.69-3.39,0-6.13-3.04-6.13-6.78s2.75-6.78,6.13-6.78,6.13,3.04,6.13,6.78c0,.34-.05.67-.09,1,.48-.75,2.48-2.44,3.17-3-2.33-4.33-5.39-7.6-9.72-7.6-4.62,0-8.36,4.29-8.36,9.59s3.74,9.59,8.36,9.59c2.09,0,4-.89,5.47-2.34-.14-.59-.21-1.2-.21-1.83,0-.45.05-.89.12-1.32Z"/><path class="e" d="M484.11,348.82c-1.94,0-4.83-.03-6.34.87.03.32,0,2.27,0,2.6,0,2.9.14,4.79-1.63,6.55.83,3.64,4.08,6.35,7.97,6.35,4.52,0,8.18-3.66,8.18-8.18s-3.66-8.18-8.18-8.18ZM484.11,362.46c-3.01,0-5.45-2.44-5.45-5.45s2.44-5.45,5.45-5.45,5.45,2.44,5.45,5.45-2.44,5.45-5.45,5.45Z"/><path class="e" d="M478.99,350.62c-.69.56-1.29,1.22-1.77,1.97-.16,1.15-.57,2.2-1.18,3.09-.07.43-.12.87-.12,1.32,0,.63.08,1.24.21,1.83,1.77-1.76,2.9-4.35,2.9-7.25,0-.33-.01-.65-.04-.97Z"/><circle class="f" cx="527.73" cy="307.94" r="2.75"/><path class="f" d="M512.67,318.92c0,4.16,3.37,7.53,7.53,7.53s7.53-3.37,7.53-7.53c0-1.62-.52-3.11-1.38-4.34-1.8-.37-3.33-1.46-4.3-2.95-.59-.15-1.21-.24-1.85-.24-4.16,0-7.53,3.37-7.53,7.53Z"/><path class="e" d="M526.35,314.57c.87,1.23,1.38,2.72,1.38,4.34,0,4.16-3.37,7.53-7.53,7.53s-7.53-3.37-7.53-7.53,3.37-7.53,7.53-7.53c.64,0,1.26.09,1.85.24-.44-.67-.76-1.42-.93-2.23-.29-.02-.58-.04-.88-.04-5.64,0-10.22,4.56-10.22,10.18s4.58,10.18,10.22,10.18,10.22-4.56,10.22-10.18c0-1.81-.48-3.5-1.31-4.97-.46.1-.93.15-1.42.15s-.94-.05-1.38-.14Z"/><path class="e" d="M534.52,307.94c0-3.75-3.04-6.78-6.78-6.78s-6.78,3.04-6.78,6.78c0,.5.06.99.17,1.46,3.46.29,6.42,2.3,8.04,5.17,3.06-.65,5.36-3.37,5.36-6.63ZM527.73,310.69c-1.52,0-2.75-1.23-2.75-2.75s1.23-2.75,2.75-2.75,2.75,1.23,2.75,2.75-1.23,2.75-2.75,2.75Z"/><path class="e" d="M521.12,309.4c.18.81.5,1.56.93,2.23,1.76.45,3.27,1.51,4.3,2.95.45.09.91.14,1.38.14s.96-.06,1.42-.15c-1.61-2.87-4.58-4.87-8.04-5.17Z"/><path class="e" d="M526.05,257.05c-8.78,0-15.91,7.12-15.91,15.91s7.12,15.91,15.91,15.91,15.91-7.12,15.91-15.91-7.12-15.91-15.91-15.91ZM526.05,285.57c-6.97,0-12.62-5.65-12.62-12.62s5.65-12.62,12.62-12.62,12.62,5.65,12.62,12.62-5.65,12.62-12.62,12.62Z"/><path class="f" d="M580.84,317.48c0,2.26,1.84,4.1,4.1,4.1s4.1-1.84,4.1-4.1c0-.79-.23-1.51-.62-2.14-1.04-.52-2.02-1.16-2.91-1.9-.19-.03-.37-.06-.57-.06-2.26,0-4.1,1.84-4.1,4.1Z"/><path class="f" d="M594.49,288.95c-6.13,0-11.11,5.24-11.11,11.71s4.97,11.71,11.11,11.71,11.11-5.24,11.11-11.71-4.97-11.71-11.11-11.71ZM587.65,306.85c-5.07-5.07-1.37-8.36-1.37-8.36l1.06,3.32c1.01,1.83,2.96,4.21,4.95,4.87l3.55,1.31s-3.4,3.67-8.2-1.13Z"/><path class="e" d="M589.03,317.48c0,2.26-1.84,4.1-4.1,4.1s-4.1-1.84-4.1-4.1,1.84-4.1,4.1-4.1c.19,0,.38.03.57.06-.89-.74-1.71-1.56-2.43-2.48-2.85.81-4.95,3.41-4.95,6.52,0,3.76,3.05,6.81,6.81,6.81s6.81-3.05,6.81-6.81c0-.32-.05-.63-.09-.94-1.13-.27-2.21-.68-3.24-1.2.38.62.62,1.35.62,2.14Z"/><path class="e" d="M596.19,308.52s-11.6,2.82-10.87-9.5c0,0,.92,5.85,10.87,9.5Z"/><path class="e" d="M595.16,283.94c-8.65,0-15.67,7.39-15.67,16.51,0,3.99,1.34,7.65,3.58,10.5.6-.17,1.21-.29,1.86-.29,3.44,0,6.26,2.56,6.72,5.87,1.13.27,2.3.43,3.51.43,8.65,0,15.67-7.39,15.67-16.51s-7.01-16.51-15.67-16.51ZM594.49,312.36c-6.13,0-11.11-5.24-11.11-11.71s4.97-11.71,11.11-11.71,11.11,5.24,11.11,11.71-4.97,11.71-11.11,11.71Z"/><path class="e" d="M584.93,310.67c-.65,0-1.27.12-1.86.29.72.92,1.54,1.75,2.43,2.48,1.24.17,2.29.89,2.91,1.9,1.02.52,2.11.92,3.24,1.2-.46-3.31-3.28-5.87-6.72-5.87Z"/><path class="e" d="M553.73,310.69c-14.32,0-25.93,11.61-25.93,25.93s11.61,25.93,25.93,25.93,25.93-11.61,25.93-25.93-11.61-25.93-25.93-25.93ZM553.73,358.37c-12.02,0-21.76-9.74-21.76-21.76s9.74-21.76,21.76-21.76,21.76,9.74,21.76,21.76-9.74,21.76-21.76,21.76Z"/><path class="e" d="M545.44,351.55s-6.9-1.04-8.29-6.53c-1.29-5.11,1.44-8.41,1.44-8.41,0,0-.74,5.75,1.42,8.85,2.24,3.22,5.42,6.09,5.42,6.09Z"/><path class="e" d="M548.16,358.57c-9.02,0-16.33,7.31-16.33,16.33s7.31,16.33,16.33,16.33,16.33-7.31,16.33-16.33-7.31-16.33-16.33-16.33ZM547.86,388.36c-7.15,0-12.95-5.8-12.95-12.95s5.8-12.95,12.95-12.95,12.95,5.8,12.95,12.95-5.8,12.95-12.95,12.95Z"/><path class="e" d="M542.7,382.9s-6.08-1.71-3.34-9.55c0,0,.02,3.86,3.34,9.55Z"/><path class="e" d="M480,313.28c-5.32,0-9.63,4.31-9.63,9.63s4.31,9.63,9.63,9.63,9.63-4.31,9.63-9.63-4.31-9.63-9.63-9.63ZM480,329.71c-3.75,0-6.8-3.04-6.8-6.8s3.04-6.8,6.8-6.8,6.8,3.04,6.8,6.8-3.04,6.8-6.8,6.8Z"/><path class="e" d="M486.86,269.35c-15.78,0-28.57,12.79-28.57,28.57s12.79,28.57,28.57,28.57,28.57-12.79,28.57-28.57-12.79-28.57-28.57-28.57ZM486.41,323.31c-14.02,0-25.39-11.37-25.39-25.39s11.37-25.39,25.39-25.39,25.39,11.37,25.39,25.39-11.37,25.39-25.39,25.39Z"/><path class="e" d="M466.42,301.14s-1.44,10.41,6.79,10.91c0,0-4.15-4.17-6.79-10.91Z"/><path class="e" d="M417.32,342.04c-4.51,0-8.16,3.65-8.16,8.16s3.65,8.16,8.16,8.16,8.16-3.65,8.16-8.16-3.65-8.16-8.16-8.16ZM417.32,356.99c-3.75,0-6.8-3.04-6.8-6.8s3.04-6.8,6.8-6.8,6.8,3.04,6.8,6.8-3.04,6.8-6.8,6.8Z"/><path class="e" d="M428.29,284.85c-10.15,0-18.37,8.22-18.37,18.37s8.22,18.37,18.37,18.37,18.37-8.22,18.37-18.37-8.22-18.37-18.37-18.37ZM428.29,317.44c-8.24,0-14.92-6.68-14.92-14.92s6.68-14.92,14.92-14.92,14.92,6.68,14.92,14.92-6.68,14.92-14.92,14.92Z"/><path class="e" d="M433.56,309.34c-11.66,0-21.11,9.45-21.11,21.11s9.45,21.11,21.11,21.11,21.11-9.45,21.11-21.11-9.45-21.11-21.11-21.11ZM433.56,348.24c-9.83,0-17.79-7.97-17.79-17.79s7.97-17.79,17.79-17.79,17.79,7.97,17.79,17.79-7.97,17.79-17.79,17.79Z"/><path class="e" d="M428.27,342.04s-6.98.96-6.71-8.21c0,0,.56,3.41,6.71,8.21Z"/></g><polygon class="e" points="721.32 257.54 767 125.84 618.94 196.22 500.47 71.45 393.49 190.89 232.22 122.64 276.3 257.54 721.32 257.54"/><path class="g" d="M624.46,159.44L500.47,29.99l-125.36,129.45L178.9,53.15l134.89,455.1h374.71L822.03,53.15l-197.57,106.29ZM650.35,452.39h-299.77l-92.65-298.41,151.93,84.48,52.46-32.02-38.14-20.44,76.3-79.71,76.3,79.71-38.14,20.44,52.46,32.03,151.93-84.47-92.66,298.39Z"/></g></svg>