<?xml version="1.0" encoding="UTF-8"?><svg id="a" xmlns="http://www.w3.org/2000/svg" viewBox="0 0 200 51.4"><defs><style>.b{stroke-width:3.66px;}.b,.c{fill:#231f20;}.b,.d,.e{stroke-miterlimit:10;}.b,.e{stroke:#231f20;}.f,.d{fill:#fff;}.d{stroke:#fff;stroke-width:.73px;}.e{fill:none;stroke-width:.54px;}</style></defs><path class="c" d="M27.8,47.19c.21-.19,5.11-4.77,6.27-6,.4-.43.43-.75.09-.95-.54-.33-1.81-.21-1.9-.2-.05,0-.68.06-1.56.14-.21,0-.36.02-.36.02,0,0-2.24.2-4.53.39-.56.05-1.08.09-1.52.12-.68.05-1.12.02-1.31-.1-.28-.18.02-.52.15-.64l5.02-4.5s.86-.76,2.31-1.16c.34.01.55.06.63.16.19.21-.24.56-.26.58l-4.91,4.49,8.8-.77.17-.02,1.91-.17.07-.07s2.95-3.09,5.09-5.22c.68-.69.8-1.17.37-1.43-.66-.39-2.36-.08-2.41-.07l-.97.15c-.51.03-.95.11-.95.11l-23.16,3.41,1.69-.04s1.5-.03,2.14.02c.08,0,.14.03.17.07.16.22-.44.78-.69.98-.04.04-4.37,3.78-5.82,4.96-.52.42-.62.73-.29.93.46.28,1.58.23,1.63.22l8.34-.56c.69-.05,1.14,0,1.33.12.3.19-.04.57-.2.71l-4.28,3.77s-1.06.79-2.84,1.07c-.28-.04-.48-.1-.59-.19-.25-.21,0-.5,0-.5h0s4.33-3.76,4.33-3.76l-8.08.48-.18.02-1.91.11-.07.06s-3.1,2.66-4.27,3.57c-1.12.85-3.67,1.19-3.7,1.2l-1.59.2,1.65-.02c.15,0,15.37-.2,19.23-.26.24,0,.49-.01.7-.02.48,0,.89-.01,1.22-.02,3.81-.06,4.9-1.23,5-1.35Z"/><path class="c" d="M90.45,46.45l-16.41.27,6.97-8.26,15.02-.92.17-.03,1.91-.12,2.3-3.23-16.97,1.38,7.32-9.22,17.84-2.65,1.96-3-1.95.31.03-.04-34.27,5.42,1.7.04s1.58.04,2.25.17c.09.02.15.06.18.12.18.35-.46,1.22-.72,1.52l-16.59,18.63c-1.3,1.33-3.88,1.84-3.9,1.85l-1.45.28,30.62-.07.02-.02h1.9s2.06-2.41,2.06-2.41Z"/><path class="c" d="M129.12,46.67l-19.53.05,7.68-10.17,18.04-1.12.15-.02,1.91-.12,3.13-4.33-1.88.16h0s-18.47,1.54-18.47,1.54l8.34-11.68,21.27-3.34,2.22-3.99-1.95.34.03-.06-38.69,6.53-.03.37c1.16-.05,3.11.03,3.42.49.24.35-.67,1.8-1.4,2.72l-18.91,23.11c-1.3,1.58-3.88,2.17-3.9,2.18l-1.45.32,35.31.21.03-.03,1.89.02,2.79-3.18Z"/><path class="c" d="M49.74,40.33c2.54-.17,6.84-.44,9.59-.62.23-.01.44-.04.58-.05l1.34-.08c3.81-.24,5.35-2.06,5.36-2.07.06-.07,5.97-6.91,7.34-8.67.74-.92.87-1.56.39-1.9-.72-.5-2.47-.11-2.52-.09l-.73.11c-.62.03-1.19.15-1.19.15,0,0,0,0,0,0l-26.75,4.06h1.69s1.58,0,2.25.09c.09.01.15.04.18.1.18.29-.46,1.02-.72,1.28-.13.14-12.71,13.11-14.05,14.28-1.3,1.11-3.88,1.55-3.9,1.56l-1.41.23,12.51-.08.03-.03h1.89s8.13-8.26,8.13-8.26ZM59.93,30.38c.33-.01.54.03.64.13.2.2-.11.62-.24.76h0c-.03.05-3.36,4.02-4.45,5.48-.82,1.08-2.6,1.46-3.35,1.57l-1.01.08,6.49-7.76c.27-.03.87-.11,1.93-.25Z"/><path class="c" d="M162.39,51.39c7.68.19,9.25-2.29,9.4-2.57l26.26-38.98c.96-1.24,1.3-2.22,1-2.92-.47-1.08-2.32-.95-2.4-.95h-.01s-1.7.28-1.7.28c-.13,0-.21,0-.23,0l-41.3,6.74v.44s2.1-.31,4.21.02c.45.07.71.24.8.51.2.59-.48,1.58-.78,1.93-.2.29-20.03,27.36-22.49,30.77-2.38,3.24-6.58,3.51-6.62,3.51v.4c.25,0,24.12.63,31.92.81.58.01,1.15.01,1.71,0h.21ZM153.18,48.11c-2-.01-3.01-.01-3.52,0l25.23-35.56,3.35-.53c.32.01,1.02.09,1.27.54.19.35.09.87-.29,1.56-1.46,2.6-20.67,29.96-20.87,30.22l-.02.03s-1.79,3.39-5.14,3.74Z"/><path class="f" d="M33.11,38.98s-5.34.46-7.98.67c-2.64.2-1.38-.87-1.38-.87l5.02-4.45s1.42-1.29,3.88-1.47c2.46-.18,1.18.87,1.18.87l-4.7,4.33,8.37-.75s2.93-3.04,5.1-5.18c2.03-2.05-1.8-1.33-1.8-1.33l-21.4,3.17s1.52-.04,2.2.02c.94.08-.41,1.18-.41,1.18,0,0-4.36,3.78-5.82,4.98-1.47,1.17,1.12,1.02,1.12,1.02,0,0,5.61-.39,8.34-.58,2.73-.19,1.36.97,1.36.97l-4.29,3.78s-1.51,1.16-4.1,1.22c-2.58.06-1.7-.85-1.7-.85l4.14-3.55-7.67.45s-3.09,2.66-4.27,3.58c-1.18.9-3.86,1.25-3.86,1.25,0,0,15.32-.21,19.23-.28,3.85-.06,4.76-1.27,4.76-1.27,0,0,5.08-4.68,6.28-5.93,1.2-1.27-1.57-.99-1.57-.99Z"/><path class="c" d="M2.76,47.57l1.59-.2s2.58-.35,3.7-1.2c1.17-.91,4.24-3.55,4.27-3.57l.07-.06,8.25-.5-4.33,3.71h0s-.31.34.06.54c.23.13.71.19,1.41.17,2.39-.06,3.85-1.15,3.87-1.16l4.28-3.77c.16-.13.49-.51.2-.71-.19-.13-.64-.17-1.33-.12l-8.34.57c-.06,0-1.17.06-1.63-.22-.33-.2-.23-.51.29-.93,1.45-1.18,5.78-4.93,5.82-4.97.25-.2.85-.77.69-.99-.03-.04-.08-.06-.17-.07-.64-.05-2.13-.02-2.14-.02l-1.69.04,23.16-3.44c.05-.01,1.75-.32,2.41.06.43.26.31.73-.37,1.42-2.14,2.11-5.06,5.15-5.09,5.18l-.07.07-8.97.79,4.91-4.5s.48-.4.23-.6c-.15-.13-.56-.17-1.21-.12-2.26.17-3.61,1.37-3.63,1.38l-5.02,4.45c-.14.12-.43.46-.15.63.19.12.63.15,1.31.1,2.58-.2,7.82-.66,7.97-.67.1,0,1.36-.13,1.9.2.34.2.31.52-.09.94-1.17,1.22-6.06,5.74-6.27,5.93-.1.12-1.19,1.28-5,1.34-3.87.06-19.08.26-19.23.27l-1.65.02ZM12.72,42.71c-.47.41-3.13,2.69-4.21,3.53-.73.56-1.97.91-2.89,1.11,3.69-.06,14.81-.22,18.03-.28,3.6-.06,4.47-1.14,4.51-1.19v-.02c.07-.05,5.11-4.68,6.29-5.91.32-.33.36-.58.13-.71-.39-.23-1.45-.13-1.46-.13h0c-.05,0-5.37.46-7.99.66-.87.07-1.46,0-1.75-.17-.48-.3.12-.82.14-.84l5.02-4.45c.06-.06,1.54-1.37,4.14-1.56.84-.06,1.39,0,1.62.2.37.31-.23.8-.26.82l-4.48,4.14,7.78-.7c.46-.47,3.07-3.17,5.03-5.1.57-.57.71-.97.39-1.16-.41-.24-1.54-.1-1.94-.02l-19.88,2.93c.29,0,.56.01.76.03.21.02.36.07.43.16.25.34-.63,1.07-.73,1.16-.04.03-4.37,3.8-5.82,4.98-.43.35-.53.59-.3.74.32.2,1.19.15,1.2.15l8.33-.58c.88-.06,1.48,0,1.77.19.5.33-.16.9-.19.92l-4.28,3.78c-.07.05-1.63,1.22-4.33,1.28-.88.02-1.49-.06-1.83-.25-.53-.29-.12-.71-.11-.73l3.97-3.39-7.09.41Z"/><path class="f" d="M81.71,37.06l17.08-1.07,2.04-2.85-16.98,1.38,7.6-9.52,17.84-2.69,1.69-2.59-32.08,5.1s1.6.04,2.3.17c.99.18-.43,1.85-.43,1.85l-16.59,18.73c-1.36,1.4-4.05,1.92-4.05,1.92l28.95-.09,1.77-2.06-16.4.26,7.25-8.53Z"/><path class="c" d="M58.61,47.64l1.45-.28s2.61-.52,3.9-1.85l16.59-18.71c.26-.31.9-1.17.72-1.53-.03-.07-.09-.1-.18-.12-.67-.12-2.24-.16-2.25-.16l-1.69-.04,34.27-5.47-1.96,3-17.84,2.67-7.32,9.18,16.97-1.39-2.3,3.22-17.09,1.06-6.98,8.23,16.41-.27-2.06,2.4-30.62.07ZM81.82,25.34c0,.58-.72,1.44-.82,1.55l-16.59,18.74c-.85.88-2.19,1.42-3.12,1.71l27.64-.11,1.49-1.73-16.39.24,7.53-8.84,17.08-1.09,1.78-2.48-17,1.36,7.88-9.86,17.83-2.7,1.43-2.18-30.09,4.76c.32.03.64.06.87.1.22.04.37.14.44.28.03.07.05.14.05.23Z"/><path class="f" d="M117.98,35.12l20.11-1.28,2.81-3.88-20.35,1.7,8.64-12.06,21.26-3.38,1.95-3.5-38.25,6.48s3.13-.15,3.63.56c.41.6-1.41,2.91-1.41,2.91l-18.91,23.24c-1.37,1.67-4.05,2.27-4.05,2.27l33.64.17,2.44-2.78-19.48.04,7.97-10.5Z"/><path class="c" d="M91.87,48.35l1.45-.32s2.61-.6,3.9-2.19l18.91-23.23c.73-.92,1.65-2.38,1.4-2.73-.31-.46-2.27-.54-3.42-.49l.03-.37,38.69-6.59-2.22,3.98-21.27,3.36-8.34,11.66,20.36-1.72-3.13,4.32-20.1,1.26-7.69,10.14,19.53-.05-2.79,3.17h-.14s-35.17-.21-35.17-.21ZM118.09,19.95c0,.84-1.23,2.44-1.51,2.79l-18.9,23.25c-.85,1.04-2.18,1.68-3.12,2.02l32.35.14,2.1-2.38-19.44.02,8.26-10.87,20.11-1.29,2.49-3.44-20.33,1.68,8.94-12.47,21.25-3.4,1.68-3.02-35.77,6.04c.79.07,1.56.24,1.81.61.06.08.08.18.08.3Z"/><path class="f" d="M67.22,36.26s5.95-6.84,7.33-8.61c2.19-2.72-1.89-1.79-1.89-1.79l-25,3.81s1.6,0,2.3.09c.99.13-.43,1.54-.43,1.54,0,0-12.7,13.15-14.06,14.34-1.36,1.17-4.05,1.62-4.05,1.62l10.86-.08,8.14-8.18s7.56-.51,11.66-.77c3.69-.24,5.13-1.97,5.13-1.97ZM55.02,37.14l-3.07.23,6.74-7.98s.96-.11,3.47-.48c2.46-.35,1.15,1.02,1.15,1.02,0,0-3.34,4.01-4.44,5.49-1.1,1.46-3.85,1.72-3.85,1.72Z"/><path class="c" d="M29.95,47.39l1.41-.23s2.61-.45,3.9-1.56c1.34-1.17,13.93-14.18,14.05-14.32.27-.26.9-.99.72-1.28-.03-.05-.09-.08-.18-.1-.67-.09-2.24-.09-2.25-.09h-1.69s26.75-4.09,26.75-4.09c.04-.01,1.8-.4,2.52.09.48.34.35.97-.39,1.89-1.36,1.75-7.22,8.49-7.33,8.62-.08.1-1.64,1.83-5.36,2.06-3.75.24-10.38.67-11.49.75l-8.14,8.19-12.51.08ZM50.58,30.04c0,.48-.72,1.21-.82,1.3-.12.13-12.71,13.17-14.05,14.35-.86.74-2.2,1.2-3.14,1.45l9.57-.08,8.14-8.18h.16s7.56-.52,11.66-.79c3.47-.22,4.83-1.81,4.89-1.88h0c.06-.07,5.96-6.85,7.33-8.6.64-.78.78-1.33.43-1.57-.53-.37-2.03-.03-2.05-.03l-23.48,3.56c.32.01.64.04.87.07.22.03.37.11.44.22.03.06.05.12.05.19ZM51.54,37.53l6.99-8.27.17-.02s.99-.12,3.46-.48c.81-.12,1.35-.07,1.61.13.45.36-.19,1.04-.22,1.07-.02.03-3.34,4.02-4.43,5.48-1.16,1.53-3.96,1.81-4.08,1.82h0s-3.48.26-3.48.26ZM58.85,29.51l-6.49,7.7,2.66-.2c.16-.02,2.6-.28,3.61-1.62,1.09-1.46,4.42-5.45,4.45-5.49.15-.16.47-.6.23-.79-.19-.15-.73-.12-1.14-.06-1.92.27-2.94.41-3.31.45Z"/><path class="f" d="M197.48,4.93l-41.3,6.77s2.11-.32,4.3.01c2.18.35.16,2.77.16,2.77,0,0-19.99,27.49-22.48,30.96-2.49,3.4-6.83,3.63-6.83,3.63,0,0,24.02.61,31.91.78,7.89.19,9.17-2.46,9.17-2.46l26.29-39.01c2.92-3.78-1.23-3.46-1.23-3.46ZM182.2,12.67c-1.48,2.65-20.88,30.44-20.88,30.44,0,0-2.04,3.97-6.06,3.93-4.73-.04-5.23-.01-5.23-.01l25.57-35.98,5.17-.83s2.91-.23,1.43,2.44Z"/><path class="c" d="M131.31,48.87s4.24-.27,6.62-3.53c2.46-3.43,22.29-30.66,22.49-30.95.3-.36.98-1.35.78-1.95-.09-.27-.35-.44-.8-.51-2.11-.33-4.19-.02-4.21-.02v-.44s41.3-6.8,41.3-6.8h.01c.08,0,1.92-.14,2.4.94.3.69-.03,1.68-1,2.92l-26.26,38.98c-.15.28-1.72,2.76-9.4,2.57-7.8-.18-31.67-.8-31.91-.81v-.4ZM161.75,12.61c0,.89-.87,1.94-.91,1.99-.18.27-20,27.51-22.46,30.94-1.47,2.02-3.54,2.95-5.05,3.37,5.93.13,23.45.57,29.92.71,7.57.17,8.92-2.3,8.93-2.33l.02-.04,26.29-38.99c.83-1.07,1.15-1.89.93-2.4-.34-.77-1.81-.7-1.95-.69l-37.9,6.18c.32.03.66.06.99.11.61.1.99.35,1.13.77.04.11.05.23.05.36ZM149.53,47.27l.28-.36,25.64-36.08,5.31-.85c.08,0,1.44-.11,1.94.69.31.5.22,1.2-.27,2.08-1.46,2.62-19.93,29.19-20.88,30.45-.17.33-2.25,4.09-6.3,4.05-4.61-.04-5.19-.02-5.21-.02l-.51.03ZM175.73,11.27l-25.23,35.54c.61,0,1.93,0,4.76.02,3.8.03,5.8-3.76,5.82-3.8l.02-.03c.19-.26,19.41-27.8,20.87-30.41h0c.4-.72.49-1.26.27-1.61-.36-.57-1.48-.5-1.49-.5l-5.02.8Z"/><polygon class="f" points="190.1 .27 115.93 2.1 110.56 12.41 190.1 .27"/><polygon class="e" points="190.1 .27 115.93 2.1 110.56 12.41 190.1 .27"/><path class="b" d="M41.01,15.81l-7.98,8.86c-.48.53-.78.89-.91,1.08-.29.42-.28.66.05.73l-.42.47-4.97.89c-.77.14-.96-.06-.57-.6.09-.12.29-.36.61-.71L45.43,6.07c.22-.26.4-.47.55-.63.14-.16.26-.3.34-.42.28-.4.29-.67.03-.81l.43-.49h3.91c.6,0,.75.22.44.67-.03.04-.09.12-.16.22-.08.1-.17.21-.26.32-.05.05-.09.09-.12.14l-.02.03-6.2,6.97,6.18-.47,5.01-5.75c.19-.23.35-.42.47-.57.13-.15.22-.28.29-.38.23-.36.21-.6-.06-.73l.37-.45h3.91c.6,0,.78.2.53.61-.04.06-.11.16-.22.3-.11.14-.2.25-.26.33l-15.22,17.68c-.42.48-.68.81-.79.98-.25.38-.18.59.19.64l-.4.43-4.97.89c-.77.14-.99-.04-.66-.52.07-.11.25-.33.53-.65l8.22-9.28-6.46.68Z"/><path class="b" d="M50.05,23.67c-.79.14-1.06,0-.8-.42.04-.06.11-.15.2-.28.1-.13.2-.24.31-.35l14.34-16.96c.17-.21.3-.39.41-.52.11-.13.19-.25.25-.35.19-.33.14-.55-.14-.66l.33-.41h3.91c.6,0,.79.19.58.57-.1.18-.23.36-.39.55l-13.26,16.08c-.37.44-.59.74-.68.89-.2.34-.11.53.28.57l-.36.4-4.97.89Z"/><path class="b" d="M85.41,5.22c-.2.26-.43.45-.69.55-.26.1-.66.16-1.18.18l-3.55.12c-.64.02-1.21.06-1.69.13-.48.06-.91.16-1.28.28-.37.13-.71.3-1.03.51-.32.22-.64.48-.96.78-.26.24-.48.46-.68.67-.2.21-.41.43-.62.66-.21.23-.44.48-.67.75-.23.27-.5.58-.8.95-.96,1.13-1.8,2.2-2.54,3.2-.74,1-1.24,1.75-1.49,2.25-.21.41-.26.75-.16,1.02.11.27.37.41.78.44.27.02.56.02.87,0,.31-.02.84-.1,1.58-.21.63-.1,1.14-.2,1.55-.31.41-.11.77-.26,1.08-.46.31-.2.62-.45.91-.77.29-.31.62-.72.99-1.21l2.12-2.8-2.71.29c-.5.05-.82.05-.98,0-.16-.05-.19-.19-.09-.4.02-.05.07-.12.14-.22.07-.1.14-.2.23-.3l1.25-1.6,6.21-.48c.39-.03.67-.04.82-.04.15,0,.26.03.34.08.23.1.3.25.22.45-.05.12-.18.33-.4.63l-4.82,6.61c-.4.53-.78.95-1.16,1.27-.38.32-.86.59-1.45.81-.59.22-1.36.43-2.3.62-.94.19-2.16.42-3.68.7-1.8.33-3.23.53-4.28.61-1.04.08-1.81,0-2.32-.23-.54-.25-.82-.65-.84-1.2-.03-.56.19-1.24.64-2.06.33-.6.83-1.35,1.49-2.24.65-.89,1.39-1.84,2.2-2.83.81-.98,1.64-1.95,2.5-2.91.85-.95,1.65-1.79,2.38-2.53,1.18-1.15,2.38-1.98,3.61-2.49,1.21-.49,2.61-.74,4.23-.74h7.2s-.97,1.5-.97,1.5Z"/><path class="b" d="M91.3,10.51l-3.41,5.13c-.21.31-.33.52-.36.63-.07.24.09.36.5.36l-.18.28-4.97.89c-.77.14-1.1.05-.98-.26.03-.07.11-.21.26-.43l8.3-12.04c.08-.15.15-.27.21-.36.06-.09.1-.17.12-.24.07-.23-.06-.38-.39-.46l.18-.28h3.91c.6,0,.87.12.81.37,0,.02-.02.06-.04.12-.02.06-.05.11-.08.18-.03.03-.04.05-.05.07v.02s-2.44,3.9-2.44,3.9l6.18-.47,1.72-3.07c.05-.12.1-.22.14-.3.04-.08.06-.15.07-.2.02-.19-.14-.32-.49-.38l.12-.24h3.91c.6,0,.9.1.9.3,0,.03,0,.08-.03.15-.02.07-.04.13-.06.17l-4.9,9.27c-.15.26-.22.44-.23.53-.02.2.19.29.63.28l-.16.24-4.97.89c-.77.14-1.13.07-1.07-.19.01-.06.07-.18.18-.36l3.16-5.16-6.46.68Z"/><path class="d" d="M41.09,16.71l-7.94,8.82c-.48.53-.78.89-.91,1.07-.29.42-.27.65.07.72l-.42.47-5.02.93c-.78.14-.97-.05-.59-.58.09-.12.29-.36.61-.71L45.4,7.06c.22-.26.4-.47.54-.63.14-.16.25-.3.34-.42.28-.4.28-.66.02-.79l.43-.49,3.95-.04c.61,0,.76.21.46.66-.03.04-.08.12-.16.22-.08.1-.17.21-.26.32-.05.05-.09.09-.12.13l-.02.03-6.16,6.94,6.24-.53,4.97-5.72c.19-.23.34-.42.47-.57.13-.15.22-.27.29-.38.23-.36.2-.6-.08-.72l.37-.44,3.96-.04c.61,0,.79.19.54.59-.04.06-.11.16-.21.3-.11.14-.19.25-.26.33l-15.11,17.59c-.41.48-.68.8-.78.97-.24.38-.17.58.2.63l-.4.43-5.02.93c-.78.14-1-.03-.68-.51.07-.11.25-.32.53-.64l8.17-9.24-6.53.74Z"/><path class="d" d="M50.37,24.37c-.8.15-1.07.01-.81-.41.04-.06.11-.15.2-.28.1-.12.2-.24.31-.35l14.23-16.87c.16-.21.3-.38.41-.52.11-.13.19-.25.24-.34.19-.33.14-.54-.16-.65l.32-.4,3.96-.04c.61,0,.8.18.59.56-.1.18-.23.36-.38.54l-13.15,15.99c-.36.44-.59.73-.68.89-.2.34-.11.53.29.56l-.36.39-5.02.93Z"/><path class="d" d="M85.85,5.82c-.2.26-.42.44-.69.55-.27.1-.66.17-1.2.19l-3.59.15c-.65.03-1.22.07-1.71.14-.49.07-.92.17-1.29.29-.37.13-.71.3-1.03.51-.32.22-.64.48-.96.78-.25.24-.48.46-.68.67-.2.2-.4.42-.62.65-.21.23-.43.48-.67.75-.23.27-.5.58-.8.94-.95,1.13-1.79,2.19-2.51,3.18-.73.99-1.22,1.74-1.47,2.23-.21.41-.25.74-.14,1.01.11.26.38.4.8.43.27.02.56.01.88-.02.31-.03.85-.1,1.6-.22.63-.1,1.15-.21,1.56-.32.41-.11.77-.26,1.09-.46.31-.2.62-.45.91-.77.29-.31.62-.72.98-1.2l2.1-2.79-2.74.31c-.5.06-.83.06-.99,0-.16-.05-.19-.18-.09-.39.02-.05.07-.12.14-.22.06-.1.14-.2.23-.3l1.23-1.59,6.27-.53c.4-.03.67-.05.82-.05.15,0,.27.03.35.08.23.09.31.24.23.44-.04.12-.17.32-.39.62l-4.76,6.56c-.39.52-.77.95-1.15,1.26-.38.32-.86.59-1.46.81-.6.22-1.37.43-2.32.63-.95.2-2.18.44-3.72.72-1.82.34-3.26.55-4.32.64-1.05.09-1.84.02-2.35-.21-.55-.24-.84-.63-.88-1.17-.04-.55.17-1.23.61-2.03.32-.59.81-1.34,1.47-2.23.65-.89,1.38-1.83,2.18-2.81.8-.98,1.63-1.94,2.49-2.9.85-.94,1.64-1.78,2.37-2.51,1.18-1.15,2.38-1.97,3.61-2.49,1.21-.5,2.63-.75,4.27-.77l7.29-.07-.96,1.49Z"/><path class="d" d="M91.91,10.98l-3.36,5.09c-.21.31-.32.52-.35.62-.07.24.1.35.51.35l-.18.27-5.02.93c-.78.14-1.11.06-1-.25.03-.07.11-.21.25-.42l8.19-11.95c.08-.15.15-.27.21-.36.06-.09.09-.17.11-.24.07-.23-.07-.37-.41-.45l.17-.28,3.95-.04c.61,0,.88.11.83.36,0,.02-.02.06-.04.12-.02.05-.05.11-.08.17-.03.03-.04.05-.05.07v.02s-2.4,3.87-2.4,3.87l6.24-.53,1.69-3.05c.05-.12.1-.22.13-.3.04-.08.06-.14.07-.2.02-.19-.15-.31-.5-.37l.11-.23,3.96-.04c.61,0,.91.09.91.29,0,.03,0,.08-.03.15-.02.07-.04.13-.06.17l-4.79,9.18c-.14.26-.22.43-.23.52-.02.2.2.28.65.27l-.16.24-5.02.93c-.78.14-1.14.08-1.09-.18.01-.06.07-.18.18-.36l3.11-5.11-6.53.74Z"/></svg>