<?xml version="1.0" encoding="UTF-8"?><svg xmlns="http://www.w3.org/2000/svg" xmlns:xlink="http://www.w3.org/1999/xlink" viewBox="0 0 412.07 400"><defs><style>.by{fill:url(#bn);}.bz{fill:url(#w);}.ca{fill:url(#ad);}.ca,.cb,.cc,.cd{mix-blend-mode:screen;}.ce{fill:url(#bc);}.cf{fill:url(#bx);}.cg{fill:url(#t);}.ch{fill:#30a1db;}.ci{fill:url(#m);}.ci,.cj,.ck,.cl,.cm,.cn,.co,.cp,.cq,.cr,.cs,.ct,.cu,.cv,.cw,.cx,.cy,.cz,.da,.db,.dc,.dd{fill-rule:evenodd;}.cj{fill:url(#aa);}.cj,.cp{mix-blend-mode:overlay;opacity:.8;}.de{fill:url(#bl);}.df{fill:url(#ay);}.ck{fill:url(#d);}.dg{fill:url(#aj);}.dh{fill:#2a3071;}.di{clip-path:url(#ai);}.cl{fill:#ffa036;}.dj,.cn,.cx{fill:#fff;}.cb{fill:url(#ac);}.dk{clip-path:url(#bs);}.dl{clip-path:url(#bk);}.dm{fill:url(#ar);}.cm{fill:url(#i);}.dn{clip-path:url(#bi);}.do{fill:url(#an);}.co{fill:url(#bf);}.co,.cz{mix-blend-mode:multiply;opacity:.71;}.dp{fill:none;}.cp{fill:url(#be);}.dq{clip-path:url(#am);}.dr{clip-path:url(#bw);}.ds{fill:url(#z);}.dt{fill:url(#bb);}.du{fill:url(#ax);}.dv{fill:url(#q);}.dw{clip-path:url(#aq);}.cq{fill:url(#o);}.dx{fill:url(#ap);}.dy{clip-path:url(#ak);}.cr{fill:url(#n);}.dz{fill:url(#bj);}.ea{clip-path:url(#bo);}.eb{clip-path:url(#bq);}.ec{clip-path:url(#ag);}.cs{fill:url(#f);}.ed{isolation:isolate;}.ee{fill:url(#bt);}.cc{fill:url(#bg);}.ef{clip-path:url(#bu);}.eg{fill:url(#br);}.eh{fill:url(#aw);}.ei{fill:url(#v);}.ct{fill:url(#k);}.ej{fill:url(#az);}.cu{fill:url(#l);}.ek{fill:url(#x);}.el{fill:url(#y);}.em{clip-path:url(#ao);}.cv{fill:url(#h);}.en{fill:url(#ba);}.eo{fill:url(#av);}.ep{fill:#010000;}.eq{clip-path:url(#ae);}.er{clip-path:url(#bm);}.cw{fill:url(#c);}.cx{opacity:.4;}.es{fill:url(#al);}.et{fill:url(#at);}.eu{fill:url(#r);}.cy{fill:url(#b);}.cz{fill:url(#ab);}.ev{fill:url(#bv);}.da{fill:url(#g);}.ew{fill:url(#u);}.ex{fill:#76c6cf;}.ey{fill:url(#af);}.db{fill:url(#p);}.ez{fill:url(#bp);}.fa{fill:url(#au);}.fb{fill:url(#ah);}.fc{clip-path:url(#as);}.fd{fill:#2a255b;}.fe{fill:url(#bd);}.ff{fill:#f9fafa;}.dc{fill:url(#e);}.dd{fill:url(#j);}.fg{fill:url(#s);}.cd{fill:url(#bh);}</style><linearGradient id="b" x1="127.38" y1="131.86" x2="127.38" y2="6.29" gradientUnits="userSpaceOnUse"><stop offset="0" stop-color="#ffd348"/><stop offset="1" stop-color="#ffb636"/></linearGradient><linearGradient id="c" x1="288.5" y1="121.37" x2="400.52" y2="121.37" xlink:href="#b"/><linearGradient id="d" x1="283.83" y1="114.27" x2="283.83" y2="58.7" xlink:href="#b"/><linearGradient id="e" x1="221.47" x2="221.47" y2="23.1" xlink:href="#b"/><linearGradient id="f" x1="118.13" y1="273.77" x2="9.8" y2="273.77" xlink:href="#b"/><linearGradient id="g" x1="197.12" y1="260.56" x2="197.12" y2="387.19" xlink:href="#b"/><linearGradient id="h" x1="294.48" y1="225.95" x2="360.6" y2="340.47" xlink:href="#b"/><linearGradient id="i" x1="154.24" y1="197.63" x2="99.98" y2="197.63" xlink:href="#b"/><linearGradient id="j" x1="294.41" y1="211.25" x2="348.46" y2="211.25" xlink:href="#b"/><linearGradient id="k" x1="170.25" y1="266.25" x2="170.25" y2="284.97" xlink:href="#b"/><linearGradient id="l" x1="252.34" y1="280.73" x2="252.34" y2="297.54" xlink:href="#b"/><linearGradient id="m" x1="253.85" y1="229.76" x2="158.22" y2="229.76" xlink:href="#b"/><linearGradient id="n" x1="186.27" y1="189.88" x2="296.61" y2="189.88" xlink:href="#b"/><linearGradient id="o" x1="194.96" y1="206.16" x2="264.21" y2="206.16" gradientUnits="userSpaceOnUse"><stop offset="0" stop-color="#ffd348"/><stop offset=".39" stop-color="#ffcf45"/><stop offset=".72" stop-color="#ffc53f"/><stop offset="1" stop-color="#ffb636"/></linearGradient><linearGradient id="p" x1="202.06" y1="213.73" x2="225.59" y2="213.73" gradientUnits="userSpaceOnUse"><stop offset="0" stop-color="#ffb636"/><stop offset=".03" stop-color="#ffb837"/><stop offset=".28" stop-color="#ffc740"/><stop offset=".56" stop-color="#ffd046"/><stop offset="1" stop-color="#ffd348"/></linearGradient><linearGradient id="q" x1="287.85" y1="161.31" x2="287.85" y2="295.72" gradientTransform="translate(142.46 -131.68) rotate(30)" gradientUnits="userSpaceOnUse"><stop offset="0" stop-color="#103d32"/><stop offset=".28" stop-color="#0d241e"/><stop offset=".54" stop-color="#103b30"/><stop offset=".78" stop-color="#0c201a"/><stop offset="1" stop-color="#103d32"/></linearGradient><linearGradient id="r" x1="260.08" y1="314.23" x2="260.08" y2="159.02" gradientTransform="translate(142.46 -131.68) rotate(30)" gradientUnits="userSpaceOnUse"><stop offset="0" stop-color="#c69c40"/><stop offset=".28" stop-color="#0d241e"/><stop offset=".54" stop-color="#103b30"/><stop offset=".78" stop-color="#0c201a"/><stop offset="1" stop-color="#af852a"/></linearGradient><linearGradient id="s" x1="315.87" y1="320.41" x2="315.87" y2="150.49" xlink:href="#r"/><linearGradient id="t" x1="230.35" y1="244.27" x2="354.76" y2="147.38" gradientTransform="translate(142.46 -131.68) rotate(30)" gradientUnits="userSpaceOnUse"><stop offset="0" stop-color="#97792b"/><stop offset=".23" stop-color="#c6a553"/><stop offset=".41" stop-color="#f9ea97"/><stop offset=".59" stop-color="#dabc6e"/><stop offset=".77" stop-color="#f3d680"/><stop offset="1" stop-color="#896d23"/><stop offset="1" stop-color="#a98d46"/></linearGradient><linearGradient id="u" x1="350.44" y1="270.64" x2="285.69" y2="197.02" gradientTransform="translate(410.2 -144.67) rotate(75)" xlink:href="#q"/><linearGradient id="v" x1="300.89" y1="212.53" x2="251.66" y2="163.3" xlink:href="#q"/><linearGradient id="w" x1="323.1" y1="126.88" x2="270.02" y2="237.25" xlink:href="#q"/><linearGradient id="x" x1="341.48" y1="162.2" x2="248.47" y2="226.87" xlink:href="#t"/><linearGradient id="y" x1="287.85" y1="252.95" x2="287.85" y2="149.52" xlink:href="#t"/><linearGradient id="z" x1="325.65" y1="247.78" x2="252.07" y2="153.75" xlink:href="#t"/><linearGradient id="aa" x1="251.7" y1="168.69" x2="333.25" y2="179.88" gradientTransform="translate(142.46 -131.68) rotate(30)" gradientUnits="userSpaceOnUse"><stop offset="0" stop-color="#fff"/><stop offset="1" stop-color="#caffe7" stop-opacity="0"/></linearGradient><linearGradient id="ab" x1="-1850.92" y1="1262.61" x2="-1769.36" y2="1273.8" gradientTransform="translate(-1724.09 1138.26) rotate(-169.8)" gradientUnits="userSpaceOnUse"><stop offset="0" stop-color="#fd6956"/><stop offset="1" stop-color="#fcc557" stop-opacity="0"/></linearGradient><radialGradient id="ac" cx="-1351.25" cy="-242.84" fx="-1351.25" fy="-242.84" r="5.23" gradientTransform="translate(-4185.65 2034.99) rotate(143.77) scale(3.44 4.72)" gradientUnits="userSpaceOnUse"><stop offset="0" stop-color="#f0c757"/><stop offset=".14" stop-color="#916228"/><stop offset=".22" stop-color="#6d4a1e"/><stop offset=".32" stop-color="#4c3314"/><stop offset=".42" stop-color="#30200d"/><stop offset=".53" stop-color="#1a1207"/><stop offset=".65" stop-color="#0b0703"/><stop offset=".79" stop-color="#020100"/><stop offset="1" stop-color="#000"/></radialGradient><radialGradient id="ad" cx="-1366.09" cy="-260.04" fx="-1366.09" fy="-260.04" r="4.19" gradientTransform="translate(-4346.77 1434.44) rotate(150.2) scale(3.44 4.72)" xlink:href="#ac"/><clipPath id="ae"><path class="dp" d="M298.08,196.6l-2.07-1.2,1.56-1.14-1.56,1.14,2.07,1.2,2.68-2.01-2.68,2.01ZM310.58,203.82l-2.07-1.19h0s2.07,1.2,2.07,1.2h0s0,0,0,0l.36-3.38-.36,3.38ZM302.96,192.95h0s6.27,3.62,6.27,3.62l-6.27-3.62ZM309.57,194.61h0s.19-1.71.19-1.71l-.19,1.71ZM309.77,192.84v.06s.04-.37.04-.37l-.04.32ZM304.47,191.66h0s2.51-1.85,2.51-1.85h0s0,0,0,0l-2.51,1.85Z"/></clipPath><linearGradient id="af" x1="-75.36" y1="484.17" x2="-75.2" y2="484.17" gradientTransform="translate(3948.27 23888.85) scale(48.34 -48.94)" gradientUnits="userSpaceOnUse"><stop offset="0" stop-color="#fff"/><stop offset=".11" stop-color="#fafafa"/><stop offset=".25" stop-color="#ecebeb"/><stop offset=".39" stop-color="#d5d4d4"/><stop offset=".54" stop-color="#b5b3b2"/><stop offset=".7" stop-color="#8c8988"/><stop offset=".86" stop-color="#5b5654"/><stop offset="1" stop-color="#2b2422"/></linearGradient><clipPath id="ag"><path class="dp" d="M297.57,194.26l-1.56,1.14,2.07,1.2,2.68-2.01,2.2-1.65h0s0,0,0,0l6.27,3.62-.72,6.06,2.07,1.19.36-3.38.64-5.97c-.27-.31-.54-.62-.82-.93-.31-.34-.62-.68-.95-1.01l-.04.32-.2,1.77h0s0,0,0,0l-5.1-2.95h0s0,0,0,0l2.51-1.85c-.19-.17-.38-.34-.58-.51-.31-.27-.62-.54-.94-.8l-7.89,5.77Z"/></clipPath><linearGradient id="ah" x1="-75.36" y1="484.17" x2="-75.2" y2="484.17" gradientTransform="translate(3948.18 23888.69) scale(48.34 -48.94)" gradientUnits="userSpaceOnUse"><stop offset="0" stop-color="#6a75b0"/><stop offset=".16" stop-color="#646ea8"/><stop offset=".41" stop-color="#555c92"/><stop offset=".71" stop-color="#3d3f6e"/><stop offset="1" stop-color="#211e46"/></linearGradient><clipPath id="ai"><path class="dp" d="M294.61,192.46l1.69.98h0s-1.69-.98-1.69-.98h0ZM294.61,192.46l2.01-3.48-2.01,3.48ZM288.86,191.01l-1.28.32c-.26-.13-.52-.27-.78-.42-.53-.3-1.01-.64-1.46-1h0c.45.36.93.7,1.46,1,.26.15.52.29.78.42l1.28-.32,7.76-2.03h0s-7.76,2.03-7.76,2.03ZM292.53,184.7l3.99,2.3h0s-3.99-2.3-3.99-2.3l.96-1.66-.96,1.66Z"/></clipPath><linearGradient id="aj" x1="-75.36" y1="482.64" x2="-75.2" y2="482.64" gradientTransform="translate(3935.79 23806.31) scale(48.34 -48.94)" xlink:href="#af"/><clipPath id="ak"><path class="dp" d="M300.1,186.86l-1.69-.98-4.92-2.84-.96,1.66,3.99,2.3h0s0,0,0,0l-8.32,2.17-2.86.73c.45.36.93.7,1.46,1,.26.15.52.29.78.42l1.28-.32,7.76-2.03-2.01,3.48,1.69.98,3.37-5.83c.04-.06.08-.13.12-.19l.32-.55h0Z"/></clipPath><linearGradient id="al" x1="-75.36" y1="482.64" x2="-75.2" y2="482.64" gradientTransform="translate(3935.79 23806.32) scale(48.34 -48.94)" gradientUnits="userSpaceOnUse"><stop offset="0" stop-color="#74caec"/><stop offset=".18" stop-color="#6dc2e7"/><stop offset=".45" stop-color="#5aaddb"/><stop offset=".77" stop-color="#3b8cc7"/><stop offset="1" stop-color="#2271b7"/></linearGradient><clipPath id="am"><path class="dp" d="M284.16,182.91c0-.14,0-.29,0-.43,0,.14,0,.29,0,.43M284.16,182.48c0-.08,0-.17.01-.25,0,0,0,0,0,0,0-.02,0-.04,0-.06h0c0,.1-.01.21-.02.31M284.18,182.16h0s0,0,0,0c0,0,0,0,0,0M283.6,177.72s0,0,0,0v.02s-.01,0-.02.01h0s0,.02,0,.02l-.03.05c-2.1,3.64-1.62,8.29,1.13,11.48l2.12-.55h0s-2.12.55-2.12.55c-2.75-3.2-3.23-7.84-1.13-11.48.04-.07.08-.14.12-.2-.02.03-.04.07-.06.1M286.46,177.16s0,0,0,0h0c-.47.48-.89,1.02-1.24,1.62-.61,1.05-.95,2.21-1.03,3.37,0,0,0-.02,0-.03,0,0,0,0,0,0,0,0,0-.01,0-.02,0,0,0,0,0,0,0,0,0-.02,0-.03,0,0,0,0,0,0,0,0,0-.01,0-.02,0,0,0,0,0-.01,0,0,0-.02,0-.03,0,0,0,0,0-.01,0,0,0,0,0-.01,0,0,0-.02,0-.02,0,0,0,0,0-.01,0,0,0-.01,0-.02,0,0,0,0,0,0,0,0,0-.02,0-.03,0,0,0,0,0,0,0,0,0-.02,0-.03,0,0,0,0,0,0,0,0,0-.02,0-.03,0,0,0,0,0,0,0-.01,0-.02,0-.03,0,0,0,0,0,0,0,0,0-.02,0-.03,0,0,0,0,0,0,0-.01,0-.02,0-.03,0,0,0,0,0,0v-.03s0,0,0,0c0-.01,0-.02,0-.03,0,0,0,0,0,0,.1-.74.31-1.46.62-2.16h0s.03-.06.04-.09h0s.02-.04.03-.06h0s.03-.06.04-.09h0s.02-.04.03-.06c0,0,0,0,0,0,0-.02.02-.04.03-.06h0s0-.02.01-.03h0s0-.02.01-.03h0s.01-.02.02-.03h0s.02-.04.03-.06h0s0-.02.01-.03h0s0-.02.01-.03c0,0,0,0,0,0,0,0,.01-.02.01-.03h0s0-.02.01-.03h0s.01-.02.02-.03h0s.02-.03.02-.03c.35-.61.77-1.15,1.24-1.63h0Z"/></clipPath><linearGradient id="an" x1="-75.36" y1="481.69" x2="-75.2" y2="481.69" gradientTransform="translate(3927.45 23754.67) scale(48.34 -48.94)" xlink:href="#af"/><clipPath id="ao"><path class="dp" d="M284.52,176.42s-.02.02-.03.03c0,0,0,0,0,0,0,.01-.02.02-.03.03,0,0,0,0,0,0-.29.35-.56.73-.8,1.12-.04.07-.08.13-.12.2-2.1,3.64-1.63,8.29,1.13,11.48l2.12-.55s-.01-.01-.02-.02c0,0,0,0,0,0,0,0-.01,0-.02-.01,0,0,0,0,0,0,0,0-.01,0-.01-.01,0,0,0,0,0,0-.03-.02-.05-.05-.07-.07,0,0,0,0,0,0-1.16-1.12-1.93-2.53-2.28-4.03h0s-.02-.08-.03-.12c0,0,0,0,0,0,0,0,0-.01,0-.02,0,0,0,0,0,0,0-.02,0-.03-.01-.05,0,0,0,0,0,0,0,0,0-.01,0-.02,0,0,0,0,0,0,0,0,0,0,0-.01,0,0,0,0,0-.01,0,0,0,0,0-.01,0,0,0,0,0,0,0,0,0-.01,0-.02,0,0,0,0,0,0,0,0,0-.01,0-.02,0,0,0,0,0-.01,0,0,0,0,0-.01,0,0,0,0,0-.01,0,0,0,0,0-.01,0,0,0,0,0-.01,0,0,0,0,0,0,0,0,0,0,0-.01,0,0,0,0,0,0,0-.02,0-.04,0-.06,0,0,0,0,0,0,0,0,0-.01,0-.02,0,0,0,0,0,0,0,0,0-.01,0-.02t0,0c-.06-.39-.1-.78-.11-1.17-.03-1.42.31-2.84,1.05-4.12.35-.61.77-1.15,1.24-1.63-.65-.26-1.3-.51-1.94-.74"/></clipPath><linearGradient id="ap" x1="-75.36" y1="481.69" x2="-75.2" y2="481.69" gradientTransform="translate(3927.45 23754.67) scale(48.34 -48.94)" xlink:href="#al"/><clipPath id="aq"><path class="dp" d="M279.9,186.11l-2.07-1.2h0s2.07,1.2,2.07,1.2l.11-1-.11,1ZM272.29,175.23l6.27,3.62h0s-6.27-3.62-6.27-3.62h0ZM265.33,177.7l2.07,1.2,2.69-2.01-2.68,2.01-2.07-1.2,5.71-4.17-5.71,4.17ZM274.03,173.77l-.24.18h0s.24-.18.24-.18c0,0,0,0,0,0M279.13,174.75l-.24,2.14.24-2.14h0Z"/></clipPath><linearGradient id="ar" x1="-75.36" y1="480.48" x2="-75.2" y2="480.48" gradientTransform="translate(3917.83 23691.09) scale(48.34 -48.94)" xlink:href="#af"/><clipPath id="as"><path class="dp" d="M279.13,174.76l-.24,2.14h0s-5.11-2.95-5.11-2.95h0s0,0,0,0l.24-.18c-.92-.12-1.8-.2-2.66-.23-.02,0-.05,0-.07,0-.05,0-.1,0-.16,0-.02,0-.04,0-.06,0-.02,0-.03,0-.05,0l-5.71,4.17,2.07,1.2,2.68-2.01,2.2-1.65h0s6.27,3.62,6.27,3.62l-.72,6.06,2.07,1.2.11-1,1.05-9.82c-.65-.19-1.29-.37-1.93-.53"/></clipPath><linearGradient id="at" x1="-75.36" y1="480.48" x2="-75.2" y2="480.48" gradientTransform="translate(3917.71 23690.88) scale(48.34 -48.94)" xlink:href="#ah"/><linearGradient id="au" x1="145.61" y1="198.65" x2="145.61" y2="333.06" gradientTransform="translate(-91.18 59.7) rotate(-30)" xlink:href="#q"/><linearGradient id="av" x1="117.83" y1="351.57" x2="117.83" y2="196.36" gradientTransform="translate(-91.18 59.7) rotate(-30)" xlink:href="#r"/><linearGradient id="aw" x1="173.63" y1="357.75" x2="173.63" y2="187.83" gradientTransform="translate(-91.18 59.7) rotate(-30)" xlink:href="#r"/><linearGradient id="ax" x1="88.1" y1="281.61" x2="212.51" y2="184.72" gradientTransform="translate(-91.18 59.7) rotate(-30)" xlink:href="#t"/><linearGradient id="ay" x1="208.19" y1="307.98" x2="143.44" y2="234.36" gradientTransform="translate(-50.17 2.59) rotate(-15.47)" xlink:href="#q"/><linearGradient id="az" x1="158.65" y1="249.87" x2="109.41" y2="200.64" gradientTransform="translate(-91.18 59.7) rotate(-30)" xlink:href="#q"/><linearGradient id="ba" x1="180.85" y1="164.22" x2="127.78" y2="274.59" gradientTransform="translate(-91.18 59.7) rotate(-30)" xlink:href="#q"/><linearGradient id="bb" x1="199.23" y1="199.54" x2="106.22" y2="264.21" gradientTransform="translate(-91.18 59.7) rotate(-30)" xlink:href="#t"/><linearGradient id="bc" x1="145.61" y1="290.3" x2="145.61" y2="186.86" gradientTransform="translate(-91.18 59.7) rotate(-30)" xlink:href="#t"/><linearGradient id="bd" x1="183.41" y1="285.12" x2="109.83" y2="191.09" gradientTransform="translate(-91.18 59.7) rotate(-30)" xlink:href="#t"/><linearGradient id="be" x1="109.45" y1="206.03" x2="191.01" y2="217.22" gradientTransform="translate(-91.18 59.7) rotate(-30)" xlink:href="#aa"/><linearGradient id="bf" x1="-1704.43" y1="1275.66" x2="-1622.88" y2="1286.84" gradientTransform="translate(75.34 2311.16) rotate(130.2)" xlink:href="#ab"/><radialGradient id="bg" cx="-1324.67" cy="-218.44" fx="-1324.67" fy="-218.44" gradientTransform="translate(-378.85 4891.3) rotate(83.77) scale(3.44 4.72)" xlink:href="#ac"/><radialGradient id="bh" cx="-1335.93" cy="-237.96" fx="-1335.93" fy="-237.96" r="4.19" gradientTransform="translate(-979.5 4730.56) rotate(90.2) scale(3.44 4.72)" xlink:href="#ac"/><clipPath id="bi"><path class="dp" d="M164.34,193.74l-.21-1.92.21,1.92ZM166.41,192.54l-2.07,1.2h0s2.07-1.2,2.07-1.2l-.4-3.33.4,3.33ZM178.91,185.32l-2.07,1.19h0s2.07-1.19,2.07-1.19h0s0,0,0,0l-2.74-2,2.74,2ZM165.69,186.48h0s6.27-3.62,6.27-3.62l-6.27,3.62ZM170.43,181.59h0s-1.39-1.02-1.39-1.02l1.39,1.02ZM169,180.54l.05.03-.3-.22.26.19ZM165.32,184.54h0s-.35-3.1-.35-3.1h0s0,0,0,0l.35,3.1Z"/></clipPath><linearGradient id="bj" x1="-76.13" y1="487.07" x2="-75.96" y2="487.07" gradientTransform="translate(24004.4 -3494.33) rotate(-90) scale(48.34 -48.94)" xlink:href="#af"/><clipPath id="bk"><path class="dp" d="M164.13,191.81l.21,1.92,2.07-1.2-.4-3.33-.33-2.73h0s0,0,0,0l6.27-3.62,4.89,3.66,2.07-1.19-2.74-2-4.85-3.54c-.4.08-.81.16-1.22.25-.45.1-.9.2-1.35.32l.26.19,1.43,1.06h0s0,0,0,0l-5.1,2.95h0s0,0,0,0l-.35-3.1c-.24.08-.49.16-.74.25-.39.13-.77.27-1.16.41l1.05,9.72Z"/></clipPath><linearGradient id="bl" x1="-76.13" y1="487.07" x2="-75.96" y2="487.07" gradientTransform="translate(24004.3 -3494.31) rotate(-90) scale(48.34 -48.94)" xlink:href="#ah"/><clipPath id="bm"><path class="dp" d="M161.09,193.47l1.69-.98h0s-1.69.97-1.69.97h0ZM161.09,193.47l-2.01-3.48,2.01,3.48ZM156.96,197.73l-.36,1.27c-.24.16-.49.32-.75.47-.53.3-1.06.56-1.6.76h0c.54-.21,1.07-.46,1.6-.76.26-.15.51-.31.75-.47l.36-1.27,2.12-7.74h0s-2.12,7.74-2.12,7.74ZM153.33,191.4l3.99-2.3h0s-3.99,2.3-3.99,2.3l-.96-1.66.96,1.66Z"/></clipPath><linearGradient id="bn" x1="-76.13" y1="485.53" x2="-75.96" y2="485.53" gradientTransform="translate(23916.16 -3486.97) rotate(-90) scale(48.34 -48.94)" xlink:href="#af"/><clipPath id="bo"><path class="dp" d="M158.98,185.92l-1.69.98-4.92,2.84.96,1.66,3.99-2.3h0s0,0,0,0l-2.28,8.29-.79,2.84c.54-.21,1.07-.46,1.6-.76.26-.15.51-.31.75-.47l.36-1.27,2.12-7.74,2.01,3.48,1.69-.98-3.37-5.83c-.04-.07-.08-.15-.12-.22l-.31-.53h0Z"/></clipPath><linearGradient id="bp" x1="-76.13" y1="485.53" x2="-75.96" y2="485.53" gradientTransform="translate(23916.17 -3486.97) rotate(-90) scale(48.34 -48.94)" xlink:href="#al"/><clipPath id="bq"><path class="dp" d="M147.59,197.75c-.13-.07-.25-.14-.37-.22.12.08.25.15.37.22M147.22,197.53c-.07-.04-.14-.09-.21-.14,0,0,0,0,0,0-.02-.01-.03-.02-.05-.03.09.06.17.12.26.17M146.96,197.36s0,0,0,0c0,0,0,0,0,0,0,0,0,0,0,0M146.96,197.36s0,0,0,0c0,0,0,0,0,0M146.96,197.35h0s0,0,0,0ZM146.96,197.35h0s0,0,0,0M146.96,197.35s-.02-.01-.03-.02c0,0,0,0,0,0,0,0,0,0-.01,0,0,0,0,0,0,0,0,0,0,0-.01,0,.02.01.04.03.06.04M146.89,197.31s0,0,0,0c0,0,0,0,0,0M146.88,197.31s0,0,0,0c0,0,0,0,0,0M146.88,197.3s0,0,0,0,0,0,0,0c0,0,0,0,0,0M146.88,197.3s0,0,0,0c0,0,0,0,0,0,0,0,0,0,.01,0M146.87,197.29s0,0,0,0c0,0,0,0,0,0M146.86,197.29s0,0,0,0c0,0,0,0,0,0,0,0-.01-.01-.02-.01,0,0,0,0-.01,0,0,0,0,0,0,0,.02.01.04.03.06.04M146.8,197.25s0,0,0,0c0,0,0,0,0,0,0,0,0,0,0,0M146.8,197.25s-.01,0-.02-.01c0,0,0,0,0,0,0,0,.01,0,.02.01M146.78,197.23s0,0,0,0c0,0,0,0,0,0M146.77,197.23s0,0,0,0c0,0,0,0-.01,0,0,0,0,0,0,0M142.81,195.64s0,0,0,0v.02s.01,0,.02.01h0s0,.02,0,.02l.03.05c2.1,3.64,6.36,5.55,10.51,4.77l.58-2.11h0s-.58,2.11-.58,2.11c-4.14.78-8.4-1.12-10.51-4.77-.04-.07-.08-.14-.12-.21.02.03.04.07.06.1M143.76,192.89h0c.18.65.44,1.28.79,1.89.57.99,1.33,1.81,2.22,2.45,0,0,0,0,0,0,0,0,0,0,0,0,0,0-.01-.01-.02-.02,0,0,0,0,0,0,0,0-.02-.01-.02-.02,0,0,0,0,0,0,0,0-.02-.01-.02-.02,0,0,0,0,0,0,0,0-.02-.01-.02-.02,0,0,0,0,0,0,0,0-.02-.01-.02-.02,0,0,0,0,0,0,0,0-.02-.01-.02-.02,0,0,0,0,0,0,0,0-.02-.01-.02-.02,0,0,0,0,0,0,0,0-.02-.01-.03-.02,0,0,0,0,0,0-.59-.46-1.11-1-1.56-1.62h0s-.04-.06-.06-.08h0s-.03-.04-.04-.06h0s-.04-.06-.06-.09h0s-.02-.04-.04-.06c0,0,0,0,0,0-.01-.02-.02-.04-.04-.05h0s-.01-.02-.02-.03h0s-.01-.02-.02-.03h0s-.01-.02-.02-.03h0s-.02-.04-.03-.06h0s-.01-.02-.02-.03h0s-.01-.02-.02-.03c0,0,0,0,0,0,0,0-.01-.02-.02-.03h0s0-.02-.01-.03h0s-.01-.02-.02-.03h0s-.02-.03-.02-.03c-.35-.61-.61-1.24-.79-1.89t0,0"/></clipPath><linearGradient id="br" x1="-76.13" y1="484.58" x2="-75.96" y2="484.58" gradientTransform="translate(23861.53 -3482.3) rotate(-90) scale(48.34 -48.94)" xlink:href="#af"/><clipPath id="bs"><path class="dp" d="M142.15,194.19s.01.03.02.04c0,0,0,0,0,0,0,.01.01.03.02.04,0,0,0,0,0,0,.16.43.35.85.57,1.26.04.07.08.14.12.21,2.1,3.64,6.36,5.55,10.51,4.77l.58-2.11s-.02,0-.02,0c0,0,0,0,0,0,0,0-.01,0-.02,0,0,0,0,0,0,0,0,0-.01,0-.02,0,0,0,0,0,0,0-.03.01-.07.02-.1.03,0,0,0,0,0,0-1.55.45-3.15.41-4.63-.04h0s-.08-.02-.12-.04c0,0,0,0,0,0,0,0-.01,0-.02,0,0,0,0,0,0,0-.02,0-.03,0-.05-.01,0,0,0,0,0,0,0,0-.01,0-.02,0,0,0,0,0,0,0,0,0,0,0-.01,0,0,0,0,0,0,0,0,0,0,0-.01,0,0,0,0,0,0,0,0,0-.01,0-.02,0,0,0,0,0,0,0h-.02s0,0-.01-.01c0,0,0,0-.01,0,0,0,0,0-.01,0,0,0,0,0,0,0,0,0,0,0-.01,0,0,0,0,0,0,0,0,0,0,0-.01,0,0,0,0,0,0,0-.02,0-.04-.01-.05-.02,0,0,0,0,0,0,0,0-.01,0-.02,0,0,0,0,0,0,0,0,0-.01,0-.02,0t0,0c-.37-.14-.73-.3-1.07-.49-1.24-.68-2.31-1.69-3.04-2.97-.35-.61-.61-1.24-.79-1.89-.55.43-1.09.87-1.61,1.31"/></clipPath><linearGradient id="bt" x1="-76.13" y1="484.58" x2="-75.96" y2="484.58" gradientTransform="translate(23861.53 -3482.31) rotate(-90) scale(48.34 -48.94)" xlink:href="#al"/><clipPath id="bu"><path class="dp" d="M148.23,203.03l-2.07,1.2h0s2.07-1.19,2.07-1.19h0s-.81-.59-.81-.59l.81.59ZM135.01,204.19l6.27-3.62h0s-6.27,3.62-6.27,3.62h0ZM133.66,211.45l2.07-1.2-.4-3.33.4,3.33-2.07,1.2-.76-7.03.76,7.03ZM134.61,201.95l.03.3h0s-.03-.3-.03-.3c0,0,0,0,0,0M138.02,198.02l1.74,1.28h0s-1.74-1.28-1.74-1.28h0Z"/></clipPath><linearGradient id="bv" x1="-76.13" y1="483.38" x2="-75.96" y2="483.38" gradientTransform="translate(23793.51 -3476.7) rotate(-90) scale(48.34 -48.94)" xlink:href="#af"/><clipPath id="bw"><path class="dp" d="M138.02,198.02l1.74,1.28h0s0,0,0,0l-5.11,2.95h0s0,0,0,0l-.03-.3c-.56.73-1.07,1.47-1.54,2.19-.01.02-.03.04-.04.06-.03.04-.06.09-.08.13-.01.02-.02.03-.03.05,0,.01-.02.03-.02.04l.76,7.03,2.07-1.2-.4-3.33-.33-2.73h0s6.27-3.62,6.27-3.62h0s4.89,3.66,4.89,3.66l2.07-1.2-.81-.59-7.98-5.82c-.49.47-.96.94-1.42,1.41"/></clipPath><linearGradient id="bx" x1="-76.13" y1="483.38" x2="-75.96" y2="483.38" gradientTransform="translate(23793.39 -3476.66) rotate(-90) scale(48.34 -48.94)" xlink:href="#ah"/></defs><g class="ed"><g id="a"><path class="cl" d="M206.03,51.31c0,42.59,3.32,99.8-7.35,103.7-7.6,2.78-35.91-45.4-36.83-68.54-1.85-34.26-18.32-108.45-68.72-80.17-44.44,24.94,4.39,91.3,34.01,117.23,18.52,17.59,36.36,24.08,49.32,46.3,12.03,18.52,17.59,32.41-8.33,35.19-26.85,2.78-33.33-25-58.33-28.7-12.96-2.78-23.15,10.49-16.67,23.45,5.56,12.04,15.74,8.03,27.78,8.95,19.75,1.97,56.08,20.29,19.44,22.22-20.37.93-36.35,3.7-55.8,4.62-25,1.85-59.26,10.18-75.92,28.7-19.44,22.22-3.7,50.93,24.07,52.78,52.78,3.71,55.56-77.78,107.41-76.85,17.59,0,54.63,5.56,31.48,25-5.55,4.63-25,12.96-11.11,22.22,13.89,8.33,16.67-11.11,21.3-17.59,2.78-5.55,14.81-19.44,24.07-13.89,12.04,7.41-6.48,21.3-11.11,27.78-14.81,18.52-33.33,47.22-33.33,72.22,0,26.85,41.67,62.96,62.96,32.41,12.96-19.44-.93-54.63-2.78-75.92-.93-12.04-1.85-25,3.7-37.04,4.63-9.26,16.67-20.37,23.15-6.48,3.71,7.41-9.26,28.7,1.85,32.41,12.96,2.78,7.41-17.59,7.41-22.22.93-11.11,1.85-19.44,10.18-8.33,5.56,9.26,7.41,25.93,12.04,36.11,12.96,28.71,48.15,43.52,78.7,43.52,33.33-.93,57.41-38.89,34.26-68.52-12.96-16.67-47.22-14.81-65.74-25.93-10.19-5.56-59.26-29.63-31.48-39.81,7.41-2.78,66.67,23.15,52.77-9.26-7.4-14.81-21.29-2.78-31.48-1.85-10.18.93-27.53-13.88-14.57-24.07,6.48-4.63,11.11-12.04,18.52-11.11,14.81.93,33.33-.93,46.29-5.55,32.41-12.96,40.74-26.85,44.44-59.26,3.71-31.48-17.59-48.15-41.67-27.78-20.37,17.59-34.26,43.52-58.33,59.26-7.41,4.63-20.3,22.47-30.56,16.67-16.09-9.11-13.85-24.83-8.56-31.78,8.93-11.72,28.86-20.83,33.56-50.62,3.51-22.26-16.85-26.6-27.78-17.59-13.31,10.97-13.46,63.16-15.62,72.94-2.67,12.04-11.19,23.5-22.34,21.5-25.92-4.63-20.37-49.07-18.52-60.18,3.71-12.96,26.85-52.35,10.19-66.66-21.84-18.76-25.99-2.78-25.99,30.56Z"/><path class="cy" d="M127.39,10.57c-15.74-11.05-44.44-.93-43.52,33.33.93,19.44,15.74,37.96,31.48,50,15.74,12.04,38.89,26.85,55.56,37.96-13.89-18.52-18.78-32.59-21.55-53.89-.93-12.96-.96-54.3-21.96-67.41"/><path class="cw" d="M399.61,92.05c.92-7.41-4.63-12.04-12.96-12.04-11.11,0-21.3,15.74-27.78,25-18.52,25.92-41.67,42.59-70.37,57.4h0c21.3,1.85,51.85-4.63,71.3-12.04,31.48-12.04,44.44-35.18,39.82-58.33"/><path class="ck" d="M298.6,69.08c-3.71-14.38-13.8-11.29-20.29-5.73-3.7,4.63-2.78,17.59-3.7,23.14-.93,6.48-2.78,21.3-5.56,27.78,13.89-7.41,22.79-19.32,29.54-45.19"/><path class="dc" d="M212.58,131.86c2.53-35.38-2.78-69.44,2.78-99.07,1.85-11.11,5.56-13.89,13.89-1.85,3.7,5.55-2.78,15.74-3.7,22.22-4.63,20.37-12.04,57.41-12.96,78.7"/><path class="cs" d="M9.8,281.86c2.78,17.59,18.52,26.85,37.04,24.07,30.56-4.63,39.81-54.63,71.29-64.81-28.7,0-106.48.92-108.33,40.74"/><path class="da" d="M219.06,374.45c-6.48,15.74-16.67,13.89-25.93,10.19-12.96-5.56-20.37-23.15-20.37-36.12,0-16.66,5.55-29.14,14.81-42.1,7.41-11.11,27.42-33.82,33.9-45.86-1.85,18.52-10.75,44.5-8.9,63.02,1.85,16.66,6.48,34.2,6.48,50.86"/><path class="cv" d="M274.61,237.42c8.33,8.33,14.81,18.52,25.92,24.07,18.52,9.26,40.74,11.11,59.26,21.3,15.74,7.41,34.26,27.78,18.52,45.37-12.96,15.74-34.82,10.46-49.63,3.05-19.44-9.26-32.78-24.5-40.18-43.95-4.63-13.89-12.69-32.46-13.89-49.84"/><path class="cm" d="M154.24,209.64c-8.33-3.7-46.29-37.96-53.7-17.59-6.48,15.74,45.37,11.11,53.7,17.59"/><path class="dd" d="M294.41,202.64c36.66,15.03,43.49-10.13,52.42,5.6,6.71,11.83-8.86,12.03-17.38,11.43-13.3-.93-27.85-8.33-35.04-17.04"/><path class="ct" d="M178.72,266.25c-2.9,5.21-18.53,6.95-16.8,14.48,3.48,13.9,15.06-10.42,16.8-14.48"/><path class="cu" d="M252.85,280.73c-1.16,5.21-10.42,17.37,1.74,16.8,3.48-6.37,1.05-12.55-1.74-16.8"/><path class="ci" d="M195.86,195.59c-2.9,14.04-23.17,14.48-31.27,14.48,5.79,4.63,2.9,20.85-6.37,23.74,15.64-1.74,27.22,8.11,29.54,20.85,8.11-11,26.06-13.32,32.43-.58,18.53-11,22.74-1.03,33.66,9.85,0-26.52-13.21-21.92-33.66-22.81-13.22-.58-25.03-8.52-27.22-21.26-1.22-7.15,11.58-17.22,2.9-24.27"/><path class="cr" d="M186.78,159.74c11.75,7.66,26.56-1.02,27.07-15.32,13.79,17.88,36.78,20.43,48.02-.51,2.55,16.35,15.84,33.21,34.74,25.54h0c-5.62,8.17-16.86,19.92-5.11,29.12-8.68-2.04-12.26,7.66-4.09,10.73-9.19,1.02-14.3,12.26-8.68,19.41-6.64-4.6-15.32-.51-17.37,7.15,0-20.43,30.65-50.57-3.58-62.32-10.73-3.58-24.52-2.55-35.76-1.02-10.73,1.53-24.52,5.11-32.18-5.11-1.53-2.04-3.06-6.13-3.58-7.66"/><path class="cq" d="M194.96,178.13c8.17,3.58,13.28,6.13,22.99,5.62,10.73-.51,22.99-5.62,33.72-3.06,26.57,7.15,5.62,48.02-13.79,52.11-6.64,1.53-17.37,2.55-24.01-1.02,8.17-2.55,17.37-3.07,20.94-12.77,3.07-8.68-2.55-15.32-10.73-16.86-9.7-2.55-19.92,1.02-25.54-9.2-3.07-5.62-1.02-9.71-3.58-14.81"/><path class="db" d="M203.13,204.19c1.02,1.53-1.02,6.13-1.02,8.17-.51,8.68,2.55,11.75,13.28,10.73,9.71-1.02,14.81-7.66,4.6-13.28-5.11-2.55-12.77-.51-16.86-5.62"/><path class="dj" d="M175.82,375.71c6.9,7.39,18.43,11.29,27.41,6.21,8.54-4.62,11.06-15.66,11.06-25.52-.06-10.16-2.94-20.48-4.33-31.25-1.47-10.66-.88-22.45,5.24-31.68-5.94,15.32-.69,31.2,2.7,46.52,2.94,13.41,3.86,29.38-5.53,40.6-10.47,11.91-29,8.04-36.55-4.88h0Z"/><path class="dj" d="M172.35,364.12c-4.18-15.43-3.39-34.18,8.11-46.33-1.72,7.85-3.38,15.09-4.32,22.94-.97,7.03-1.74,16.56-3.79,23.39h0Z"/><path class="dj" d="M6.71,284.2c6.59,17.88,30.46,22.36,46.23,14.84,8.56-3.43,14.49-11.23,20.12-18.48,5.89-7.54,11.87-16.04,20.52-20.68-7.22,6.62-11.62,15.1-16.87,23.25-5.02,8.25-12.71,17.68-21.25,20.98-17.36,8.73-45.94,1.59-48.76-19.9h0Z"/><path class="dj" d="M95.9,244.82c-23.76,4.66-48.3,7.12-69.5,19.69,14.34-18.38,47.65-23.55,69.5-19.69h0Z"/><path class="dj" d="M39.15,266.83c-5.85,7-10.57,21.67,2,23.55,1.55.37,3.19.49,4.95.77-7.02,4.6-17.24,2.36-18.4-7.15-.83-7.63,4.16-15.44,11.45-17.18h0Z"/><path class="dj" d="M116.75,185.75c-5.35-2.46-8.06,4.97-8.47,9.05-.6,5.69,3.33,8.35,8.47,10.64-3.21,1.03-6.8.85-9.75-1.15-6.5-4.43-5.24-14.64.33-19.3,2.67-2.46,7.71-3.25,9.43.76h0Z"/><path class="dj" d="M162.27,277.25c1.7.74,2.95,1.49,3.96,1.78.68.21.98.2,1.45.07,2.29-.51,4.5-2.25,7.33-3.02.58,4.82-3.95,9.98-9.1,8.26-2.93-1.13-4.28-4.28-3.64-7.1h0Z"/><path class="cx" d="M80.84,38.65c1.16-24.32,33.59-33.59,49.81-18.53,25.48,22.01,6.95,55.6,22.01,81.08h0c-15.06-16.22-11.58-42.86-23.17-60.23-8.11-12.74-45.17-23.17-47.49,0"/><path class="dj" d="M90.11,52.55c10.05,21.09,25.72,38.02,39.38,56.76-17.79-11.14-38.06-35.13-39.38-56.76h0Z"/><path class="cx" d="M290.49,245.98c17.37,15.06,38.22,19.69,61.39,27.8,12.74,4.63,34.75,10.43,39.38,26.64,4.63,12.74-6.95,39.38-23.17,33.59,15.06-31.28-4.63-38.23-30.11-49.81-22.01-9.27-35.91-17.37-49.81-38.22"/><path class="dj" d="M293.96,293.47c10.14,17.71,36.04,36.23,56.76,37.07-2.88,1.09-6.03,1.46-9.16,1.48-19.85-.1-44.57-18.45-47.6-38.55h0Z"/><path class="cx" d="M400.53,87.3c-13.9-35.91-63.7,50.96-78.76,56.75,23.17,1.16,32.43-17.37,42.86-33.59,6.95-12.74,23.17-30.11,37.06-17.37"/><path class="dj" d="M399.37,105.83c5.08,19.64-17.59,44.11-37.06,44.01,4.76-2.2,8.87-4.96,12.72-8.05,11.15-9.29,21.55-21.26,24.34-35.97h0Z"/><path class="cn" d="M280.07,61.81c25.48-10.42,11.58,19.69,2.32,31.27,6.95-9.27,10.42-24.32,0-30.11"/><path class="dj" d="M215.2,25.91c9.26-2.47,14.42,5.34,13.81,13.81-.4,7.18-2.77,13.34-5.7,19.78-1.55-6.65-.2-13.52.04-20,.42-7.42-1.27-10.84-8.15-13.58h0Z"/><path class="cx" d="M216.36,156.79c4.63,15.06,30.12,9.27,38.22-1.16h0c0,12.74,17.37,22.01,28.96,22.01-8.11,8.11-8.11,19.69-5.79,31.27-9.27,1.16-12.74,9.27-11.59,17.37-6.95-15.06,4.63-38.22-11.58-48.65-11.58-8.11-31.27,2.32-34.75-17.37"/><path class="cx" d="M218.68,183.43c20.85,2.32,44.02,19.69,27.8,44.01,4.63-26.64-28.96-25.48-28.96-44.01"/><path class="cx" d="M195.51,206.6c-6.95,25.48,30.11,41.7,50.96,28.96h0c-12.74,8.11-32.43,13.9-46.33,3.48-9.27-6.95-16.21-23.17-4.63-32.43"/><path class="dj" d="M381.19,328.22c4.88-13,2.17-22.84-8.5-31.76-9.47-8-20.99-13.29-32.04-19.2,6.42.8,12.69,2.51,18.73,4.92,9.05,3.7,18.18,9.17,23.81,17.6,6.2,8.92,5.07,20.47-2.01,28.45h0Z"/><path class="dj" d="M252.61,166.06c2.82,4.39,6.06,7.17,10.13,9.95,4.13,2.74,8.09,4.61,13.04,6.27-9.96,5.62-25.87-4.6-23.17-16.21h0Z"/><path class="dj" d="M193.54,222.81c4.04,9.75,13.31,14.5,23.11,16.38,3.3.63,6.71.89,10.48.99-6.37,4.37-15.13,4.43-22.14,1.3-7.01-2.95-13.32-10.83-11.45-18.67h0Z"/><path class="dj" d="M98.22,17.8c5.5-8.59,15.52-11.61,24.28-5.62,7.53,5.06,12.33,13.22,15.63,21.3,2.12,5.38,3.66,10.99,4.11,16.75-2.71-5.08-5.32-10.02-8.12-14.8-4.49-7.44-9.02-15.07-16.21-19.91-6.69-4.39-13.41-1.85-19.69,2.28h0Z"/><path class="dj" d="M390.45,81.51c-12.45.53-20.38,10.84-27.2,20.16-7.12,9.74-12.96,20.86-21.45,29.64,2.44-5.71,4.75-11.33,7.47-16.87,7.09-14.5,21.9-38.71,41.18-32.94h0Z"/><path class="cl" d="M307.4,116.57c8.49,1.06,33.95-22.28,19.09-26.52-12.73-3.18-14.85,20.16-19.09,26.52"/><path class="cl" d="M244.81,125.05c1.06-5.3,5.3-21.22,0-24.4-13.79-7.43-4.24,19.1,0,23.34"/><path class="cl" d="M104.48,132.8c0-11.67-28.64-29.7-38.19-20.16-15.91,16.97,35.01,18.03,38.19,20.16"/><path class="cl" d="M142.96,259.78c-11.67-1.06-36.07,13.79-31.82,27.58,5.3,19.1,24.4-22.28,31.82-27.58"/><path class="cl" d="M251.17,318.13c0,7.43-1.06,27.58,10.61,27.58,22.28-1.06-6.37-24.4-10.61-27.58"/><path class="dj" d="M324.32,96.88c-4.91,2.23-8.06,6.04-11.62,9.96-.34-5.69,5.87-11.92,11.62-9.96h0Z"/><path class="dj" d="M244.61,103.52c1.88,1.97,1.83,4.08,1.66,6.64-3.11-.32-3.75-4.71-1.66-6.64h0Z"/><path class="dj" d="M262.87,344.31c-1.06-1.92-1.34-3.95-1.76-5.94-.37-2.03-.94-3.58-1.56-5.68,4.76,1.46,5.54,7.75,3.32,11.63h0Z"/><path class="dj" d="M115.08,284.53c-.23-5.49,3.3-11.05,8.3-13.28-2.11,4.93-4.86,9.18-8.3,13.28h0Z"/><path class="dj" d="M67.37,118.65c8-1.95,19.11-1.65,24.91,4.98-7.93-3.15-16.72-2.94-24.91-4.98h0Z"/><path class="cl" d="M161.05,303.07c-2.96,1.94-22.82,9.08-14.91,15.31,6.5,4.41,14.15-11.64,14.91-15.31"/><path class="dj" d="M147.29,315.46c1.43.96,2.33-.75,3.22-1.63.96-1.11,1.85-2.31,3.04-3.47-.24,2.47-1.62,4.9-3.94,6-.87.43-2.13.15-2.32-.9h0Z"/><path class="cl" d="M185.18,112.29c2.18-6.54,7.27-26.16-2.18-29.8-15.99-5.81.73,24.71,2.18,29.8"/><path class="dj" d="M178.86,85.4c8.1,1.1,10.55,11.54,7.96,18.2-.15-1.84-.28-3.6-.53-5.33-.7-5.13-2.69-10.2-7.43-12.87h0Z"/><path class="dv" d="M258.51,310.29l-15.08-36.02c-.51-1.21-1.75-1.94-3.05-1.8l-40.24,4.33c-2.41.26-4.1-2.33-2.88-4.43l100.54-174.15c2-3.46,6.42-4.64,9.88-2.65l53.96,31.16c3.46,2,4.64,6.42,2.65,9.88l-100.47,174.02c-1.23,2.12-4.35,1.92-5.3-.34Z"/><polygon class="eu" points="205.67 276.2 209.12 275.83 311.81 97.97 309.38 96.57 205.67 276.2"/><polygon class="fg" points="255.1 302.16 256.46 305.41 360.12 125.86 357.7 124.46 255.1 302.16"/><path class="cg" d="M334.99,118.32l2.16,10.95,11.16-.16c3.12-.05,5.56,2.67,5.18,5.76l-1.33,11.08,10.66,3.29c2.98.92,4.46,4.25,3.15,7.08l-4.69,10.13,9.13,6.43c2.55,1.79,2.93,5.42.81,7.71l-7.59,8.18,6.69,8.93c1.87,2.49,1.11,6.06-1.61,7.58l-9.75,5.44,3.61,10.56c1.01,2.95-.82,6.11-3.87,6.71l-10.95,2.16.16,11.16c.05,3.12-2.67,5.56-5.76,5.18l-11.08-1.33-3.29,10.66c-.92,2.98-4.25,4.46-7.08,3.15l-10.13-4.69-6.43,9.13c-1.79,2.55-5.42,2.93-7.71.81l-8.18-7.59-8.93,6.69c-2.49,1.87-6.06,1.11-7.58-1.61l-5.44-9.75-10.56,3.61c-2.95,1.01-6.11-.82-6.71-3.87l-2.16-10.95-11.16.16c-3.11.05-5.56-2.67-5.18-5.76l1.33-11.08-10.66-3.29c-2.98-.92-4.46-4.25-3.15-7.08l4.69-10.13-9.13-6.43c-2.55-1.79-2.93-5.42-.81-7.71l7.59-8.18-6.69-8.93c-1.87-2.49-1.11-6.06,1.61-7.58l9.75-5.44-3.61-10.56c-1.01-2.95.82-6.11,3.87-6.71l10.95-2.16-.16-11.16c-.05-3.11,2.66-5.56,5.76-5.18l11.08,1.33,3.29-10.67c.92-2.98,4.25-4.46,7.08-3.15l10.13,4.69,6.43-9.13c1.79-2.55,5.42-2.93,7.71-.81l8.18,7.59,8.93-6.69c2.49-1.87,6.06-1.11,7.58,1.61l5.44,9.75,10.56-3.61c2.95-1.01,6.11.82,6.71,3.87Z"/><circle class="ew" cx="292.01" cy="185" r="63.24" transform="translate(-45.29 260.67) rotate(-45)"/><path class="ei" d="M324.58,129.04c-31.08-17.95-70.83-7.3-88.78,23.79s-7.3,70.83,23.79,88.78c31.08,17.95,70.83,7.3,88.78-23.79s7.3-70.83-23.79-88.78ZM260.81,239.5c-29.92-17.27-40.17-55.53-22.9-85.45,17.27-29.92,55.53-40.17,85.45-22.9s40.17,55.53,22.9,85.45-55.53,40.17-85.45,22.9Z"/><path class="bz" d="M317.47,141.35c-24.28-14.02-55.33-5.7-69.35,18.58s-5.7,55.33,18.58,69.35c24.28,14.02,55.33,5.7,69.35-18.58,14.02-24.28,5.7-55.33-18.58-69.35Z"/><path class="ek" d="M323.1,131.15c-29.74-17.17-67.78-6.98-84.95,22.76-17.17,29.74-6.98,67.78,22.76,84.95,29.74,17.17,67.78,6.98,84.95-22.76s6.98-67.78-22.76-84.95ZM262.08,236.84c-28.63-16.53-38.44-53.14-21.91-81.77,16.53-28.63,53.14-38.44,81.77-21.91,28.63,16.53,38.44,53.14,21.91,81.77-16.53,28.63-53.14,38.44-81.77,21.91Z"/><path class="el" d="M319.45,137.48c-26.24-15.15-59.8-6.16-74.96,20.08-15.15,26.24-6.16,59.8,20.08,74.96,26.24,15.15,59.8,6.16,74.96-20.08,15.15-26.24,6.16-59.8-20.08-74.96ZM265.6,230.75c-25.26-14.59-33.92-46.89-19.33-72.15,14.59-25.26,46.89-33.92,72.15-19.33,25.26,14.59,33.92,46.89,19.33,72.15-14.59,25.26-46.89,33.92-72.15,19.33Z"/><path class="ds" d="M262.61,235.99h0,0ZM262.15,234.29c.34-.6,1.11-.8,1.7-.46h0c.6.34.8,1.11.46,1.71h0c-.34.6-1.11.8-1.7.46h0c-.6-.35-.8-1.11-.46-1.71ZM257.44,232.65c-.56-.4-.68-1.18-.28-1.74h0c.4-.56,1.18-.68,1.74-.28h0c.56.4.68,1.18.28,1.74h0c-.38.53-1.09.66-1.63.35h0s-.08-.04-.11-.07ZM267.46,237.15c.28-.63,1.02-.91,1.64-.63h0c.63.28.91,1.02.63,1.65h0c-.28.63-1.02.91-1.65.63h0s-.08-.04-.11-.06h0c-.54-.31-.78-1-.51-1.59ZM252.65,228.78c-.51-.46-.56-1.25-.1-1.76h0c.46-.51,1.25-.56,1.76-.1h0c.51.46.56,1.25.1,1.76h0c-.4.45-1.05.53-1.55.25h0c-.08-.04-.15-.09-.21-.15ZM273.04,239.43c.21-.66.91-1.02,1.57-.8h0c.66.21,1.01.92.8,1.57h0c-.22.65-.92,1.01-1.57.8h0c-.09-.03-.17-.06-.24-.1h0c-.5-.29-.74-.9-.56-1.46ZM248.28,224.43c-.46-.51-.42-1.3.09-1.76h0c.51-.46,1.3-.42,1.76.09h0c.46.51.42,1.3-.09,1.76h0c-.41.37-1,.42-1.46.15h0c-.11-.06-.21-.14-.3-.24ZM278.83,241.12c.14-.67.8-1.1,1.47-.96h0c.67.14,1.1.81.96,1.48h0c-.14.67-.8,1.1-1.48.96h0c-.13-.03-.25-.08-.36-.14h0c-.46-.26-.71-.8-.6-1.34ZM244.4,219.64c-.4-.56-.28-1.34.27-1.74h0c.56-.41,1.34-.28,1.74.27h0c.4.56.28,1.34-.27,1.74h0c-.41.3-.94.31-1.36.07h0c-.15-.08-.28-.2-.38-.34ZM284.77,242.19c.07-.68.69-1.18,1.37-1.11h0c.68.07,1.18.68,1.11,1.37h0c-.07.68-.68,1.18-1.37,1.11h0c-.18-.02-.35-.08-.49-.16h0c-.41-.24-.67-.7-.62-1.21ZM241.05,214.48c-.34-.59-.14-1.36.46-1.7h0c.59-.34,1.36-.14,1.7.46h0c.35.6.14,1.36-.46,1.71h0c-.4.23-.88.21-1.25,0h0c-.19-.11-.34-.26-.46-.46ZM290.78,242.63c0-.69.56-1.25,1.25-1.25h0c.69,0,1.25.56,1.25,1.24h0c0,.69-.56,1.25-1.25,1.25h0c-.23,0-.44-.06-.62-.17h0c-.37-.21-.62-.62-.63-1.08ZM238.25,208.99c-.28-.63,0-1.37.63-1.65h0c.63-.28,1.37,0,1.64.63h0c.28.63,0,1.37-.63,1.65h0c-.38.17-.8.13-1.13-.06h0c-.22-.13-.4-.32-.51-.57ZM296.81,242.44c-.08-.68.42-1.3,1.1-1.37h0c.69-.07,1.3.42,1.37,1.11h0c.07.69-.42,1.3-1.11,1.37h0c-.28.03-.53-.03-.75-.16h0c-.33-.19-.57-.54-.62-.95ZM236.04,203.24c-.22-.65.14-1.36.8-1.57h0c.65-.22,1.36.15,1.57.8h0c.21.66-.15,1.36-.8,1.57h0c-.35.11-.72.06-1.01-.11h0c-.26-.15-.46-.39-.56-.69ZM302.78,241.62c-.15-.67.28-1.34.96-1.48h0c.67-.14,1.34.29,1.48.96h0c.15.67-.29,1.33-.96,1.48h0c-.32.07-.63.01-.89-.14h0c-.29-.17-.52-.46-.59-.82ZM234.44,197.29c-.14-.68.29-1.34.96-1.48h0c.67-.14,1.34.29,1.48.96h0c.15.67-.28,1.34-.96,1.48h0c-.31.07-.63,0-.88-.14h0c-.3-.17-.52-.46-.6-.82ZM308.64,240.18c-.21-.66.15-1.36.8-1.57h0c.66-.21,1.36.15,1.57.8h0c.22.65-.15,1.36-.8,1.57h0c-.35.11-.72.06-1.01-.11h0c-.26-.15-.47-.39-.56-.69ZM233.47,191.21h0c-.08-.68.42-1.3,1.1-1.37h0c.69-.08,1.3.42,1.37,1.11h0c.07.68-.43,1.3-1.11,1.37h0c-.27.03-.53-.03-.75-.16h0c-.33-.19-.58-.54-.62-.95ZM314.32,238.14c-.28-.63,0-1.37.63-1.64h0c.63-.28,1.37,0,1.65.63h0c.28.63,0,1.36-.63,1.64h0c-.38.17-.8.13-1.13-.06h0c-.22-.13-.4-.33-.52-.57ZM233.14,185.05c0-.69.56-1.25,1.25-1.25h0c.69,0,1.25.56,1.25,1.25h0c0,.69-.56,1.25-1.25,1.25h0c-.23,0-.44-.06-.62-.17h0c-.37-.21-.63-.61-.63-1.08ZM319.75,235.53c-.34-.6-.14-1.36.46-1.7h0c.6-.34,1.36-.14,1.7.46h0c.35.6.14,1.36-.45,1.7h0c-.41.23-.88.21-1.25,0h0c-.18-.1-.34-.26-.46-.45ZM233.45,178.91h0c.07-.68.68-1.18,1.37-1.12h0c.68.07,1.18.69,1.11,1.37h0c-.07.69-.68,1.18-1.37,1.11h0c-.18-.02-.34-.07-.5-.16h0c-.41-.24-.67-.7-.62-1.21ZM324.88,232.36c-.4-.56-.28-1.34.27-1.74h0c.56-.4,1.34-.28,1.75.28h0c.4.56.28,1.34-.28,1.74h0c-.41.3-.95.31-1.36.08h0c-.15-.08-.28-.2-.39-.35ZM234.41,172.82c.14-.67.8-1.1,1.48-.96h0c.68.14,1.11.81.97,1.48h0c-.15.67-.81,1.11-1.48.96h0c-.13-.03-.25-.08-.36-.14h0c-.45-.26-.71-.8-.6-1.34ZM329.65,228.66c-.46-.51-.42-1.3.09-1.76h0c.52-.46,1.3-.42,1.76.09h0c.46.52.42,1.3-.09,1.76h0c-.41.37-1,.42-1.46.15h0c-.11-.06-.21-.14-.3-.24ZM236,166.86c.21-.66.92-1.01,1.57-.8h0c.66.21,1.01.91.8,1.57h0c-.21.66-.91,1.02-1.57.8h0c-.08-.03-.16-.06-.24-.11h0c-.5-.29-.75-.89-.56-1.46ZM334.01,224.49c-.52-.46-.56-1.25-.09-1.76h0c.46-.51,1.25-.55,1.76-.1h0c.51.46.55,1.25.09,1.76h0c-.4.44-1.05.53-1.55.24h0c-.07-.04-.14-.09-.21-.15ZM238.21,161.12c.28-.63,1.02-.92,1.65-.63h0c.63.28.91,1.02.63,1.65h0c-.28.63-1.02.91-1.64.63h0s-.08-.04-.12-.06h0c-.55-.32-.78-1-.52-1.59ZM337.89,219.88c-.55-.41-.68-1.19-.28-1.74h0c.4-.56,1.18-.68,1.74-.28h0c.56.41.68,1.19.28,1.74h0c-.38.52-1.09.66-1.63.35h0s-.07-.04-.11-.07ZM241,155.63c.34-.6,1.11-.8,1.7-.46h0c.6.34.8,1.11.46,1.7h0c-.34.6-1.11.8-1.7.46h0c-.6-.34-.8-1.11-.46-1.7ZM340.83,213.19l.03-.05h0l.04-.06h0c.34-.6,1.1-.8,1.7-.46h0c.6.34.8,1.11.46,1.71h0l-.03.06h0l-.03.06h0c-.34.6-1.11.8-1.7.46h0c-.6-.34-.8-1.11-.46-1.7ZM244.62,152.2c-.55-.41-.68-1.18-.28-1.74h0c.4-.56,1.18-.68,1.74-.28h0c.56.4.69,1.19.28,1.74h0c-.38.52-1.09.67-1.64.35h0s-.07-.05-.11-.07ZM343.56,207.82c.28-.63,1.02-.91,1.65-.63h0c.63.28.91,1.02.63,1.65h0c-.28.63-1.02.92-1.65.63h0s-.08-.03-.12-.06h0c-.55-.32-.78-1-.52-1.59ZM248.31,147.42c-.51-.46-.56-1.25-.1-1.76h0c.46-.51,1.25-.55,1.76-.1h0c.51.46.55,1.25.1,1.76h0c-.4.45-1.05.54-1.55.25h0c-.07-.04-.14-.09-.21-.15ZM345.67,202.31c.21-.66.91-1.02,1.57-.8h0c.66.21,1.02.91.8,1.57h0c-.21.66-.91,1.02-1.57.8h0c-.09-.03-.16-.07-.24-.11h0c-.5-.29-.75-.89-.56-1.47ZM252.47,143.06c-.46-.51-.42-1.3.09-1.76h0c.51-.46,1.3-.42,1.76.09h0c.46.51.42,1.3-.09,1.76h0c-.41.37-1.01.42-1.46.15h0c-.11-.06-.21-.14-.3-.24ZM347.19,196.61h0c.14-.67.8-1.11,1.48-.96h0c.67.14,1.11.8.96,1.48h0c-.14.67-.8,1.1-1.48.96h0c-.13-.03-.25-.08-.37-.14h0c-.45-.26-.71-.8-.59-1.33ZM257.07,139.16c-.41-.56-.29-1.34.27-1.74h0c.56-.4,1.33-.28,1.74.27h0c.4.56.28,1.34-.28,1.74h0c-.41.3-.94.31-1.35.07h0c-.15-.08-.28-.2-.38-.34ZM348.09,190.78c.07-.68.68-1.18,1.37-1.11h0c.69.07,1.19.68,1.12,1.37h0c-.07.69-.68,1.18-1.37,1.12h0c-.18-.02-.35-.07-.5-.16h0c-.41-.24-.67-.7-.62-1.21ZM262.05,135.76c-.34-.59-.14-1.36.46-1.7h0c.6-.35,1.36-.14,1.7.45h0c.35.6.14,1.36-.46,1.71h0c-.4.23-.87.22-1.25,0h0c-.18-.1-.34-.26-.46-.46ZM348.39,184.89c0-.69.55-1.25,1.24-1.25h0c.69,0,1.25.56,1.25,1.25h0c0,.69-.55,1.25-1.24,1.25h0c-.23,0-.44-.06-.63-.17h0c-.37-.21-.62-.62-.62-1.08ZM267.37,132.91c-.28-.63,0-1.37.63-1.65h0c.63-.28,1.37,0,1.65.63h0c.28.63,0,1.37-.63,1.65h0c-.38.17-.8.13-1.13-.06h0c-.22-.13-.4-.32-.51-.57ZM348.06,179c-.07-.68.42-1.3,1.1-1.37h0c.69-.07,1.3.42,1.38,1.11h0c.07.69-.42,1.3-1.11,1.37h0c-.27.03-.53-.03-.75-.16h0c-.33-.19-.57-.54-.62-.95ZM272.95,130.62c-.21-.66.15-1.36.8-1.57h0c.65-.22,1.36.14,1.57.8h0c.21.65-.14,1.36-.8,1.57h0c-.35.11-.72.06-1.01-.11h0c-.25-.15-.46-.39-.56-.69ZM347.12,173.18c-.14-.67.29-1.33.96-1.48h0c.68-.15,1.34.28,1.48.96h0c.15.67-.28,1.34-.95,1.48h0c-.31.07-.63,0-.89-.14h0c-.29-.17-.52-.46-.6-.82ZM278.74,128.93c-.14-.68.28-1.34.96-1.48h0c.67-.14,1.33.29,1.48.96h0c.14.67-.29,1.34-.96,1.48h0c-.32.07-.63.01-.89-.14h0c-.29-.17-.52-.46-.59-.82ZM345.59,167.48c-.22-.65.14-1.36.8-1.57h0c.65-.22,1.36.14,1.57.8h0c.21.66-.15,1.36-.8,1.57h0c-.35.11-.72.06-1.01-.11h0c-.25-.15-.46-.39-.56-.69ZM284.67,127.84c-.07-.69.42-1.3,1.11-1.37h0c.68-.08,1.3.42,1.37,1.1h0c.07.69-.42,1.3-1.11,1.37h0c-.27.03-.53-.03-.75-.16h0c-.33-.19-.57-.53-.62-.94ZM343.46,161.98c-.28-.63,0-1.36.63-1.64h0c.63-.28,1.37,0,1.65.63h0c.28.63,0,1.37-.63,1.65h0c-.38.17-.8.13-1.13-.06h0c-.22-.13-.4-.32-.52-.57ZM290.68,127.38c0-.69.55-1.25,1.24-1.25h0c.69,0,1.25.55,1.25,1.24h0c0,.69-.56,1.25-1.24,1.25h0c-.23,0-.44-.06-.63-.17h0c-.37-.21-.62-.62-.62-1.08ZM340.78,156.73c-.35-.6-.14-1.36.45-1.7h0c.6-.35,1.36-.14,1.7.45h0c.35.6.14,1.36-.45,1.7h0c-.4.23-.87.22-1.25,0h0c-.18-.1-.34-.26-.45-.45ZM296.71,127.55c.07-.68.68-1.18,1.37-1.11h0c.69.07,1.18.68,1.12,1.37h0c-.07.68-.68,1.18-1.37,1.11h0c-.18-.02-.35-.07-.5-.16h0c-.41-.24-.67-.7-.62-1.21ZM337.57,151.78c-.41-.56-.29-1.34.27-1.74h0c.56-.4,1.34-.28,1.74.27h0c.4.56.28,1.34-.27,1.74h0c-.41.3-.94.31-1.36.08h0c-.15-.08-.28-.2-.38-.35ZM302.69,128.36c.14-.67.8-1.1,1.48-.96h0c.67.14,1.1.8.96,1.48h0c-.14.68-.81,1.11-1.48.96h0c-.13-.03-.26-.07-.37-.14h0c-.45-.26-.71-.8-.59-1.34ZM333.85,147.2c-.47-.51-.42-1.3.09-1.76h0c.51-.46,1.3-.42,1.76.09h0c.46.51.43,1.3-.09,1.76h0c-.41.37-1,.42-1.46.15h0c-.11-.06-.21-.14-.3-.24ZM308.55,129.79c.21-.66.91-1.02,1.57-.8h0c.65.22,1.01.92.8,1.57h0c-.21.66-.91,1.02-1.57.8h0c-.09-.03-.17-.06-.24-.11h0c-.5-.29-.75-.89-.56-1.46ZM329.66,143.04c-.51-.46-.56-1.25-.1-1.76h0c.46-.51,1.25-.56,1.76-.1h0c.52.46.56,1.25.1,1.76h0c-.4.45-1.05.54-1.55.25h0c-.07-.04-.14-.09-.21-.15ZM314.22,131.82c.28-.63,1.02-.91,1.65-.63h0c.63.28.91,1.02.63,1.64h0c-.28.63-1.02.91-1.65.63h0s-.08-.04-.11-.06h0c-.55-.32-.78-1-.52-1.59ZM325.07,139.34c-.56-.4-.68-1.18-.28-1.74h0c.4-.56,1.18-.68,1.74-.28h0c.56.4.69,1.18.28,1.74h0c-.38.52-1.09.66-1.63.35h0s-.07-.04-.11-.07ZM320.11,136.14h0ZM319.66,134.44c.34-.6,1.1-.8,1.7-.46h0c.59.34.8,1.11.46,1.71h0c-.34.6-1.11.8-1.7.46h0c-.6-.34-.8-1.1-.46-1.7Z"/><path class="cj" d="M258.33,152.62c-3.83,7.99,21.79,6.26,42.84,11.07,24.71,5.64,32.45,28.94,35.22,29.51,4.33.9,5.58-35.74-18.54-49.18-27.17-15.14-53.33-4.3-59.52,8.6Z"/><path class="cz" d="M333.74,205.81c.9-8.82-22.62,1.49-44.05,4.1-25.16,3.06-40.34-16.24-43.13-15.84-4.38.62,6.86,35.52,34.1,40,30.69,5.05,51.64-14.02,53.09-28.25Z"/><path class="cb" d="M229.34,220.62c-8.05-10.99-8.08-24.67-.06-30.54,8.02-5.88,21.05-1.73,29.1,9.26,8.05,10.99,8.08,24.66.06,30.54-8.02,5.87-21.05,1.73-29.1-9.26Z"/><path class="ca" d="M331.51,169.46c-5.43-9.48-4.22-20.37,2.69-24.32,6.91-3.96,16.92.51,22.34,9.99,5.42,9.47,4.22,20.37-2.7,24.33-6.91,3.96-16.92-.51-22.34-9.99Z"/><path class="dj" d="M312.09,150.67c-19.37-11.18-44.02-4.74-55.07,14.39-11.05,19.13-4.3,43.71,15.07,54.89,19.37,11.18,44.02,4.74,55.07-14.39s4.3-43.71-15.07-54.89"/><path class="fd" d="M312.09,150.67c-19.37-11.18-44.02-4.74-55.07,14.39-11.05,19.13-4.3,43.71,15.07,54.89,19.37,11.18,44.02,4.74,55.07-14.39s4.3-43.71-15.07-54.89M277.04,211.37c-14.57-8.41-19.64-26.9-11.34-41.29s26.85-19.24,41.42-10.83,19.64,26.9,11.33,41.29-26.85,19.24-41.42,10.83"/><path class="ff" d="M265.83,204.38l.55.64-.63.73.67.77.82-.51.5.58-4.56,2.76-.8-.92,3.45-4.04ZM265.8,206.9l-.52-.61-1.77,2.03,2.29-1.42Z"/><polygon class="ff" points="258.16 202.25 257.78 201.51 261.82 199.49 261.2 198.27 261.87 197.93 262.88 199.89 258.16 202.25"/><polygon class="ff" points="254.9 194.2 254.69 193.4 259.81 192.1 260.02 192.9 254.9 194.2"/><path class="ff" d="M255.87,185.43l-.05-1.16,1.68-.05c.85-.03,1.35.38,1.38,1.19.03.81-.43,1.25-1.28,1.27l-2.75.09c-.85.03-1.35-.38-1.38-1.19-.04-.81.43-1.25,1.28-1.28l.51-.02.03.78-.57.02c-.38.01-.52.18-.5.44.01.26.16.42.54.41l2.86-.09c.38-.01.51-.18.5-.45-.01-.26-.15-.42-.53-.41l-.98.03.02.38-.76.02Z"/><polygon class="ff" points="255.61 177.19 259.37 178.01 259.21 178.74 254.03 177.61 254.24 176.6 257.52 176.44 254.41 175.77 254.56 175.04 259.75 176.17 259.58 177 255.61 177.19"/><polygon class="ff" points="259.18 168.86 259.67 167.84 260.35 168.17 259.86 169.19 261.25 169.88 261.88 168.6 262.56 168.93 261.57 170.95 256.8 168.61 257.79 166.59 258.47 166.93 257.85 168.21 259.18 168.86"/><path class="ff" d="M261.43,160.96l.84-1c.53-.63,1.15-.65,1.8-.11l2.07,1.72c.65.54.75,1.15.22,1.78l-.84,1-4.09-3.39ZM262.54,160.81l2.92,2.42.3-.36c.17-.2.16-.41-.13-.65l-2.13-1.76c-.29-.24-.5-.21-.67,0l-.3.36Z"/><path class="ff" d="M282.58,149.95l1.13-.28.43,1.62c.22.82-.07,1.39-.86,1.59-.79.2-1.32-.17-1.54-.98l-.7-2.66c-.22-.82.07-1.39.86-1.59.79-.2,1.32.17,1.54.98l.13.5-.76.19-.15-.55c-.1-.37-.29-.46-.55-.4-.26.06-.38.24-.28.61l.73,2.76c.1.36.29.46.55.39.26-.06.38-.24.29-.6l-.25-.94-.37.09-.19-.73Z"/><polygon class="ff" points="289.82 146.57 290.65 146.56 290.75 151.07 292.12 151.06 292.14 151.81 289.94 151.83 289.82 146.57"/><path class="ff" d="M298.26,148.47c.18-.82.72-1.19,1.52-1.01.8.18,1.13.75.95,1.57l-.59,2.67c-.18.82-.72,1.19-1.52,1.01-.8-.18-1.13-.75-.95-1.57l.59-2.67ZM298.47,151.37c-.08.37.05.54.31.6.26.06.45-.04.53-.41l.61-2.77c.08-.37-.05-.54-.31-.6-.26-.06-.45.04-.53.41l-.61,2.77Z"/><path class="ff" d="M309.11,152.32l-.08.17c-.24.48-.55.72-.96.7.32.36.3.79.05,1.29l-.19.38c-.36.72-.94.92-1.69.54l-1.17-.59,2.36-4.69,1.13.57c.77.39.93.91.56,1.64M307.83,151.17l-.62,1.24.29.15c.28.14.51.11.7-.27l.13-.26c.17-.34.13-.54-.14-.67l-.36-.18ZM306.87,153.08l-.72,1.44.43.21c.25.13.44.08.62-.27l.2-.41c.22-.43.14-.64-.2-.81l-.33-.17Z"/><path class="ff" d="M313.99,160.78l-.64-.55.51-.81-.78-.67-.73.63-.58-.5,4.08-3.42.93.79-2.79,4.53ZM313.64,158.28l.61.52,1.43-2.27-2.04,1.75Z"/><polygon class="ff" points="321.89 161.74 322.38 162.41 318.7 165.02 319.51 166.13 318.89 166.57 317.6 164.78 321.89 161.74"/><path class="ff" d="M324.05,179.74l-.17-.82.91-.32-.2-1-.97.04-.15-.75,5.36-.16.24,1.19-5.02,1.82ZM325.32,177.57l.16.78,2.55-.89-2.71.11Z"/><path class="ff" d="M329.74,186.45c-.03.8-.54,1.19-1.38,1.15h-.17s.03-.79.03-.79h.22c.38.03.53-.11.54-.37.01-.26-.13-.42-.5-.44-1.09-.06-1.36,1.55-2.87,1.47-.85-.04-1.31-.49-1.28-1.3.03-.81.54-1.21,1.38-1.16l.33.02-.03.78-.38-.02c-.38-.02-.52.14-.53.4-.01.26.12.44.5.46,1.09.06,1.36-1.55,2.88-1.47.85.04,1.31.48,1.28,1.29"/><path class="ff" d="M328.28,195.35c-.23.77-.81,1.03-1.62.79l-.16-.05.22-.75.21.06c.36.11.54,0,.62-.25.07-.25-.02-.44-.39-.55-1.05-.31-1.7,1.18-3.15.74-.82-.24-1.16-.79-.94-1.56.23-.78.81-1.04,1.63-.8l.31.09-.22.75-.36-.11c-.36-.11-.54.01-.62.26-.07.25.01.45.37.56,1.05.31,1.7-1.18,3.15-.74.81.24,1.16.78.94,1.55"/><path class="ff" d="M324.82,203.35l-3.52-2.11c-.33-.2-.53-.12-.66.1-.13.22-.1.44.22.63l3.52,2.11-.4.67-3.47-2.08c-.73-.44-.93-1.05-.51-1.74.42-.69,1.05-.81,1.78-.37l3.47,2.08-.42.71Z"/><path class="ff" d="M314.89,207.66c.13.06.21.1.52.4l.6.58c.35.34.6.35.86.08l.2-.2-1.56-1.5.58-.59,3.82,3.69-.87.89c-.6.61-1.14.6-1.73.03l-.3-.29c-.39-.38-.53-.75-.4-1.13-.41.17-.8,0-1.2-.39l-.59-.57c-.19-.18-.33-.31-.53-.38l.59-.6ZM318.79,210.18l-1.17-1.13-.23.23c-.21.22-.25.45.06.74l.38.36c.27.26.48.29.69.08l.28-.28Z"/><path class="ff" d="M307.79,213l.71-.44.63.74.87-.53-.39-.89.65-.4,2.09,4.93-1.03.63-3.53-4.05ZM310.29,213.44l-.68.42,1.76,2.07-1.08-2.48Z"/><polygon class="ff" points="303.39 219.04 302.21 215.4 302.93 215.17 304.55 220.2 303.56 220.51 301.77 217.75 302.74 220.76 302.04 220.98 300.41 215.95 301.23 215.7 303.39 219.04"/><path class="ff" d="M292.65,219.01l-.05-.7c-.06-.84.33-1.34,1.15-1.39.82-.05,1.27.41,1.33,1.25l.18,2.73c.06.84-.33,1.35-1.15,1.39-.82.05-1.27-.41-1.33-1.25l-.03-.51.79-.04.04.56c.03.37.2.51.47.49.26-.01.42-.17.39-.54l-.19-2.84c-.03-.38-.2-.5-.47-.49-.26.02-.42.16-.4.53l.05.75-.78.04Z"/><polygon class="ff" points="285.69 219.54 284.57 219.33 284.7 218.59 285.83 218.8 286.09 217.28 284.67 217.02 284.8 216.28 287.04 216.69 286.13 221.87 283.89 221.46 284.02 220.72 285.44 220.98 285.69 219.54"/><polygon class="ch" points="324.56 168.57 324.48 169.85 325.5 170.65 324.25 170.96 323.8 172.17 323.11 171.08 321.81 171.02 322.64 170.03 322.28 168.79 323.48 169.28 324.56 168.57"/><polygon class="ch" points="274.16 152.79 274.08 154.07 275.1 154.88 273.85 155.19 273.41 156.39 272.71 155.3 271.42 155.24 272.24 154.26 271.88 153.02 273.09 153.5 274.16 152.79"/><polygon class="ch" points="274.98 213.22 274.91 214.51 275.93 215.31 274.67 215.62 274.23 216.83 273.53 215.73 272.24 215.68 273.06 214.69 272.7 213.45 273.91 213.93 274.98 213.22"/><path class="ep" d="M291.07,206.87c.37.22.6.47.69.76.09.29.04.59-.14.9l-1.21,2.1c-.18.31-.41.49-.71.57-.3.07-.63,0-1.01-.22l-1.13-.65,2.38-4.11,1.13.65ZM289.02,210.42c.32.19.57.13.74-.16l1.21-2.09c.17-.29.09-.53-.23-.72l-.48-.28-1.72,2.97.48.28Z"/><polygon class="ep" points="287.02 210.02 285.09 208.91 287.47 204.79 289.39 205.9 289.06 206.48 287.79 205.74 287.11 206.92 288.21 207.56 287.88 208.13 286.78 207.49 286.07 208.72 287.34 209.45 287.02 210.02"/><rect class="ep" x="282.82" y="205.85" width="4.75" height=".76" transform="translate(-36 350.1) rotate(-60)"/><polygon class="ep" points="281.36 206.75 283.73 202.64 285.58 203.71 285.25 204.28 284.06 203.59 283.31 204.89 284.39 205.51 284.06 206.08 282.98 205.46 282.01 207.13 281.36 206.75"/><rect class="ep" x="279.08" y="203.69" width="4.75" height=".76" transform="translate(-36 345.79) rotate(-60)"/><polygon class="ep" points="281.58 202.16 280.82 201.72 278.77 205.26 278.12 204.88 280.16 201.34 279.4 200.9 279.73 200.33 281.91 201.58 281.58 202.16"/><path class="ep" d="M276.41,203.9l.38-1.85h0s-.41-.24-.41-.24l-.9,1.55-.65-.38,2.38-4.11,1.06.61c.37.22.61.47.69.77.09.29.04.59-.13.9l-.32.55c-.24.42-.58.62-1.02.59l-.36,2.03-.72-.41ZM276.7,201.23l.41.24c.33.19.57.14.74-.15l.31-.54c.17-.29.09-.53-.23-.72l-.41-.24-.82,1.42Z"/><polygon class="ep" points="274.28 202.67 272.35 201.55 274.73 197.44 276.65 198.55 276.32 199.12 275.05 198.39 274.37 199.57 275.48 200.2 275.14 200.78 274.04 200.14 273.33 201.36 274.61 202.1 274.28 202.67"/><path class="ep" d="M272.48,199.82l-.23.4c-.18.31-.42.5-.71.57-.3.07-.63,0-1.01-.21s-.6-.47-.69-.76c-.09-.29-.04-.6.14-.9l1.27-2.21c.18-.31.41-.5.71-.57.3-.07.63,0,1.01.21s.6.47.69.77c.08.3.04.6-.14.9l-.24.41-.65-.38.22-.38c.17-.3.1-.54-.22-.73s-.57-.13-.74.17l-1.24,2.15c-.17.3-.1.55.22.73s.57.13.74-.17l.21-.37.65.38Z"/><path class="ep" d="M306.05,207.44c-.24.41-.54.61-.92.61.2.33.18.7-.06,1.11l-.28.49c-.21.37-.49.6-.83.69-.34.09-.72.01-1.14-.23s-.68-.54-.77-.88c-.09-.34-.03-.7.18-1.06l.28-.49c.24-.41.54-.61.93-.61-.19-.33-.16-.7.07-1.1l.26-.45c.21-.36.49-.59.83-.69.34-.1.72-.02,1.14.22s.68.54.76.88c.09.34.02.69-.19,1.06l-.26.45ZM304.35,208.68c.2-.35.12-.62-.23-.82s-.63-.13-.82.21l-.31.54c-.2.35-.12.62.23.82s.63.13.82-.21l.31-.54ZM304.24,206.45c-.2.35-.13.62.22.82s.61.12.81-.22l.28-.49c.2-.35.13-.62-.21-.81s-.62-.13-.82.22l-.28.49Z"/><polygon class="ep" points="301.62 203.74 302.9 203.52 303.65 203.95 300.82 208.86 300.05 208.41 302.38 204.39 301.13 204.59 301.62 203.74"/><path class="ep" d="M299.41,206.54c-.21.37-.49.6-.83.69-.34.09-.72.02-1.14-.23s-.68-.54-.77-.87c-.09-.34-.03-.69.19-1.06l1.53-2.65c.21-.36.49-.59.82-.69.34-.1.72-.02,1.14.22s.68.54.76.88c.09.34.03.69-.18,1.06l-1.53,2.65ZM297.65,205.49c-.2.35-.14.63.2.82s.61.11.81-.24l1.5-2.6c.2-.35.14-.63-.2-.82s-.61-.11-.81.24l-1.5,2.6Z"/><path class="ep" d="M295.37,203.36c-.27.02-.46.06-.57.12-.11.06-.21.19-.32.38l-.2.34,1.72.99-.39.68-2.49-1.44.61-1.05c.17-.29.35-.49.55-.61.2-.12.46-.19.77-.21l1.04-.06c.17,0,.31-.05.4-.12.09-.07.19-.19.3-.37l.19-.33c.1-.17.14-.33.11-.46-.03-.13-.13-.25-.3-.35-.33-.19-.6-.11-.8.24l-.22.38-.76-.44.24-.41c.21-.36.48-.59.81-.69.33-.09.71-.02,1.13.23s.68.54.77.87c.09.33.02.68-.19,1.05l-.25.44c-.15.26-.31.45-.5.57-.18.12-.41.19-.68.2l-.98.06Z"/><path class="ep" d="M293.03,200.55c-.17.29-.4.34-.7.17s-.37-.41-.2-.69.4-.34.7-.17.37.41.2.69M291.6,203.04c-.17.29-.4.34-.7.17s-.37-.41-.2-.69.4-.34.7-.17.37.41.2.69"/><path class="ep" d="M289.29,200.7c-.21.37-.49.6-.83.69-.34.09-.72.02-1.14-.23s-.68-.53-.77-.87c-.09-.34-.03-.69.19-1.06l1.53-2.65c.21-.36.49-.59.83-.69.34-.1.72-.02,1.14.22s.68.54.76.88c.09.34.03.69-.18,1.06l-1.53,2.65ZM287.53,199.65c-.2.35-.14.63.2.82s.61.11.81-.24l1.5-2.6c.2-.35.14-.63-.2-.82s-.61-.11-.81.24l-1.5,2.6Z"/><path class="ep" d="M286,198.8c-.21.37-.49.6-.83.69-.34.09-.72.02-1.14-.23s-.68-.54-.77-.87c-.09-.34-.03-.69.19-1.06l1.53-2.65c.21-.36.49-.59.82-.69.34-.1.72-.02,1.14.22s.68.54.76.88.03.69-.18,1.06l-1.53,2.65ZM284.23,197.75c-.2.35-.14.63.2.82s.61.11.81-.24l1.5-2.6c.2-.35.14-.63-.2-.82s-.61-.11-.81.24l-1.5,2.6Z"/><path class="ep" d="M282.7,196.89c-.21.37-.49.6-.83.69-.34.09-.72.02-1.14-.23s-.68-.54-.77-.87c-.09-.34-.03-.69.19-1.06l1.53-2.65c.21-.36.49-.59.82-.69.34-.1.72-.02,1.14.22s.68.54.76.88c.09.34.03.69-.18,1.06l-1.53,2.65ZM280.94,195.85c-.2.35-.14.63.2.82s.61.11.81-.24l1.5-2.6c.2-.35.14-.63-.2-.82s-.61-.11-.81.24l-1.5,2.6Z"/><path class="ep" d="M278.66,193.71c-.27.02-.46.06-.57.12-.11.06-.21.19-.32.38l-.2.34,1.72.99-.39.68-2.49-1.44.61-1.05c.17-.29.35-.49.55-.61.2-.12.46-.19.77-.21l1.04-.06c.17,0,.31-.05.4-.12.09-.07.19-.19.3-.37l.19-.33c.1-.17.14-.33.11-.46-.03-.13-.13-.25-.3-.35-.33-.19-.6-.11-.8.24l-.22.38-.76-.44.24-.41c.21-.36.48-.59.81-.69.33-.09.71-.02,1.13.23s.68.54.77.87c.09.33.02.68-.19,1.05l-.25.44c-.15.26-.31.45-.5.57-.18.12-.41.19-.68.2l-.98.06Z"/><path class="ep" d="M275.66,191.98c-.27.02-.46.06-.57.12-.11.06-.21.19-.32.38l-.2.34,1.72.99-.39.68-2.49-1.44.61-1.05c.17-.29.35-.49.55-.61.2-.12.46-.19.77-.21l1.04-.06c.17,0,.3-.05.4-.12.09-.07.19-.19.3-.37l.19-.33c.1-.17.14-.33.11-.46-.03-.13-.13-.25-.3-.35-.33-.19-.6-.11-.8.24l-.22.38-.76-.44.24-.41c.21-.36.48-.59.81-.69.33-.09.71-.02,1.13.23s.68.54.77.87c.09.33.02.68-.19,1.05l-.25.44c-.15.26-.31.45-.5.57-.18.12-.41.19-.68.2l-.98.06Z"/><path class="ep" d="M272.23,190.84c-.21.37-.5.6-.85.68-.35.09-.75,0-1.2-.26s-.72-.56-.82-.91c-.1-.35-.05-.71.17-1.08l1.52-2.63c.21-.36.49-.59.85-.68.36-.09.76,0,1.2.25s.72.56.82.91c.1.35.05.71-.16,1.08l-1.52,2.63ZM272.96,187.79c.21-.36.12-.64-.27-.86s-.68-.15-.88.2l-1.48,2.56c-.21.36-.12.65.26.87s.68.15.89-.21l1.48-2.56Z"/><path class="ep" d="M267.68,186.49c-.29-.56-.29-1.08-.02-1.56l.11-.19c.21-.36.49-.59.84-.68.35-.09.74,0,1.18.25s.71.56.81.9c.1.35.04.7-.17,1.07l-.19.33-.78-.45.17-.3c.2-.35.12-.63-.24-.84-.2-.11-.36-.15-.49-.11-.13.04-.25.15-.35.32l-.06.11c-.09.15-.12.29-.12.43,0,.14.06.3.17.49l.5.99c.28.54.28,1.05,0,1.51l-.11.19c-.22.36-.5.58-.86.67-.35.08-.75,0-1.19-.26s-.72-.56-.82-.91c-.1-.35-.05-.71.16-1.07l.2-.35.78.45-.19.33c-.2.35-.11.63.27.85s.68.16.88-.19l.06-.1c.09-.15.13-.29.12-.41,0-.13-.06-.28-.15-.47l-.5-.99Z"/><rect class="ep" x="263.09" y="184.99" width="5.67" height=".91" transform="translate(-27.63 323.01) rotate(-60)"/><path class="dh" d="M312.79,183.13l-2.21,20.68-2.07-1.19.72-6.06-6.27-3.62-4.89,3.66-2.07-1.2,16.78-12.27ZM310.39,187.3l-5.92,4.36,5.11,2.95.82-7.31"/><g class="eq"><rect class="ey" x="300.71" y="186.73" width="10.33" height="16.83" transform="translate(-16.06 362.46) rotate(-60)"/></g><g class="ec"><rect class="fb" x="300.61" y="186.56" width="10.71" height="16.83" transform="translate(-15.87 362.47) rotate(-60)"/></g><path class="ch" d="M300.1,186.86l-1.69-.98-4.92-2.84-.96,1.66,3.99,2.3-8.32,2.18-2.86.73c.45.36.93.7,1.46,1,.26.15.52.29.78.42l1.28-.32,7.76-2.03-2.01,3.48,1.69.98,3.37-5.83c.04-.07.09-.14.13-.21l.31-.53h0Z"/><g class="di"><rect class="dg" x="287.61" y="182.82" width="10.16" height="11.26" transform="translate(-16.86 347.7) rotate(-60)"/></g><g class="dy"><rect class="es" x="287.61" y="182.82" width="10.16" height="11.26" transform="translate(-16.86 347.7) rotate(-60)"/></g><path class="ch" d="M286.78,188.75c-2.77-2.55-3.44-6.73-1.57-9.96,2.22-3.84,7.18-5.14,11.07-2.89,2.18,1.26,3.64,3.4,4.01,5.88v.04s1.92-.24,1.92-.24v-.04c-.45-3.07-2.26-5.73-4.97-7.29-4.81-2.78-10.96-1.17-13.7,3.58-2.1,3.64-1.63,8.29,1.13,11.48l2.12-.55Z"/><path class="ex" d="M288.04,185.63l1.64.94-.96,1.67,1.23-.32.52-.89.9.52,1.23-.32-1.69-.97.69-1.2,1.73-3,1.15-1.99,1.92,1.11c-.17.72-.42,1.47-.77,2.21l.79.45c.34-.73.61-1.47.8-2.19l1.87,1.08c.04.82-.08,1.65-.35,2.45l.79.46c1.26-3.42-.11-7.4-3.41-9.3-3.68-2.12-8.4-.89-10.49,2.74-1.84,3.18-1.08,7.18,1.61,9.55l1.23-.32c-.5-.72-.52-1.83-.42-2.68M298.94,181.61l-1.54-.89c.11-.7.15-1.44.05-2.13.75.88,1.26,1.92,1.49,3.02M296.02,177.4c.62.7.65,1.92.54,2.84l-1.64-.94,1.09-1.89ZM290.12,185.81l-1.92-1.11c.22-.96.61-1.97,1.14-2.95l2.34,1.35-1.56,2.71ZM292.13,182.32l-2.34-1.35c.59-.95,1.27-1.79,1.99-2.46l1.92,1.11-1.56,2.71ZM295.23,176.95l-1.09,1.89-1.64-.94c.74-.55,1.81-1.14,2.73-.95M293.48,176.3c-.66.26-1.27.66-1.82,1.11l-1.54-.89c1.07-.35,2.23-.43,3.36-.22M289.09,176.96l1.88,1.08c-.71.7-1.38,1.54-1.96,2.48l-2.37-1.37c.64-.95,1.49-1.69,2.45-2.19M285.51,183.15c-.05-1.09.17-2.19.67-3.22l2.37,1.37c-.52.97-.92,1.97-1.17,2.94l-1.88-1.08ZM285.66,184.26l1.54.89c-.11.7-.15,1.44-.05,2.13-.75-.88-1.26-1.92-1.49-3.02"/><g class="dq"><rect class="do" x="279.58" y="178.94" width="11.41" height="8.28" transform="translate(-15.9 338.6) rotate(-60)"/></g><g class="em"><rect class="dx" x="279.58" y="178.94" width="11.41" height="8.27" transform="translate(-15.9 338.6) rotate(-60)"/></g><path class="dh" d="M282.12,165.42l-2.21,20.68-2.07-1.2.72-6.06-6.27-3.62-4.89,3.66-2.07-1.2,16.78-12.27ZM279.71,169.59l-5.92,4.36,5.11,2.95.82-7.31"/><g class="dw"><rect class="dm" x="270.25" y="169.4" width="9.45" height="16.83" transform="translate(-16.5 327.04) rotate(-60)"/></g><g class="fc"><rect class="et" x="270.13" y="169.18" width="9.95" height="16.83" transform="translate(-16.25 327.04) rotate(-60)"/></g><path class="fa" d="M245.08,283.66l-38.74-4.95c-1.3-.17-2.55.54-3.09,1.74l-16.37,37.02c-.98,2.22-4.06,2.38-5.28.28l-100.54-174.15c-2-3.46-.81-7.88,2.65-9.88l53.96-31.16c3.46-2,7.88-.81,9.88,2.65l100.47,174.02c1.23,2.12-.51,4.73-2.94,4.42Z"/><polygon class="eo" points="189.14 312.37 190.54 309.2 87.85 131.33 85.43 132.74 189.14 312.37"/><polygon class="eh" points="236.34 282.54 239.83 282.99 136.17 103.44 133.74 104.84 236.34 282.54"/><path class="du" d="M117.07,121.44l10.56,3.61,5.44-9.75c1.52-2.72,5.09-3.48,7.58-1.61l8.93,6.69,8.18-7.59c2.28-2.12,5.91-1.74,7.71.81l6.43,9.13,10.13-4.69c2.83-1.31,6.16.17,7.08,3.15l3.29,10.66,11.08-1.33c3.09-.37,5.8,2.07,5.76,5.18l-.16,11.16,10.95,2.16c3.06.6,4.88,3.76,3.87,6.71l-3.61,10.56,9.75,5.44c2.72,1.52,3.48,5.09,1.61,7.58l-6.69,8.93,7.59,8.18c2.12,2.28,1.74,5.91-.81,7.71l-9.13,6.43,4.69,10.13c1.31,2.83-.17,6.16-3.15,7.08l-10.66,3.29,1.33,11.08c.37,3.09-2.07,5.8-5.18,5.76l-11.16-.16-2.16,10.95c-.6,3.06-3.76,4.88-6.71,3.87l-10.56-3.61-5.44,9.75c-1.52,2.72-5.09,3.48-7.58,1.61l-8.93-6.69-8.18,7.59c-2.28,2.12-5.91,1.74-7.71-.81l-6.43-9.13-10.13,4.69c-2.83,1.31-6.16-.17-7.08-3.15l-3.29-10.66-11.08,1.33c-3.09.37-5.8-2.07-5.76-5.18l.16-11.16-10.95-2.16c-3.06-.6-4.88-3.76-3.87-6.71l3.61-10.56-9.75-5.44c-2.72-1.52-3.48-5.09-1.61-7.58l6.69-8.93-7.59-8.18c-2.12-2.28-1.74-5.91.81-7.71l9.13-6.43-4.69-10.13c-1.31-2.83.17-6.16,3.15-7.08l10.66-3.29-1.33-11.08c-.37-3.09,2.07-5.8,5.18-5.76l11.16.16,2.16-10.95c.6-3.06,3.76-4.88,6.71-3.87Z"/><circle class="df" cx="153.33" cy="192" r="63.24" transform="translate(-43.27 44.61) rotate(-14.53)"/><path class="ej" d="M121.15,135.81c-31.08,17.95-41.73,57.69-23.79,88.78s57.69,41.73,88.78,23.79c31.08-17.95,41.73-57.69,23.79-88.78-17.95-31.08-57.69-41.73-88.78-23.79ZM184.92,246.26c-29.92,17.27-68.18,7.02-85.45-22.9-17.27-29.92-7.02-68.18,22.9-85.45,29.92-17.27,68.18-7.02,85.45,22.9,17.27,29.92,7.02,68.18-22.9,85.45Z"/><path class="en" d="M128.25,148.12c-24.28,14.02-32.6,45.07-18.58,69.35,14.02,24.28,45.07,32.6,69.35,18.58,24.28-14.02,32.6-45.07,18.58-69.35-14.02-24.28-45.07-32.6-69.35-18.58Z"/><path class="dt" d="M122.24,138.14c-29.74,17.17-39.93,55.21-22.76,84.95,17.17,29.74,55.21,39.93,84.95,22.76,29.74-17.17,39.93-55.21,22.76-84.95-17.17-29.74-55.21-39.93-84.95-22.76ZM183.26,243.84c-28.63,16.53-65.24,6.72-81.77-21.91-16.53-28.63-6.72-65.24,21.91-81.77s65.24-6.72,81.77,21.91c16.53,28.63,6.72,65.24-21.91,81.77Z"/><path class="ce" d="M125.9,144.48c-26.24,15.15-35.24,48.71-20.08,74.96,15.15,26.24,48.71,35.24,74.96,20.08,26.24-15.15,35.24-48.71,20.08-74.96-15.15-26.24-48.71-35.24-74.96-20.08ZM179.74,237.74c-25.26,14.58-57.56,5.93-72.15-19.33-14.59-25.26-5.93-57.56,19.33-72.15s57.56-5.93,72.15,19.33c14.59,25.26,5.93,57.56-19.33,72.15Z"/><path class="fe" d="M182.79,242.96h0,0ZM181.08,242.5c-.34-.6-.14-1.36.46-1.7h0c.6-.34,1.36-.14,1.71.45h0c.34.6.14,1.36-.46,1.7h0c-.6.35-1.36.14-1.71-.45ZM177.31,245.76c-.63.28-1.37,0-1.65-.63h0c-.28-.63,0-1.37.63-1.65h0c.63-.28,1.37,0,1.65.63h0c.27.59.03,1.27-.51,1.59h0s-.08.04-.11.06ZM186.22,239.32c-.41-.55-.28-1.34.27-1.74h0c.56-.4,1.34-.28,1.74.28h0c.4.56.28,1.34-.28,1.74h0s-.07.05-.11.07h0c-.54.31-1.25.17-1.63-.35ZM171.56,247.97c-.65.22-1.36-.14-1.57-.8h0c-.22-.65.14-1.36.8-1.57h0c.65-.22,1.36.14,1.57.8h0c.19.57-.06,1.18-.56,1.46h0c-.08.04-.15.08-.24.11ZM190.99,235.64c-.46-.51-.42-1.3.09-1.76h0c.51-.46,1.3-.42,1.76.09h0c.46.51.42,1.3-.1,1.76h0c-.07.06-.14.11-.21.16h0c-.5.29-1.15.2-1.55-.25ZM165.61,249.58c-.67.14-1.34-.29-1.48-.96h0c-.14-.67.29-1.34.96-1.48h0c.68-.14,1.34.29,1.48.96h0c.12.54-.14,1.08-.6,1.34h0c-.11.06-.23.11-.36.14ZM195.34,231.46c-.51-.46-.55-1.25-.09-1.76h0c.47-.51,1.25-.56,1.76-.09h0c.51.46.55,1.25.09,1.76h0c-.09.1-.19.18-.3.24h0c-.46.26-1.05.22-1.46-.15ZM159.53,250.55c-.68.07-1.3-.42-1.37-1.11h0c-.07-.68.42-1.3,1.11-1.37h0c.68-.07,1.3.42,1.37,1.11h0c.05.51-.21.97-.62,1.21h0c-.15.08-.31.14-.49.16ZM199.23,226.86c-.56-.4-.68-1.19-.27-1.74h0c.4-.56,1.18-.68,1.74-.27h0c.56.4.68,1.18.28,1.74h0c-.11.14-.24.26-.39.34h0c-.41.24-.95.23-1.36-.07ZM153.37,250.87c-.69,0-1.24-.56-1.25-1.25h0c0-.69.56-1.24,1.25-1.24h0c.69,0,1.25.56,1.25,1.25h0c0,.46-.25.87-.63,1.08h0c-.19.11-.39.16-.62.16ZM202.62,221.88c-.6-.35-.8-1.11-.46-1.71h0c.34-.6,1.11-.8,1.7-.46h0c.6.35.81,1.11.46,1.7h0c-.11.2-.27.35-.46.46h0c-.37.21-.85.23-1.25,0ZM147.22,250.54c-.69-.07-1.19-.69-1.11-1.37h0c.07-.69.69-1.19,1.37-1.11h0c.69.07,1.18.68,1.11,1.37h0c-.04.41-.28.76-.62.95h0c-.22.13-.48.19-.75.16ZM205.47,216.56c-.63-.27-.91-1.02-.64-1.64h0c.28-.63,1.02-.92,1.65-.64h0c.63.28.91,1.02.63,1.65h0c-.11.25-.29.45-.52.57h0c-.33.19-.75.23-1.13.06ZM141.14,249.58c-.67-.14-1.1-.8-.96-1.48h0c.14-.67.81-1.11,1.48-.96h0c.68.14,1.11.81.96,1.48h0c-.08.36-.3.65-.6.82h0c-.26.15-.57.21-.88.14ZM207.75,210.97c-.66-.21-1.02-.91-.8-1.57h0c.22-.65.92-1.01,1.57-.8h0c.66.21,1.01.91.8,1.57h0c-.1.31-.3.55-.56.7h0c-.29.17-.66.22-1.01.1ZM135.19,247.99c-.66-.21-1.01-.92-.8-1.57h0c.22-.65.92-1.01,1.57-.8h0c.66.21,1.02.91.8,1.57h0c-.1.31-.31.55-.56.69h0c-.3.17-.66.22-1.01.11ZM209.43,205.18c-.68-.14-1.11-.81-.96-1.48h0c.15-.68.81-1.11,1.48-.96h0c.67.14,1.11.81.96,1.48h0c-.08.36-.3.65-.6.82h0c-.26.15-.57.21-.88.14ZM129.43,245.79h0c-.63-.27-.91-1.02-.64-1.64h0c.28-.63,1.02-.91,1.65-.64h0c.63.28.91,1.02.63,1.64h0c-.11.25-.3.45-.52.57h0c-.33.19-.75.23-1.13.06ZM210.51,199.25c-.69-.07-1.18-.69-1.11-1.37h0c.07-.69.68-1.18,1.37-1.11h0c.69.07,1.18.68,1.11,1.37h0c-.04.41-.28.76-.62.95h0c-.22.13-.48.19-.75.16ZM123.94,243.01c-.6-.35-.8-1.11-.46-1.7h0c.35-.6,1.11-.81,1.7-.46h0c.6.35.8,1.11.46,1.7h0c-.11.2-.28.35-.46.45h0c-.37.21-.84.23-1.25,0ZM210.96,193.23c-.69,0-1.24-.56-1.25-1.25h0c0-.69.56-1.25,1.25-1.24h0c.69,0,1.25.56,1.25,1.24h0c0,.47-.25.87-.63,1.08h0c-.18.1-.4.17-.62.17ZM118.77,239.66h0c-.56-.4-.68-1.18-.28-1.74h0c.4-.56,1.19-.68,1.74-.27h0c.56.4.68,1.18.28,1.74h0c-.11.15-.23.26-.39.35h0c-.41.24-.94.23-1.35-.07ZM210.77,187.2c-.68.07-1.3-.42-1.37-1.11h0c-.07-.69.42-1.3,1.11-1.37h0c.68-.07,1.29.43,1.37,1.11h0c.05.5-.2.98-.61,1.21h0c-.15.08-.32.14-.5.16ZM113.98,235.79c-.51-.46-.55-1.25-.09-1.76h0c.46-.52,1.25-.56,1.76-.1h0c.51.47.56,1.25.09,1.77h0c-.09.1-.19.18-.3.24h0c-.45.26-1.05.22-1.46-.15ZM209.96,181.23c-.67.14-1.34-.29-1.48-.96h0c-.14-.68.29-1.34.96-1.48h0c.68-.14,1.34.29,1.48.96h0c.12.54-.14,1.08-.6,1.34h0c-.11.06-.23.11-.36.14ZM109.62,231.43c-.46-.51-.42-1.3.1-1.76h0c.51-.46,1.3-.42,1.76.09h0c.46.51.42,1.3-.09,1.76h0c-.06.06-.13.11-.21.15h0c-.5.29-1.15.2-1.55-.25ZM208.53,175.37c-.66.21-1.36-.15-1.57-.8h0c-.22-.65.14-1.36.8-1.57h0c.66-.21,1.36.15,1.57.8h0c.18.57-.06,1.18-.56,1.47h0c-.07.04-.15.08-.23.11ZM105.74,226.65c-.4-.56-.28-1.34.28-1.74h0c.56-.4,1.34-.28,1.74.28h0c.41.55.28,1.34-.28,1.74h0s-.07.05-.11.07h0c-.55.32-1.26.17-1.63-.35ZM206.48,169.7c-.63.28-1.37,0-1.65-.63h0c-.28-.63,0-1.37.63-1.65h0c.63-.28,1.37,0,1.65.63h0c.26.59.03,1.27-.51,1.59h0s-.07.04-.11.06ZM102.39,221.48c-.34-.6-.14-1.36.46-1.7h0c.6-.34,1.36-.14,1.7.46h0c.34.6.14,1.36-.46,1.7h0c-.6.34-1.36.14-1.7-.46ZM202.15,163.81l-.03-.05h0l-.04-.06h0c-.34-.6-.14-1.36.45-1.71h0c.6-.34,1.36-.14,1.71.45h0l.03.06h0l.03.06h0c.34.6.14,1.36-.46,1.7h0c-.6.34-1.36.14-1.7-.46ZM101.23,216.63c-.63.28-1.37,0-1.65-.63h0c-.28-.63,0-1.37.63-1.65h0c.63-.28,1.37,0,1.65.62h0c.26.59.03,1.28-.51,1.59h0s-.08.04-.11.06ZM198.86,158.76c-.4-.56-.28-1.33.28-1.74h0c.56-.4,1.34-.28,1.74.27h0c.4.56.28,1.34-.28,1.74h0s-.07.05-.11.07h0c-.55.32-1.25.17-1.63-.35ZM98.94,211.05c-.65.22-1.36-.14-1.57-.8h0c-.22-.65.14-1.36.8-1.57h0c.66-.21,1.36.14,1.57.8h0c.19.57-.06,1.18-.56,1.47h0c-.07.04-.15.08-.24.1ZM195.15,154.18c-.46-.51-.42-1.3.09-1.76h0c.52-.46,1.3-.42,1.76.09h0c.46.51.42,1.3-.09,1.76h0c-.07.06-.14.11-.21.15h0c-.5.29-1.15.2-1.55-.24ZM97.24,205.27c-.67.15-1.33-.28-1.48-.96h0c-.15-.67.28-1.33.96-1.48h0c.67-.15,1.33.28,1.48.96h0c.12.54-.14,1.08-.6,1.34h0c-.11.06-.23.11-.36.14ZM190.97,150.02h0c-.51-.46-.56-1.25-.09-1.76h0c.46-.51,1.24-.56,1.76-.09h0c.51.46.55,1.25.09,1.76h0c-.09.1-.19.18-.31.25h0c-.45.26-1.04.22-1.45-.15ZM96.16,199.33c-.69.07-1.3-.42-1.37-1.11h0c-.07-.68.42-1.3,1.11-1.37h0c.68-.07,1.3.43,1.37,1.11h0c.05.5-.2.97-.62,1.21h0c-.15.08-.32.14-.49.16ZM186.38,146.32c-.56-.4-.68-1.18-.28-1.74h0c.4-.56,1.18-.69,1.74-.29h0c.56.41.68,1.18.28,1.74h0c-.11.15-.24.26-.39.35h0c-.41.24-.95.23-1.36-.07ZM95.71,193.32c-.68,0-1.24-.56-1.24-1.25h0c0-.69.56-1.25,1.24-1.25h0c.69,0,1.25.56,1.25,1.25h0c0,.46-.25.86-.63,1.08h0c-.18.1-.39.16-.62.17ZM181.43,143.12c-.6-.34-.8-1.1-.46-1.7h0c.35-.6,1.11-.8,1.7-.46h0c.59.34.8,1.1.46,1.7h0c-.12.2-.27.35-.46.46h0c-.37.21-.85.23-1.24,0ZM95.89,187.29c-.69-.07-1.18-.68-1.11-1.37h0c.07-.69.68-1.18,1.37-1.11h0c.69.07,1.19.69,1.11,1.37h0c-.04.41-.28.76-.62.95h0c-.22.13-.48.19-.75.16ZM176.16,140.45c-.63-.28-.91-1.01-.64-1.64h0c.28-.63,1.02-.91,1.65-.64h0c.63.28.91,1.02.64,1.65h0c-.11.25-.29.45-.52.57h0c-.33.19-.75.23-1.13.06ZM96.7,181.31c-.67-.15-1.11-.81-.96-1.48h0c.14-.67.8-1.11,1.48-.96h0c.67.14,1.1.8.96,1.48h0c-.08.36-.3.65-.6.83h0c-.25.15-.57.21-.88.14ZM170.65,138.35c-.65-.21-1.01-.91-.8-1.57h0c.21-.66.92-1.02,1.57-.8h0c.66.21,1.02.91.81,1.57h0c-.1.31-.31.55-.57.7h0c-.29.17-.65.22-1.01.11ZM98.13,175.45c-.66-.21-1.02-.92-.81-1.57h0c.21-.65.91-1.01,1.57-.8h0c.65.22,1.01.92.8,1.57h0c-.1.31-.3.55-.56.7h0c-.29.17-.66.22-1,.11ZM164.95,136.83c-.67-.14-1.11-.8-.96-1.48h0c.14-.67.8-1.1,1.48-.96h0c.67.15,1.11.81.96,1.48h0c-.08.36-.3.65-.6.82h0c-.25.15-.57.21-.88.14ZM100.16,169.77c-.63-.28-.91-1.02-.63-1.65h0c.27-.63,1.01-.92,1.64-.64h0c.63.28.91,1.02.63,1.64h0c-.11.25-.3.45-.52.57h0c-.33.19-.75.23-1.13.06ZM159.12,135.92c-.68-.07-1.18-.68-1.11-1.37h0c.07-.69.68-1.18,1.37-1.11h0c.69.07,1.19.69,1.11,1.37h0c-.04.41-.29.76-.62.95h0c-.22.13-.48.19-.75.16ZM102.77,164.33c-.59-.34-.8-1.1-.46-1.7h0c.34-.6,1.1-.8,1.7-.46h0c.6.34.81,1.11.46,1.7h0c-.12.2-.27.35-.46.46h0c-.37.21-.85.23-1.24,0ZM153.23,135.62c-.69,0-1.25-.56-1.25-1.24h0c0-.69.56-1.25,1.24-1.25h0c.69,0,1.25.55,1.25,1.24h0c0,.46-.25.86-.63,1.08h0c-.18.1-.39.16-.62.17ZM105.93,159.2c-.56-.4-.68-1.18-.28-1.74h0c.4-.56,1.18-.68,1.74-.28h0c.56.4.68,1.18.28,1.74h0c-.11.15-.24.26-.39.35h0c-.41.24-.95.23-1.36-.07ZM147.34,135.93c-.69.07-1.3-.42-1.38-1.11h0c-.07-.68.42-1.3,1.11-1.37h0c.68-.07,1.3.42,1.37,1.11h0c.05.5-.2.97-.61,1.21h0c-.15.08-.32.14-.49.16ZM109.61,154.42c-.51-.46-.55-1.25-.09-1.76h0c.46-.51,1.25-.55,1.76-.09h0c.52.46.56,1.25.09,1.76h0c-.09.1-.19.19-.3.25h0c-.45.26-1.04.22-1.46-.16ZM141.51,136.87c-.68.15-1.34-.28-1.48-.96h0c-.15-.67.28-1.33.95-1.48h0c.68-.14,1.34.28,1.48.96h0c.12.54-.14,1.08-.6,1.34h0c-.11.06-.23.11-.36.14ZM113.78,150.07c-.46-.51-.42-1.3.09-1.76h0c.51-.46,1.3-.42,1.76.09h0c.46.51.42,1.3-.09,1.76h0c-.07.06-.14.12-.21.16h0c-.5.29-1.15.2-1.55-.25ZM135.82,138.41c-.66.21-1.36-.14-1.58-.79h0c-.21-.66.14-1.36.8-1.58h0c.66-.21,1.36.14,1.58.79h0c.19.57-.06,1.18-.56,1.47h0c-.07.04-.15.08-.23.11ZM118.38,146.17c-.4-.56-.28-1.34.28-1.74h0c.55-.41,1.34-.28,1.74.27h0c.4.56.28,1.34-.28,1.74h0s-.08.05-.11.07h0c-.55.32-1.25.18-1.63-.35ZM130.31,140.54c-.63.28-1.37,0-1.65-.63h0c-.28-.63,0-1.37.63-1.65h0c.63-.28,1.37,0,1.65.62h0c.26.59.03,1.27-.52,1.59h0s-.07.04-.11.06ZM125.07,143.23h0ZM123.36,142.77c-.34-.6-.14-1.36.45-1.7h0c.59-.34,1.36-.14,1.7.45h0c.34.6.14,1.36-.46,1.7h0c-.6.34-1.36.14-1.7-.46Z"/><path class="cp" d="M108.44,204.97c5.01,7.32,16.32-15.74,31-31.56,17.24-18.58,41.29-13.63,43.17-15.74,2.94-3.3-28.17-22.7-51.86-8.54-26.7,15.95-30.39,44.04-22.31,55.85Z"/><path class="co" d="M192.21,166.26c-7.19-5.19-10.02,20.34-18.48,40.2-9.93,23.32-34.23,26.81-35.29,29.43-1.65,4.11,34.19,11.82,51.69-9.53,19.72-24.05,13.68-51.73,2.08-60.1Z"/><path class="cc" d="M152.84,264.08c-13.55,1.48-25.4-5.33-26.48-15.22-1.08-9.88,9.03-19.09,22.57-20.57,13.54-1.48,25.4,5.34,26.48,15.22,1.07,9.88-9.03,19.09-22.57,20.57Z"/><path class="cd" d="M159.62,150.02c-10.92-.04-19.75-6.53-19.72-14.5.03-7.97,8.9-14.39,19.82-14.36,10.92.04,19.75,6.53,19.72,14.5-.03,7.97-8.9,14.39-19.82,14.35Z"/><path class="dj" d="M133.64,157.44c-19.37,11.18-26.11,35.76-15.07,54.89,11.05,19.13,35.7,25.58,55.07,14.39,19.37-11.18,26.11-35.76,15.07-54.89-11.05-19.13-35.7-25.58-55.07-14.39"/><path class="fd" d="M133.64,157.44c-19.37,11.18-26.11,35.76-15.07,54.89,11.05,19.13,35.7,25.58,55.07,14.39,19.37-11.18,26.11-35.76,15.07-54.89-11.05-19.13-35.7-25.58-55.07-14.39M168.68,218.14c-14.57,8.41-33.11,3.56-41.42-10.83-8.31-14.39-3.23-32.88,11.34-41.29,14.57-8.41,33.11-3.56,41.42,10.83s3.23,32.88-11.33,41.29"/><path class="ff" d="M157.02,224.36l.83-.16.31.91,1-.19-.03-.96.75-.14.11,5.33-1.2.23-1.78-5.01ZM159.19,225.64l-.79.15.87,2.54-.08-2.69Z"/><polygon class="ff" points="151.34 229.93 150.51 229.89 150.78 225.38 149.41 225.31 149.46 224.56 151.66 224.67 151.34 229.93"/><polygon class="ff" points="142.74 228.73 141.94 228.52 143.37 223.43 144.17 223.65 142.74 228.73"/><path class="ff" d="M135.63,223.5l-1.03-.54.79-1.48c.4-.75,1-.98,1.72-.6.72.38.86,1,.46,1.75l-1.3,2.43c-.4.75-1,.98-1.72.6-.72-.38-.87-1-.46-1.75l.24-.45.69.36-.27.5c-.18.33-.1.54.13.66.23.12.45.07.63-.26l1.35-2.52c.18-.33.1-.53-.14-.65-.23-.12-.44-.08-.62.25l-.46.86.33.17-.36.67Z"/><polygon class="ff" points="128.37 219.61 130.95 216.77 131.5 217.26 127.94 221.19 127.16 220.5 128.67 217.59 126.53 219.94 125.98 219.45 129.55 215.52 130.18 216.08 128.37 219.61"/><polygon class="ff" points="122.93 212.36 122.3 211.42 122.93 211 123.56 211.94 124.85 211.07 124.06 209.89 124.69 209.46 125.94 211.33 121.53 214.29 120.28 212.43 120.91 212 121.7 213.18 122.93 212.36"/><path class="ff" d="M117.21,206.45l-.45-1.23c-.28-.77.01-1.32.81-1.61l2.52-.93c.8-.29,1.37-.08,1.65.7l.45,1.23-4.98,1.85ZM117.64,205.42l3.56-1.32-.16-.44c-.09-.25-.27-.35-.63-.21l-2.59.96c-.36.13-.43.33-.34.57l.16.44Z"/><path class="ff" d="M118.26,182.64l.32-1.12,1.62.44c.82.22,1.17.75.94,1.54-.22.78-.81,1.06-1.62.84l-2.65-.72c-.82-.22-1.17-.75-.94-1.54.22-.78.8-1.06,1.62-.84l.49.13-.21.75-.55-.15c-.36-.1-.55.02-.62.28-.07.25.02.45.39.55l2.75.75c.36.1.54-.03.61-.28.07-.25-.01-.45-.38-.55l-.94-.26-.1.36-.73-.2Z"/><polygon class="ff" points="118.95 174.67 119.36 173.95 123.32 176.12 123.99 174.93 124.65 175.29 123.57 177.21 118.95 174.67"/><path class="ff" d="M124.81,168.32c-.62-.57-.67-1.22-.11-1.82.56-.6,1.22-.6,1.84-.04l2.02,1.84c.62.57.67,1.22.11,1.82-.56.6-1.22.6-1.84.04l-2.02-1.85ZM127.44,169.59c.28.25.5.23.68.03.18-.19.19-.41-.09-.67l-2.09-1.92c-.28-.25-.5-.23-.68-.03-.18.2-.19.41.09.67l2.09,1.92Z"/><path class="ff" d="M133.58,160.85l.1.16c.3.45.35.83.13,1.18.47-.1.83.13,1.14.6l.24.36c.45.68.32,1.28-.38,1.74l-1.1.72-2.89-4.39,1.05-.69c.72-.47,1.25-.35,1.7.33M131.94,161.38l.76,1.16.27-.18c.26-.17.35-.39.11-.74l-.16-.24c-.21-.31-.4-.38-.65-.22l-.34.22ZM133.11,163.16l.89,1.35.4-.26c.24-.15.29-.34.08-.67l-.25-.38c-.27-.41-.48-.45-.8-.24l-.31.2Z"/><path class="ff" d="M143.35,160.85l-.79.28-.45-.85-.97.34.18.95-.72.26-.93-5.24,1.15-.41,2.53,4.68ZM141,159.91l.76-.27-1.25-2.38.49,2.64Z"/><polygon class="ff" points="148.12 154.48 148.95 154.4 149.37 158.89 150.73 158.75 150.8 159.5 148.61 159.72 148.12 154.48"/><path class="ff" d="M164.79,161.61l-.79-.27.18-.95-.97-.32-.45.86-.72-.24,2.54-4.72,1.15.38-.94,5.26ZM163.55,159.43l.76.25.5-2.65-1.26,2.4Z"/><path class="ff" d="M173.45,160.04c.68.43.77,1.06.3,1.77l-.09.14-.66-.42.12-.18c.21-.32.16-.52-.06-.66-.22-.14-.43-.1-.63.22-.59.91.66,1.95-.16,3.22-.46.71-1.08.89-1.77.46-.69-.44-.78-1.07-.32-1.78l.18-.27.66.42-.21.32c-.21.32-.14.52.08.66.22.14.44.12.64-.2.59-.91-.66-1.95.17-3.22.46-.71,1.08-.9,1.75-.46"/><path class="ff" d="M180.42,165.76c.55.58.49,1.21-.13,1.8l-.12.11-.54-.56.16-.15c.28-.26.28-.47.1-.66-.18-.19-.39-.2-.67.06-.79.75.17,2.06-.93,3.1-.62.58-1.26.61-1.82.03-.56-.59-.5-1.22.12-1.81l.24-.22.54.56-.28.26c-.28.26-.26.47-.08.66.18.19.4.22.67-.05.79-.75-.17-2.06.93-3.1.62-.58,1.26-.62,1.81-.04"/><path class="ff" d="M185.63,172.76l-3.58,1.99c-.33.18-.37.4-.24.63.13.23.33.31.66.12l3.58-1.99.38.68-3.54,1.97c-.74.41-1.37.28-1.76-.43-.39-.71-.17-1.31.57-1.72l3.54-1.97.4.72Z"/><path class="ff" d="M184.39,183.51c.12-.08.19-.13.61-.25l.8-.23c.47-.14.6-.35.5-.71l-.08-.28-2.08.6-.22-.8,5.11-1.46.34,1.2c.23.82-.06,1.29-.84,1.51l-.4.11c-.53.15-.91.08-1.18-.22-.06.45-.41.69-.94.84l-.79.23c-.25.07-.43.13-.59.26l-.23-.81ZM188.52,181.39l-1.57.45.09.31c.08.3.27.44.67.32l.5-.14c.36-.1.49-.27.41-.55l-.11-.38Z"/><path class="ff" d="M185.47,192.33l-.02-.83.96-.18-.03-1.01-.96-.11-.02-.76,5.32.66.03,1.21-5.28,1.03ZM187.1,190.39l.02.8,2.67-.49-2.69-.3Z"/><polygon class="ff" points="188.5 199.16 184.75 198.36 184.92 197.63 190.09 198.74 189.86 199.75 186.57 199.92 189.67 200.58 189.5 201.3 184.33 200.2 184.52 199.36 188.5 199.16"/><path class="ff" d="M183.11,208.44l-.63-.31c-.76-.37-1-.96-.63-1.69.37-.73.99-.9,1.75-.52l2.46,1.21c.76.37,1,.96.63,1.69-.37.73-.99.9-1.75.52l-.46-.22.35-.7.51.25c.34.17.54.08.66-.16.12-.24.07-.45-.27-.61l-2.55-1.25c-.34-.17-.53-.08-.65.16-.12.24-.07.44.27.61l.68.33-.35.7Z"/><polygon class="ff" points="180.08 214.73 179.34 215.6 178.76 215.12 179.5 214.25 178.32 213.26 177.39 214.36 176.81 213.87 178.29 212.14 182.32 215.52 180.84 217.25 180.27 216.77 181.2 215.67 180.08 214.73"/><polygon class="ch" points="155.37 155.59 156.44 156.3 157.65 155.82 157.29 157.06 158.11 158.04 156.82 158.1 156.12 159.19 155.68 157.99 154.43 157.68 155.45 156.88 155.37 155.59"/><polygon class="ch" points="116.51 191.35 117.58 192.06 118.79 191.57 118.43 192.81 119.25 193.8 117.96 193.86 117.26 194.95 116.82 193.74 115.56 193.43 116.59 192.63 116.51 191.35"/><polygon class="ch" points="169.26 220.85 170.33 221.56 171.54 221.08 171.18 222.32 172 223.3 170.71 223.36 170.01 224.45 169.57 223.25 168.31 222.94 169.34 222.14 169.26 220.85"/><path class="ep" d="M171.87,203.87c.37-.22.71-.29,1.01-.21.3.07.53.26.71.57l1.21,2.1c.18.31.22.61.14.9-.09.29-.32.55-.69.76l-1.13.65-2.38-4.11,1.13-.65ZM173.92,207.42c.32-.19.4-.43.23-.72l-1.21-2.09c-.17-.29-.42-.35-.74-.16l-.48.28,1.72,2.97.48-.28Z"/><polygon class="ep" points="172.57 208.95 170.64 210.06 168.27 205.95 170.19 204.84 170.52 205.41 169.25 206.14 169.93 207.32 171.03 206.68 171.36 207.26 170.26 207.89 170.97 209.12 172.24 208.38 172.57 208.95"/><rect class="ep" x="167.99" y="206.25" width=".76" height="4.75" transform="translate(-81.76 112.14) rotate(-30)"/><polygon class="ep" points="166.91 212.22 164.53 208.1 166.38 207.03 166.72 207.61 165.52 208.3 166.27 209.59 167.35 208.97 167.68 209.54 166.6 210.17 167.57 211.84 166.91 212.22"/><rect class="ep" x="164.26" y="208.41" width=".76" height="4.75" transform="translate(-83.34 110.56) rotate(-30)"/><polygon class="ep" points="163.04 209.73 162.28 210.17 164.33 213.71 163.67 214.09 161.62 210.55 160.86 210.99 160.53 210.41 162.71 209.16 163.04 209.73"/><path class="ep" d="M161.96,215.07l-1.41-1.25h0s-.41.24-.41.24l.9,1.55-.65.38-2.38-4.11,1.06-.61c.37-.22.71-.29,1.01-.22.3.07.54.26.71.57l.32.55c.24.42.24.81,0,1.17l1.58,1.33-.72.41ZM159.8,213.49l.41-.24c.33-.19.41-.43.24-.72l-.31-.54c-.17-.29-.42-.35-.74-.16l-.41.24.82,1.42Z"/><polygon class="ep" points="159.83 216.3 157.91 217.42 155.53 213.3 157.46 212.19 157.79 212.76 156.51 213.5 157.19 214.67 158.3 214.04 158.63 214.61 157.52 215.25 158.23 216.47 159.5 215.74 159.83 216.3"/><path class="ep" d="M156.47,216.44l.23.4c.18.31.23.61.14.9-.09.29-.32.55-.69.76s-.71.29-1.01.22c-.3-.07-.53-.26-.71-.57l-1.28-2.21c-.18-.31-.22-.61-.14-.9.08-.3.31-.55.69-.77s.71-.29,1.01-.21c.3.07.54.27.71.57l.24.41-.65.38-.22-.38c-.17-.3-.42-.35-.74-.17s-.4.43-.22.73l1.24,2.15c.17.3.42.36.74.17s.4-.43.22-.73l-.21-.37.65-.38Z"/><path class="ep" d="M167.3,199.8c.1-.05.18-.08.23-.11.34-.19.41-.45.23-.77l-.54-.94c-.2-.35-.49-.41-.88-.19l-.49.28,2.44,4.22-.78.45-2.83-4.91,1.27-.73c.45-.26.85-.34,1.2-.26s.64.31.85.67l.53.92c.22.37.29.72.21,1.05-.08.33-.3.6-.67.81-.13.08-.26.14-.37.19l-.39-.68Z"/><path class="ep" d="M165.8,201.58l.27.47c.21.37.27.73.17,1.08-.1.35-.38.65-.82.91s-.85.34-1.2.26-.64-.31-.85-.68l-1.52-2.63c-.21-.36-.27-.72-.17-1.08.1-.35.37-.66.82-.91s.85-.34,1.2-.25c.36.09.64.32.85.68l.28.49-.78.45-.26-.45c-.21-.36-.5-.42-.88-.2s-.47.51-.27.86l1.48,2.56c.21.36.5.43.89.21s.47-.51.26-.87l-.25-.44.78-.45Z"/><path class="ep" d="M162.38,203.56l.27.47c.21.37.27.73.17,1.08-.1.35-.38.65-.82.91s-.85.34-1.2.26-.64-.31-.85-.68l-1.52-2.63c-.21-.36-.27-.72-.17-1.08.1-.35.37-.66.82-.91s.85-.34,1.2-.25c.36.09.64.32.85.68l.28.49-.78.45-.26-.45c-.21-.36-.5-.42-.88-.2s-.47.51-.27.86l1.48,2.56c.21.36.5.43.89.21s.47-.51.26-.87l-.25-.44.78-.45Z"/><path class="ep" d="M158.35,206.35l-1.09.63.46,1.41-.78.45-1.76-5.53,1.03-.59,3.9,4.29-.78.45-.99-1.11ZM157.83,205.77l-.3-.33c-.69-.77-1.16-1.33-1.4-1.68.17.39.42,1.08.75,2.06l.14.42.81-.47Z"/><polygon class="ep" points="153.57 204.25 156.4 209.15 155.61 209.61 154.42 207.55 153.14 208.29 154.33 210.35 153.55 210.8 150.71 205.9 151.5 205.44 152.74 207.6 154.02 206.86 152.78 204.7 153.57 204.25"/><path class="dh" d="M162.1,173.06l16.81,12.26-2.07,1.19-4.89-3.66-6.27,3.62.72,6.06-2.07,1.2-2.23-20.67ZM164.51,177.23l.82,7.31,5.11-2.95-5.92-4.36"/><g class="dn"><rect class="dz" x="160.63" y="179.89" width="16.83" height="10.33" transform="translate(-69.88 109.31) rotate(-30)"/></g><g class="dl"><rect class="de" x="160.53" y="179.53" width="16.83" height="10.71" transform="translate(-69.81 109.24) rotate(-30)"/></g><path class="ch" d="M158.98,185.92l-1.69.98-4.92,2.84.96,1.66,3.99-2.3-2.28,8.29-.8,2.84c.54-.21,1.07-.46,1.6-.76.26-.15.51-.31.75-.47l.36-1.27,2.12-7.74,2.01,3.48,1.69-.98-3.37-5.83c-.04-.07-.08-.15-.12-.22l-.31-.53h0Z"/><g class="er"><rect class="by" x="151.02" y="188.05" width="11.25" height="10.16" transform="translate(-75.58 104.2) rotate(-30)"/></g><g class="ea"><rect class="ez" x="151.02" y="188.05" width="11.26" height="10.16" transform="translate(-75.58 104.2) rotate(-30)"/></g><path class="ch" d="M153.96,198.39c-3.59,1.13-7.54-.39-9.41-3.62-2.22-3.84-.86-8.79,3.03-11.03,2.18-1.26,4.77-1.45,7.1-.53h.04s.75-1.76.75-1.76l-.04-.02c-2.89-1.15-6.09-.91-8.8.65-4.81,2.78-6.49,8.9-3.75,13.66,2.1,3.64,6.36,5.55,10.51,4.77l.58-2.11Z"/><path class="ex" d="M151.89,195.75l1.64-.94.96,1.67.34-1.23-.52-.89.9-.52.34-1.22-1.69.97-.69-1.2-1.73-3-1.15-1.99,1.92-1.11c.54.5,1.06,1.1,1.53,1.77l.79-.45c-.47-.66-.97-1.27-1.5-1.79l1.87-1.08c.73.38,1.39.89,1.95,1.53l.8-.46c-2.33-2.8-6.46-3.6-9.76-1.7-3.68,2.12-4.97,6.83-2.87,10.46,1.84,3.18,5.68,4.52,9.08,3.38l.34-1.22c-.87.07-1.84-.46-2.53-.98M153.86,184.3l-1.54.89c-.55-.45-1.17-.85-1.82-1.11,1.13-.21,2.29-.13,3.36.22M148.75,184.73c.92-.19,1.99.4,2.73.95l-1.64.94-1.09-1.89ZM153.08,194.03l-1.92,1.11c-.72-.67-1.4-1.51-1.99-2.46l2.34-1.35,1.56,2.71ZM151.07,190.55l-2.34,1.35c-.53-.99-.92-2-1.14-2.95l1.92-1.11,1.56,2.71ZM147.97,185.18l1.09,1.89-1.64.94c-.11-.92-.08-2.14.54-2.84M146.53,186.37c-.1.7-.06,1.43.05,2.13l-1.54.89c.23-1.1.74-2.14,1.49-3.02M144.9,190.5l1.88-1.08c.25.96.64,1.96,1.17,2.94l-2.37,1.37c-.51-1.03-.72-2.13-.67-3.22M148.47,196.69c-.96-.5-1.81-1.24-2.45-2.19l2.37-1.37c.58.94,1.25,1.78,1.96,2.48l-1.88,1.08ZM149.51,197.13l1.54-.89c.55.45,1.17.85,1.82,1.11-1.14.21-2.29.13-3.36-.22"/><g class="eb"><rect class="eg" x="144.16" y="191.15" width="8.28" height="11.41" transform="translate(-78.56 100.52) rotate(-30)"/></g><g class="dk"><rect class="ee" x="144.16" y="191.15" width="8.27" height="11.41" transform="translate(-78.56 100.52) rotate(-30)"/></g><path class="dh" d="M131.43,190.78l16.81,12.26-2.07,1.2-4.89-3.66-6.27,3.62.72,6.06-2.07,1.2-2.23-20.67ZM133.83,194.94l.81,7.31,5.11-2.95-5.92-4.36"/><g class="ef"><rect class="ev" x="130.17" y="198.43" width="16.83" height="9.45" transform="translate(-83.01 96.51) rotate(-30)"/></g><g class="dr"><rect class="cf" x="130.05" y="197.95" width="16.83" height="9.95" transform="translate(-82.92 96.42) rotate(-30)"/></g></g></g></svg>