<?xml version="1.0" encoding="UTF-8"?><svg id="a" xmlns="http://www.w3.org/2000/svg" viewBox="0 0 21.47 20"><defs><style>.b{fill:#0c7e4a;}</style></defs><path class="b" d="M11.15,1.88v1.49s.1.15.15.17c.13.06,2.58.08,2.81.03.1-.02.3-.09.3-.21v-1.49h3.17v8.85h-3.26v-2.36c0-.53-.62.16-.66.16-.08,0-.21-.34-.46-.32-.19.01-.36.33-.41.33-.05,0-.28-.37-.45-.36-.15,0-.36.35-.43.35-.04,0-.66-.68-.66-.16v2.36h-3.26V1.88h3.17Z"/><path class="b" d="M13.21,11.19v1.54c0,.12.19.19.3.21.25.04,2.72.03,2.84-.05.04-.03.12-.17.12-.2v-1.49h3.12v8.81h-3.21v-2.27c0-.55-.65.13-.71.12-.03,0-.18-.37-.46-.33-.15.02-.3.33-.41.32s-.21-.35-.42-.34c-.15,0-.34.34-.42.34-.04,0-.66-.64-.66-.16v2.32h-3.26v-8.81h3.17Z"/><path class="b" d="M3.12,11.19v1.49s.07.17.12.2c.15.1,2.97.08,3.09-.02.03-.02.09-.16.09-.18v-1.49h3.17v8.81h-3.26v-2.27c0-.55-.66.12-.7.11-.09,0-.23-.32-.42-.32s-.33.33-.45.32c-.08,0-.28-.35-.42-.35s-.34.34-.42.35c-.05,0-.7-.67-.7-.11v2.27H0v-8.81h3.12ZM.95,11.93c-.26.11-.23.74.07.72.33-.03.28-.81-.07-.72ZM.99,13.08c-.15.01-.19.16-.21.29-.05.27-.03,2.94.05,3.07.14.24.37.08.41-.18.05-.27.03-2.94-.05-3.07-.03-.06-.12-.12-.19-.11Z"/><path class="b" d="M20.05,19.68v-8.65c0-.1,1.27-1.21,1.42-1.4v8.65c0,.1-1.27,1.21-1.42,1.4Z"/><path class="b" d="M18.03,10.37V1.72c0-.1,1.21-1.24,1.38-1.4v8.65c0,.1-1.22,1.23-1.38,1.4Z"/><path class="b" d="M19.08,0c-.19.15-1.26,1.42-1.35,1.42h-4.43c.19-.15,1.3-1.42,1.4-1.42h4.38Z"/><path class="b" d="M6.1,9.31c-.19.15-1.3,1.42-1.4,1.42H.32c.19-.15,1.3-1.42,1.4-1.42h4.38Z"/><path class="b" d="M14.08,0c-.19.15-1.3,1.42-1.4,1.42h-4.33c.19-.15,1.26-1.42,1.35-1.42h4.38Z"/><path class="b" d="M13.85,8.99v1.74h-2.16v-1.74c.27.29.51-.29.66-.27.12.01.21.38.45.34.13-.02.32-.33.39-.34.15-.02.39.56.66.27Z"/><path class="b" d="M5.87,18.3v1.7h-2.2v-1.7c.28.31.59-.27.67-.27.05,0,.29.36.42.37.17.01.4-.37.46-.37.08,0,.39.58.67.27Z"/><path class="b" d="M15.92,18.3v1.7h-2.16v-1.7c.25.32.52-.27.62-.27.06,0,.27.38.49.36.17-.02.35-.36.38-.36.06,0,.4.59.67.27Z"/><rect class="b" x="3.58" y="11.19" width="2.39" height="1.28"/><rect class="b" x="13.67" y="11.19" width="2.34" height="1.28"/><rect class="b" x="11.61" y="1.88" width="2.34" height="1.24"/><path class="b" d="M7.52,9.31v1.42h-2.2c.19-.15,1.3-1.42,1.4-1.42h.8Z"/><path class="b" d="M21.15,9.31c-.19.15-1.3,1.42-1.4,1.42h-1.44c.19-.15,1.3-1.42,1.4-1.42h1.44Z"/></svg>