<?xml version="1.0" encoding="UTF-8"?><svg id="a" xmlns="http://www.w3.org/2000/svg" viewBox="0 0 20.05 20"><defs><style>.b{fill:#0c7e4a;}</style></defs><path class="b" d="M8.31,1.6c-.48,1.79-1.27,5.83,1.23,6.51,2.12.58,1.5-2.56,3.51-2.65l1.07,2.57c-1.2.46-2.39,1.09-2.3,2.59.04.67.43,1.23.27,1.98-.1.47-1,1.27-1.27,1.8-1.16,2.25.43,3.46,1.93,4.86-2.57,1.16-5.72.94-8.13-.51.42-1.02.63-1.71.42-2.82-.03-.16-.24-.56-.23-.63.01-.09.79-1.13.93-1.49.65-1.58.71-3.38-.89-4.37,2.28-2.91.46-4.48-2.7-4.52,1.45-1.91,3.79-3.05,6.15-3.32Z"/><path class="b" d="M18.32,9.37c.46,2.91-.57,5.97-2.66,8.01-.31.31-1.96,1.66-2.32,1.54-.17-.06-1.44-1.35-1.61-1.57-1.98-2.59,1.07-3.18,1.07-5.17,0-1.12-.9-1.86.22-2.86.27-.24,1.17-.7,1.51-.63.2.04,1.64,2.06,2.24,2,.35-.03,1.22-1.09,1.54-1.32Z"/><path class="b" d="M16.56,0c1.76-.08,3.34,1.27,3.48,3.04.21,2.57-1.34,5.33-3.3,6.9-2.31-1.61-4.65-6.45-2.47-8.85C14.84.46,15.71.04,16.56,0ZM16.56,1.32c-2.33.16-2.42,3.62-.24,3.97,3.07.49,3.19-4.18.24-3.97Z"/><path class="b" d="M4.35,15.86c.32.88.04,1.73-.32,2.54C-.14,15.66-1.34,9.55,1.7,5.52c1.07.11,3.72.15,3.53,1.77-.03.26-.82,1.8-.99,1.89-.27.15-1.18-.14-2.02.42-1.93,1.27-1.05,4.1.12,5.58.55.7,1.22,1.59,2.02.69Z"/><path class="b" d="M12.9,2.34c-.24.81-.15,1.67,0,2.49-.85.16-1.45.63-1.9,1.35-.47.76-.44,1.87-1.67,1.11-1.55-.97-.72-4.3-.29-5.73,1.33-.02,2.64.27,3.85.78Z"/><path class="b" d="M3.37,9.82c.81-.09,1.65.32,1.97,1.08.65,1.51-.5,3.69-1.69,4.66-1.68-.98-3.11-5.41-.28-5.74ZM3.41,10.75c-1.08.18-.97,1.95.23,1.94,1.31-.01,1.26-2.18-.23-1.94Z"/></svg>