<?xml version="1.0" encoding="UTF-8"?><svg id="a" xmlns="http://www.w3.org/2000/svg" viewBox="0 0 12.33 20"><defs><style>.b{fill:#0c7e4a;}</style></defs><path class="b" d="M11.28,6.67l1.06-1.04-1.23-.83.61-1.36-1.45-.33.08-1.48-1.47.21-.46-1.41-1.29.73-.94-1.15-.94,1.15-1.29-.73-.47,1.41-1.47-.21.08,1.48-1.45.33.61,1.36-1.23.83,1.06,1.04-.84,1.22,1.36.59-.35,1.44,1.48.06.2,1.47,1.41-.48.72,1.3,1.14-.95,1.14.95.72-1.3,1.41.48.2-1.47,1.48-.06-.35-1.44,1.36-.59-.85-1.22ZM6.17,10.38c-2.34,0-4.24-1.9-4.24-4.24S3.82,1.9,6.17,1.9s4.24,1.9,4.24,4.24-1.9,4.24-4.24,4.24Z"/><path class="b" d="M2.36,6.04c0,2.1,1.7,3.8,3.8,3.8s3.8-1.7,3.8-3.8-1.7-3.8-3.8-3.8c2.03,0,3.68,1.65,3.68,3.68s-1.65,3.68-3.68,3.68-3.68-1.65-3.68-3.68,1.65-3.68,3.68-3.68c-2.1,0-3.8,1.7-3.8,3.8Z"/><polygon class="b" points="4.44 19.27 2.96 16.54 .97 18.41 2.65 11.08 2.52 10.04 .55 19.16 2.87 16.99 4.51 20 6.17 11.55 5.85 11.85 4.44 19.27"/><polygon class="b" points="3 16.27 4.36 18.78 5.65 12.05 4.95 12.7 4.15 11.2 2.73 11.71 2.71 11.56 1.25 17.91 3 16.27"/><path class="b" d="M9.11,15.76l1.76,1.61c-.31-1.49-.92-4.38-1.18-5.59l-1.51-.58-.79,1.48-.65-.6,1.17,6.54,1.19-2.86Z"/><path class="b" d="M9.88,10.26l-.1,1.17c.13.54.45,2.03,1.31,6.15l.05.25-1.97-1.79-1.32,3.16-1.31-7.31-.37-.34,1.65,8.45,1.64-3.01,2.31,2.17-1.9-8.9Z"/><path class="b" d="M6.22,2.4c-1.93,0-3.49,1.56-3.49,3.49s1.56,3.49,3.49,3.49,3.49-1.56,3.49-3.49-1.56-3.49-3.49-3.49ZM6.29,3.85l.44,1.35c.03.08.1.14.19.14h1.42c.07,0,.1.09.04.14l-1.15.83c-.07.05-.1.14-.07.23l.44,1.35c.02.07-.06.13-.12.08l-1.15-.83c-.07-.05-.17-.05-.24,0l-1.15.83c-.06.04-.14-.01-.12-.08l.44-1.35c.03-.08,0-.17-.07-.23l-1.15-.83c-.06-.04-.03-.14.04-.14h1.42c.09,0,.16-.06.19-.14l.44-1.35c.02-.07.12-.07.14,0Z"/></svg>