<?xml version="1.0" encoding="UTF-8"?>
<svg id="Layer_1" xmlns="http://www.w3.org/2000/svg" version="1.1" viewBox="0 0 20 20">
  <!-- Generator: Adobe Illustrator 29.1.0, SVG Export Plug-In . SVG Version: 2.1.0 Build 142)  -->
  <defs>
    <style>
      .st0 {
        fill: #0c7e4a;
        fill-rule: evenodd;
      }
    </style>
  </defs>
  <path class="st0" d="M10.4,20v-5l1.9,2,3.4-1.8v2s-5.2,2.8-5.2,2.8ZM9.6,20l-5.2-2.8v-2.1l3.4,1.9,1.8-2v5ZM6.5,7.2c.5.6,1.1,1.6,1.2,2.7l-2.7,1.5,4.5,2.4h0s-2,2.2-2,2.2l-3.8-2.1h0s-1.3-.7-1.3-.7l1.9-2.1-1.9-1.8s4-2.1,4-2.1ZM13.5,7.3l4,2.1-1.9,1.7h0s1.9,2.2,1.9,2.2l-1.3.7-3.7,2-2-2.1h0s4.5-2.4,4.5-2.4l-2.6-1.5c.2-1.1.6-1.9,1.2-2.6ZM10.2,11.7h-.4c-.1,0-.2,0-.3-.1l-.6-.4h2.2l-.6.4c0,0-.2.1-.3.1ZM11.1,10.7h-2.2c-.1,0-.2-.1-.2-.2s.1-.2.2-.2h2.2c.1,0,.2.1.2.2s-.1.2-.2.2ZM11.4,9.7h-2.7c0-1.9-1.6-2.8-1.6-4.5s1.5-2.8,2.9-2.8,2.9,1,2.9,2.8-1.6,2.5-1.6,4.5ZM6.1,5.3h-1.5v-.8h1.5c0,.2,0,.4,0,.6v.3ZM15.3,5.3h-1.5v-.3c0-.2,0-.4,0-.6h1.5v.8ZM7,2.8c-.2.2-.4.4-.5.7l-1.2-.9.5-.7s1.2.9,1.2.9ZM13,2.8l1.2-.9.5.7-1.2.8c-.1-.2-.3-.5-.5-.7ZM8.6,1.7c-.3,0-.5.2-.8.4l-.6-1.3.7-.4.6,1.3ZM11.4,1.7l.6-1.3.7.4-.6,1.3c-.2-.1-.5-.3-.8-.4ZM10.4,1.5c-.1,0-.3,0-.4,0s-.3,0-.4,0V0h.8s0,1.5,0,1.5Z"/>
</svg>